<svg width="63" height="54" viewBox="0 0 63 54" fill="none" xmlns="http://www.w3.org/2000/svg">
<g clip-path="url(#clip0_16_837)">
<path d="M62.8902 17.7924C62.8088 17.5804 62.6833 17.3884 62.522 17.2293C62.3607 17.0702 62.1674 16.9476 61.955 16.8697L55.2789 14.3926C53.1772 13.6079 51.2394 12.4368 49.5646 10.9393L51.2286 9.26782C51.3775 9.11903 51.4956 8.94217 51.5762 8.7474C51.6567 8.55263 51.6982 8.34379 51.6982 8.13288C51.6982 7.92196 51.6567 7.71312 51.5762 7.51836C51.4956 7.32359 51.3775 7.14673 51.2286 6.99794L47.631 3.38087C47.4826 3.23128 47.3063 3.11259 47.1121 3.0316C46.9179 2.95061 46.7098 2.90893 46.4995 2.90893C46.2893 2.90893 46.0811 2.95061 45.8869 3.0316C45.6927 3.11259 45.5164 3.23128 45.368 3.38087L43.7039 5.05235L39.4207 0.753311C39.2726 0.60382 39.0965 0.485187 38.9026 0.404243C38.7087 0.3233 38.5008 0.281616 38.2909 0.281616C38.0809 0.281616 37.873 0.3233 37.6791 0.404243C37.4852 0.485187 37.3091 0.60382 37.161 0.753311L29.9458 7.99748C29.6466 8.29943 29.4787 8.7081 29.4787 9.13409C29.4787 9.56009 29.6466 9.96876 29.9458 10.2707L34.229 14.5697L27.463 21.366L12.194 6.02851C11.8703 5.70403 11.4841 5.4492 11.0591 5.27965L4.5694 2.71228C4.18029 2.55904 3.76592 2.48077 3.34799 2.4816C2.4654 2.48178 1.61904 2.83413 0.995052 3.4611C0.537181 3.92154 0.223066 4.50622 0.0912334 5.14339C-0.0405995 5.78057 0.0155888 6.44253 0.252903 7.04809L2.80884 13.5702C2.97613 13.9961 3.22875 14.383 3.55101 14.7068L18.8201 30.0477L4.97208 43.9577C3.93256 45.0043 3.34878 46.4223 3.34878 47.9007C3.34878 49.3791 3.93256 50.7972 4.97208 51.8437L5.02867 51.9006C6.07116 52.945 7.48342 53.5315 8.95576 53.5315C10.4281 53.5315 11.8404 52.945 12.8829 51.9006L15.5719 49.1995C16.9277 47.8413 17.8182 46.0852 18.1145 44.185V44.1383C18.3021 42.9062 18.8784 41.7672 19.7586 40.8889L24.6741 35.9513L40.6188 51.9674C41.2434 52.5932 42.0897 52.9443 42.9718 52.9436C43.4091 52.9444 43.8423 52.8586 44.2466 52.6911C44.6509 52.5236 45.0184 52.2777 45.328 51.9674L49.2618 48.0127C49.8857 47.3858 50.2362 46.5357 50.2362 45.6492C50.2362 44.7628 49.8857 43.9127 49.2618 43.2858L33.3171 27.2696L40.0597 20.4935C41.5528 22.174 42.7189 24.121 43.4976 26.2333L45.967 32.9426C46.0456 33.1599 46.1705 33.3574 46.3331 33.521C46.4898 33.6792 46.6781 33.8023 46.8855 33.882C47.0964 33.9648 47.3223 34.0017 47.5483 33.9902C47.7744 33.9786 47.9954 33.919 48.1968 33.8152L50.0472 32.8591C55.1427 30.2473 59.2868 26.0858 61.8884 20.9682L62.8369 19.1062C62.9376 18.9034 62.9945 18.6814 63.0036 18.455C63.0128 18.2286 62.9741 18.0027 62.8902 17.7924ZM46.4862 6.80071L47.8174 8.1379L47.2749 8.68615L45.9437 7.34896L46.4862 6.80071ZM5.88396 12.3634L3.32802 5.84463L9.82105 8.412L10.0873 8.67946L6.15022 12.6309L5.88396 12.3634ZM17.4822 38.619C16.1264 39.9771 15.2359 41.7333 14.9396 43.6335V43.6802C14.7521 44.9122 14.1758 46.0513 13.2955 46.9296L10.6065 49.6307C10.388 49.8503 10.1286 50.0244 9.84305 50.1433C9.55753 50.2621 9.25149 50.3232 8.94244 50.3232C8.63339 50.3232 8.32737 50.2621 8.04185 50.1433C7.75633 50.0244 7.49691 49.8503 7.27841 49.6307L7.22184 49.5739C7.00328 49.3544 6.8299 49.0938 6.7116 48.807C6.59331 48.5203 6.53243 48.2128 6.53243 47.9024C6.53243 47.5919 6.59331 47.2846 6.7116 46.9978C6.8299 46.711 7.00328 46.4504 7.22184 46.2309L21.0765 32.3342L22.4077 33.6714L17.4822 38.619ZM46.8955 45.6392L42.9585 49.5906L39.5805 46.2075L43.5176 42.2562L46.8955 45.6392ZM41.1646 39.8826L37.2276 43.834L35.6134 42.2127L39.5505 38.2613L41.1646 39.8826ZM37.1976 35.8978L33.2605 39.8559L8.50313 14.9876L12.4402 11.0363L37.1976 35.8978ZM31.0407 24.9864L29.7095 23.6492L36.3656 16.9633L37.6968 18.3005L31.0407 24.9864ZM46.8556 26.1097L46.4862 25.1068C45.4293 22.2428 43.771 19.641 41.6239 17.4781L33.3038 9.13744L38.2559 4.16311L46.576 12.5205C48.7295 14.6777 51.3196 16.3446 54.1707 17.4079L55.1691 17.7756C53.1322 21.2084 50.2747 24.0765 46.8556 26.1197V26.1097ZM59.0296 19.4906C56.7319 24.0084 53.0738 27.6828 48.5762 29.9908L48.3266 30.1179L47.9938 29.1718C52.268 26.7394 55.804 23.1863 58.2242 18.8922L59.1694 19.2265L59.0296 19.4906Z" fill="#AB6F4B"/>
<path d="M11.0458 47.4009C11.0452 47.8272 10.8765 48.2359 10.5765 48.5375C10.2767 48.8374 9.87143 49.0067 9.44833 49.0089C9.02414 49.0072 8.61765 48.8379 8.31678 48.5375C8.01683 48.2359 7.84811 47.8272 7.84753 47.4009C7.84883 46.9748 8.01745 46.5663 8.31678 46.2643C8.61765 45.964 9.02414 45.7946 9.44833 45.793C9.87107 45.7969 10.2757 45.966 10.5765 46.2643C10.8759 46.5663 11.0445 46.9748 11.0458 47.4009Z" fill="#AB6F4B"/>
</g>
<defs>
<clipPath id="clip0_16_837">
<rect width="63" height="53.25" fill="white" transform="translate(0 0.298584)"/>
</clipPath>
</defs>
</svg>
