<svg width="64" height="60" viewBox="0 0 64 60" fill="none" xmlns="http://www.w3.org/2000/svg">
<g clip-path="url(#clip0_16_829)">
<path d="M61.6154 39.9926H59.3029L40.8027 7.39671L43.2579 3.07615C43.5033 2.64063 43.5667 2.12554 43.4341 1.64339C43.3016 1.16124 42.9839 0.751233 42.5504 0.50288C42.1192 0.254832 41.6073 0.188352 41.1271 0.318064C40.8884 0.383795 40.665 0.49604 40.4698 0.648354C40.2745 0.800668 40.1111 0.990072 39.989 1.20571L38.6468 3.57458L37.3018 1.2029C37.0528 0.76988 36.6431 0.452803 36.1619 0.320662C35.6807 0.188521 35.1668 0.251999 34.732 0.497274C34.5157 0.618974 34.3259 0.782731 34.1737 0.978917C34.0215 1.1751 33.9099 1.39975 33.8456 1.6397C33.7791 1.87815 33.7607 2.12749 33.7914 2.37315C33.8221 2.61882 33.9014 2.85588 34.0246 3.07054L36.4769 7.39111L25.8846 26.0565V19.7535C25.8635 18.5825 25.3867 17.466 24.5558 16.6417C23.7248 15.8175 22.6054 15.3506 21.4358 15.3406H4.95735C3.78666 15.347 2.66513 15.8127 1.8334 16.6377C1.00168 17.4628 0.526011 18.5814 0.508469 19.7535V55.0851C0.526011 56.2573 1.00168 57.3759 1.8334 58.2009C2.66513 59.0259 3.78666 59.4916 4.95735 59.4981H21.4358C22.6065 59.4916 23.728 59.0259 24.5597 58.2009C25.3914 57.3759 25.8671 56.2573 25.8846 55.0851V43.7615H61.6238C62.1234 43.7608 62.6024 43.5617 62.9556 43.2079C63.3089 42.8542 63.5077 42.3746 63.5085 41.8743C63.5055 41.3737 63.3047 40.8947 62.9499 40.542C62.5951 40.1894 62.1153 39.9918 61.6154 39.9926ZM41.0572 39.9926H36.2169L38.6384 29.3522L41.0572 39.9926ZM36.7537 14.5398V20.6495L32.3496 39.9926H25.8763V33.7064L36.7537 14.5398ZM54.9687 39.9926H44.9244L40.5231 20.6495V14.5398L54.9687 39.9926ZM3.83884 19.7591C3.83516 19.6125 3.86181 19.4666 3.91712 19.3307C3.97244 19.1948 4.05522 19.0719 4.16026 18.9696C4.2653 18.8673 4.39034 18.7879 4.52751 18.7363C4.66468 18.6847 4.81103 18.6621 4.95735 18.6699H7.8319V18.9163C7.82925 19.3204 7.90719 19.7209 8.06115 20.0943C8.2151 20.4678 8.44198 20.8068 8.72847 21.0913C9.01496 21.3758 9.3553 21.6002 9.72953 21.7513C10.1038 21.9024 10.5043 21.9772 10.9078 21.9712H16.0725C16.8868 21.9635 17.6685 21.6493 18.2621 21.0912C18.8558 20.533 19.2181 19.7716 19.277 18.9583V18.6783H21.433C21.5793 18.6705 21.7256 18.6931 21.8628 18.7447C22 18.7963 22.125 18.8757 22.23 18.978C22.3351 19.0803 22.4179 19.2033 22.4732 19.3391C22.5285 19.475 22.5552 19.6208 22.5515 19.7675V55.0991C22.5552 55.2458 22.5285 55.3916 22.4732 55.5275C22.4179 55.6634 22.3351 55.7863 22.23 55.8886C22.125 55.9909 22 56.0703 21.8628 56.1219C21.7256 56.1735 21.5793 56.1961 21.433 56.1884H4.95455C4.80823 56.1961 4.66188 56.1735 4.52471 56.1219C4.38754 56.0703 4.2625 55.9909 4.15746 55.8886C4.05242 55.7863 3.96964 55.6634 3.91433 55.5275C3.85901 55.3916 3.83236 55.2458 3.83604 55.0991L3.83884 19.7591Z" fill="#AB6F4B"/>
</g>
<defs>
<clipPath id="clip0_16_829">
<rect width="63" height="59.25" fill="white" transform="translate(0.5 0.256592)"/>
</clipPath>
</defs>
</svg>
