<svg width="61" height="52" viewBox="0 0 61 52" fill="none" xmlns="http://www.w3.org/2000/svg">
<g clip-path="url(#clip0_16_813)">
<path d="M60.75 9.118V49.3294C60.7521 49.62 60.6832 49.9067 60.5495 50.1645C60.4157 50.4223 60.2211 50.6435 59.9825 50.8087C59.6857 51.0116 59.3345 51.1199 58.9752 51.1193C58.7581 51.1202 58.5428 51.0801 58.3405 51.001L39.9576 43.9373L21.5673 51.6482C21.351 51.7385 21.119 51.785 20.8847 51.785H20.8182C20.5838 51.7857 20.3517 51.7392 20.1356 51.6482L1.08852 43.6636C0.765768 43.5279 0.490217 43.2997 0.29654 43.0075C0.102863 42.7154 -0.00030037 42.3723 3.70474e-06 42.0216V1.79539C-0.00059426 1.50261 0.0712024 1.21425 0.209 0.956098C0.346798 0.697945 0.546306 0.478051 0.789641 0.316078C1.03321 0.154289 1.3128 0.055157 1.60369 0.0274205C1.89458 -0.000315927 2.18781 0.0442227 2.45745 0.157077L20.8515 7.86798L39.2454 0.157077H39.2934H39.3192C39.3772 0.136421 39.4364 0.119129 39.4963 0.105296H39.5259L39.7067 0.0756805H39.7362C39.7964 0.0719772 39.8568 0.0719772 39.917 0.0756805H39.9502C40.0104 0.0719772 40.0708 0.0719772 40.131 0.0756805H40.1605C40.2226 0.0831801 40.2842 0.0943262 40.345 0.108998H40.3708L40.5516 0.168137L59.6098 7.44267C59.9478 7.57181 60.2383 7.80156 60.4421 8.10106C60.6459 8.40056 60.7534 8.75547 60.75 9.118ZM57.2114 46.7443V10.3384L41.714 4.38048V40.7864L57.2114 46.7443ZM38.1643 40.827V4.48404L22.6669 10.9819V30.372C22.9916 30.1545 23.379 30.0507 23.7688 30.0768C24.1585 30.1029 24.5287 30.2574 24.8217 30.5162C24.9963 30.6706 25.1388 30.8579 25.2411 31.0675C25.3434 31.2771 25.4035 31.5048 25.4179 31.7377C25.4323 31.9706 25.4007 32.2041 25.325 32.4247C25.2493 32.6454 25.131 32.8489 24.9767 33.0237C24.2572 33.8605 23.4857 34.6511 22.6669 35.3905V47.3323L38.1643 40.827ZM19.0545 47.3249V37.3987C18.7775 37.3617 18.5132 37.2597 18.283 37.1009C18.0528 36.9422 17.8633 36.7313 17.7298 36.4853C17.5054 36.0708 17.4544 35.584 17.5879 35.1319C17.7214 34.6797 18.0286 34.2992 18.442 34.074C18.6486 33.9593 18.8552 33.8373 19.0545 33.7041V10.9782L3.55704 4.48034V40.8418L19.0545 47.3249Z" fill="#AB6F4B"/>
<path d="M53.9607 20.0169C54.4873 21.8562 54.6884 23.7738 54.5547 25.6826C54.5248 26.132 54.3255 26.5532 53.9974 26.8608C53.6692 27.1684 53.2366 27.3396 52.7873 27.3395H52.6692C52.4368 27.3245 52.2096 27.2636 52.0007 27.1604C51.7917 27.0572 51.6051 26.9138 51.4516 26.7383C51.298 26.5627 51.1805 26.3585 51.1058 26.1374C51.0311 25.9163 51.0006 25.6826 51.0162 25.4496C51.1213 23.9547 50.9652 22.4528 50.5549 21.0117C50.4872 20.7864 50.4649 20.5498 50.4893 20.3158C50.5136 20.0818 50.5841 19.8549 50.6968 19.6484C50.8094 19.4419 50.9618 19.2599 51.1453 19.113C51.3287 18.9662 51.5394 18.8573 51.7652 18.7927C51.9895 18.7279 52.2245 18.7082 52.4565 18.7347C52.6884 18.7612 52.9129 18.8334 53.117 18.9471C53.321 19.0609 53.5006 19.214 53.6454 19.3976C53.7902 19.5812 53.8973 19.7916 53.9607 20.0169Z" fill="#AB6F4B"/>
<path d="M53.9127 34.7805C53.9809 35.0039 54.0045 35.2386 53.9821 35.4711C53.9596 35.7037 53.8916 35.9295 53.7819 36.1356C53.6722 36.3418 53.523 36.5242 53.3428 36.6725C53.1626 36.8207 52.955 36.9318 52.7319 36.9995L49.7357 37.9092L50.7726 41.0195C50.8474 41.24 50.8781 41.4731 50.863 41.7055C50.8478 41.9378 50.7871 42.1649 50.6843 42.3738C50.5815 42.5826 50.4386 42.7691 50.2638 42.9226C50.089 43.076 49.8857 43.1934 49.6656 43.268C49.4836 43.329 49.293 43.3602 49.1011 43.3605C48.7298 43.3602 48.3679 43.2434 48.0661 43.0265C47.7644 42.8096 47.5379 42.5035 47.4185 42.1511L46.3447 38.941L44.3596 39.5402C44.1938 39.593 44.0207 39.6192 43.8467 39.6178C43.4665 39.6171 43.0964 39.4942 42.7909 39.2673C42.4855 39.0403 42.2606 38.7211 42.1494 38.3567C42.0817 38.133 42.0586 37.8982 42.0816 37.6657C42.1045 37.4331 42.1728 37.2073 42.2828 37.0012C42.3928 36.7951 42.5423 36.6128 42.7226 36.4647C42.9029 36.3165 43.1106 36.2054 43.3338 36.1377L45.2193 35.5645L44.271 32.7279C44.1209 32.2826 44.1532 31.7958 44.3607 31.3742C44.5682 30.9527 44.9341 30.6309 45.378 30.4794C45.598 30.4044 45.8306 30.3736 46.0624 30.3888C46.2943 30.404 46.5209 30.4648 46.7292 30.5679C46.9376 30.6709 47.1237 30.8141 47.2768 30.9893C47.4299 31.1645 47.547 31.3683 47.6214 31.5889L48.6029 34.5216L51.6987 33.5822C51.9226 33.5146 52.1576 33.492 52.3902 33.5157C52.6228 33.5393 52.8484 33.6089 53.0542 33.7202C53.2599 33.8316 53.4416 33.9825 53.589 34.1645C53.7363 34.3464 53.8463 34.5558 53.9127 34.7805Z" fill="#AB6F4B"/>
<path d="M53.0197 28.2198C53.4139 28.477 53.69 28.8804 53.7876 29.3416C53.8851 29.8027 53.7961 30.2837 53.54 30.6791C52.8171 31.8131 51.8825 32.7964 50.7874 33.5749C50.4918 33.7813 50.1403 33.8923 49.78 33.8929C49.49 33.8957 49.2037 33.8269 48.9463 33.6928C48.689 33.5587 48.4684 33.3632 48.3041 33.1237C48.1715 32.9321 48.0779 32.7162 48.0286 32.4884C47.9793 32.2605 47.9753 32.0252 48.0168 31.7958C48.0582 31.5664 48.1444 31.3474 48.2703 31.1514C48.3962 30.9553 48.5594 30.7861 48.7505 30.6532C49.4683 30.1399 50.0798 29.4918 50.5512 28.7449C50.678 28.547 50.8427 28.3762 51.0358 28.2425C51.2289 28.1088 51.4465 28.0149 51.6761 27.966C51.9057 27.9172 52.1427 27.9144 52.3733 27.958C52.6039 28.0016 52.8236 28.0906 53.0197 28.2198Z" fill="#AB6F4B"/>
<path d="M49.8317 15.5198C50.0225 15.6535 50.1851 15.8236 50.3103 16.0203C50.4355 16.2171 50.5207 16.4366 50.5612 16.6664C50.6016 16.8962 50.5965 17.1318 50.546 17.3595C50.4955 17.5873 50.4008 17.8029 50.2671 17.994C50.1009 18.2243 49.8824 18.4115 49.6295 18.5402C49.3767 18.6688 49.0968 18.7351 48.8133 18.7336C48.4484 18.7333 48.0926 18.6196 47.7949 18.4082C46.772 17.7092 45.5774 17.3049 44.3412 17.2395C44.1089 17.2249 43.8818 17.1645 43.6729 17.0617C43.4639 16.9589 43.2773 16.8159 43.1237 16.6406C42.9701 16.4654 42.8526 16.2614 42.7778 16.0405C42.7031 15.8196 42.6726 15.5861 42.6881 15.3534C42.7027 15.1206 42.7629 14.893 42.8655 14.6836C42.968 14.4742 43.1108 14.2871 43.2856 14.1332C43.4605 13.9792 43.6639 13.8614 43.8843 13.7865C44.1047 13.7116 44.3377 13.681 44.5699 13.6966C46.458 13.8063 48.2791 14.4373 49.8317 15.5198Z" fill="#AB6F4B"/>
<path d="M37.7031 17.0879C37.9488 17.4897 38.0254 17.9728 37.9161 18.4311C37.8068 18.8894 37.5205 19.2855 37.1201 19.5325C35.8017 20.3183 34.5837 21.2622 33.493 22.3432C33.3286 22.5115 33.1322 22.645 32.9155 22.7358C32.6987 22.8266 32.466 22.873 32.231 22.872C32.0002 22.8726 31.7715 22.8276 31.5581 22.7394C31.3447 22.6511 31.1508 22.5215 30.9875 22.358C30.8225 22.1934 30.6916 21.9978 30.6023 21.7823C30.5129 21.5668 30.4669 21.3358 30.4669 21.1024C30.4669 20.8691 30.5129 20.6381 30.6023 20.4226C30.6916 20.2071 30.8225 20.0115 30.9875 19.8469C32.2783 18.5674 33.7193 17.4498 35.2789 16.5184C35.6769 16.2765 36.1537 16.2006 36.607 16.3071C37.0603 16.4135 37.4538 16.6939 37.7031 17.0879Z" fill="#AB6F4B"/>
<path d="M30.2053 23.3639C30.5778 23.6515 30.8212 24.0755 30.8821 24.5429C30.943 25.0102 30.8164 25.4827 30.53 25.8565C29.9949 26.5555 29.4562 27.2767 28.9359 27.9756C28.567 28.4564 28.2201 28.9409 27.8585 29.418C27.6929 29.6376 27.4788 29.8156 27.2329 29.9382C26.9871 30.0608 26.7162 30.1245 26.4416 30.1243C26.0551 30.1225 25.6801 29.9925 25.3752 29.7545C25.1892 29.614 25.0326 29.4382 24.9145 29.237C24.7963 29.0359 24.719 28.8133 24.6867 28.5821C24.6545 28.3509 24.6681 28.1156 24.7267 27.8897C24.7854 27.6638 24.8879 27.4517 25.0284 27.2656C25.3974 26.7959 25.7405 26.3188 26.0947 25.8454C26.6224 25.1354 27.1685 24.3994 27.7183 23.6819C28.0063 23.3097 28.4299 23.0671 28.8961 23.0075C29.3624 22.9478 29.8332 23.076 30.2053 23.3639Z" fill="#AB6F4B"/>
<path d="M14.9108 34.6178C15.1357 34.6782 15.3464 34.7826 15.531 34.9249C15.7155 35.0672 15.8702 35.2447 15.9861 35.4471C16.1019 35.6495 16.1768 35.8729 16.2063 36.1044C16.2358 36.3359 16.2193 36.5709 16.1579 36.796C16.056 37.1723 15.8337 37.5045 15.525 37.7417C15.2163 37.979 14.8385 38.108 14.4495 38.109C14.2924 38.1099 14.1359 38.0887 13.9846 38.0461C12.1728 37.5827 10.5589 36.5449 9.38334 35.0874C9.24137 34.9026 9.13722 34.6915 9.07687 34.4662C9.01652 34.2409 9.00116 34.0058 9.03167 33.7746C9.06219 33.5433 9.13797 33.3204 9.25468 33.1186C9.37138 32.9168 9.52671 32.74 9.71174 32.5985C9.89647 32.4561 10.1074 32.3517 10.3325 32.2911C10.5576 32.2306 10.7923 32.2152 11.0234 32.2457C11.2544 32.2763 11.4772 32.3523 11.6789 32.4693C11.8805 32.5863 12.0572 32.7421 12.1987 32.9277C12.9033 33.7624 13.8521 34.3537 14.9108 34.6178Z" fill="#AB6F4B"/>
<path d="M14.4828 19.1294C14.8218 19.4565 15.0173 19.9052 15.0263 20.3768C15.0353 20.8484 14.857 21.3043 14.5307 21.6442C14.3656 21.8166 14.1674 21.9537 13.9479 22.0471C13.7285 22.1405 13.4924 22.1884 13.254 22.1879C12.7964 22.1891 12.3561 22.0129 12.0253 21.696L11.1434 20.8454C11.0991 21.1265 11.0549 21.4371 11.0106 21.7774C10.9542 22.2042 10.745 22.5959 10.4219 22.8796C10.0988 23.1633 9.68378 23.3197 9.25422 23.3196C9.17559 23.325 9.09668 23.325 9.01806 23.3196C8.63987 23.269 8.2879 23.0979 8.01415 22.8315C7.74041 22.5652 7.5594 22.2176 7.49783 21.8402C7.33429 22.006 7.13945 22.1375 6.92469 22.227C6.70994 22.3165 6.47955 22.3623 6.24696 22.3617C5.78871 22.3627 5.34802 22.185 5.01823 21.8661C4.85048 21.7044 4.71617 21.5112 4.62296 21.2975C4.52976 21.0838 4.4795 20.8537 4.47504 20.6205C4.47059 20.3873 4.51202 20.1555 4.59699 19.9383C4.68197 19.7212 4.80881 19.523 4.97026 19.355L7.18418 17.0546L4.88909 14.8357C4.54957 14.509 4.35339 14.0606 4.3437 13.589C4.33401 13.1174 4.51161 12.6612 4.83743 12.3208C4.99874 12.1527 5.19152 12.0181 5.40476 11.9247C5.618 11.8313 5.84752 11.7809 6.08019 11.7764C6.31287 11.772 6.54415 11.8135 6.76081 11.8986C6.97746 11.9838 7.17524 12.111 7.34284 12.2728L9.63795 14.4918L11.8519 12.1914C12.1778 11.8511 12.6252 11.6545 13.0957 11.6448C13.5663 11.6351 14.0214 11.8131 14.361 12.1396C14.6994 12.4661 14.8948 12.9138 14.9045 13.3845C14.9142 13.8552 14.7373 14.3105 14.4126 14.6508L12.1987 16.9511L14.4828 19.1294Z" fill="#AB6F4B"/>
<path d="M10.8999 29.3218C10.9361 29.552 10.9267 29.7872 10.8721 30.0138C10.8174 30.2403 10.7188 30.4539 10.5816 30.6421C10.4445 30.8304 10.2717 30.9897 10.073 31.1109C9.87437 31.2321 9.65381 31.3128 9.42397 31.3484C9.33369 31.3631 9.24238 31.3705 9.15092 31.3706C8.72813 31.3702 8.31942 31.2183 7.99865 30.9423C7.67788 30.6662 7.46623 30.2842 7.40193 29.8654C7.22704 28.6977 7.14315 27.518 7.15102 26.3372V25.9341C7.15685 25.4665 7.34653 25.0202 7.67885 24.6919C8.01117 24.3637 8.45928 24.1801 8.92584 24.1812H8.94798C9.18104 24.1836 9.41131 24.2321 9.62556 24.3241C9.8398 24.416 10.0338 24.5496 10.1963 24.717C10.3589 24.8844 10.4868 25.0823 10.5727 25.2995C10.6586 25.5166 10.7009 25.7487 10.697 25.9822V26.352C10.6889 27.3457 10.7567 28.3385 10.8999 29.3218Z" fill="#AB6F4B"/>
</g>
<defs>
<clipPath id="clip0_16_813">
<rect width="60.75" height="51.75" fill="white" transform="translate(0 0.0203857)"/>
</clipPath>
</defs>
</svg>
