<svg width="41" height="40" viewBox="0 0 41 70" fill="none" xmlns="http://www.w3.org/2000/svg">
<g clip-path="url(#clip0_16_845)">
<path d="M38.6299 21.9033C39.0599 21.9033 39.4723 22.0732 39.7767 22.3759C40.081 22.6785 40.2525 23.0891 40.2534 23.5176C40.2525 23.9464 40.0811 24.3573 39.7769 24.6605C39.4726 24.9637 39.0602 25.1344 38.6299 25.1353H33.8641V45.7721C33.8574 47.2566 33.3478 48.6954 32.4179 49.8553C31.4879 51.0151 30.1921 51.828 28.7405 52.1622V60.234C30.2486 60.8213 31.544 61.8479 32.4579 63.1797C33.3719 64.5115 33.8619 66.0869 33.8641 67.7003V67.7642C33.8632 68.1927 33.6917 68.6033 33.3874 68.906C33.083 69.2086 32.6706 69.3786 32.2406 69.3786H8.50264C8.07265 69.3786 7.66022 69.2086 7.35586 68.906C7.05149 68.6033 6.88005 68.1927 6.87916 67.7642V67.7003C6.88086 66.0868 7.37068 64.5113 8.28468 63.1793C9.19868 61.8474 10.4944 60.8209 12.0027 60.234V52.1622C10.5511 51.828 9.25531 51.0151 8.32535 49.8553C7.39539 48.6954 6.88579 47.2566 6.87916 45.7721V25.1353H2.12346C1.69288 25.1353 1.27995 24.9649 0.975483 24.6615C0.671021 24.3581 0.499977 23.9466 0.499977 23.5176C0.499977 23.3053 0.541994 23.0951 0.623623 22.899C0.705252 22.703 0.824891 22.5248 0.975689 22.3749C1.12649 22.2249 1.3055 22.1061 1.50245 22.0251C1.6994 21.9442 1.91042 21.9028 2.12346 21.9033H2.73102V16.2329C2.73548 12.0333 4.41191 8.00704 7.39236 5.03781C10.3728 2.06858 14.4138 0.398947 18.6283 0.395386H22.1284C26.3427 0.399835 30.3831 2.06976 33.3634 5.03879C36.3436 8.00783 38.0203 12.0336 38.0257 16.2329V21.9033H38.6299ZM34.7787 21.9033V16.2329C34.7743 12.8905 33.4396 9.68632 31.0674 7.32322C28.6953 4.96012 25.4793 3.63104 22.125 3.62748H18.6283C15.2743 3.63105 12.0587 4.96023 9.68712 7.32342C7.31549 9.68662 5.98155 12.8908 5.97798 16.2329V21.9033H7.04792C7.40945 20.0821 8.3935 18.4421 9.83241 17.2628C11.2713 16.0835 13.0761 15.4378 14.9392 15.4358H25.8209C27.6838 15.4385 29.4883 16.0844 30.927 17.2636C32.3658 18.4428 33.3501 20.0823 33.7122 21.9033H34.7787ZM30.6205 45.7822V45.3685H26.4284V49.1252H27.2621C28.1526 49.1208 29.0053 48.7659 29.6343 48.1378C30.2634 47.5097 30.6178 46.6594 30.6205 45.7721V45.7822ZM30.6205 42.1365V38.4571H26.4284V42.1365H30.6205ZM30.6205 35.225V31.5456H26.4284V35.225H30.6205ZM30.6205 28.3102V25.1454H26.4284V28.3102H30.6205ZM10.3928 21.92H30.3606C30.0349 20.977 29.4223 20.1587 28.6081 19.5788C27.7938 18.9989 26.8184 18.6863 25.8175 18.6846H14.9358C13.937 18.6851 12.9631 18.9952 12.1491 19.5719C11.3351 20.1486 10.7213 20.9634 10.3928 21.9033V21.92ZM10.3928 66.1768H30.3606C30.0344 65.2344 29.4215 64.4167 28.6073 63.8374C27.7931 63.2582 26.818 62.9462 25.8175 62.9447H14.9358C13.9374 62.945 12.9638 63.2546 12.1498 63.8306C11.3359 64.4067 10.7218 65.2207 10.3928 66.16V66.1768ZM25.4969 59.7126V52.3337H15.2531V59.6824L25.4969 59.7126ZM23.1849 49.1319V45.3752H17.5651V49.1319H23.1849ZM23.1849 42.1431V38.4638H17.5651V42.1431H23.1849ZM23.1849 35.2317V31.5523H17.5651V35.2317H23.1849ZM23.1849 28.3169V25.1521H17.5651V28.3169H23.1849ZM14.3215 49.1319V45.3752H10.1329V45.7889C10.1382 46.6739 10.4934 47.5211 11.1214 48.1469C11.7494 48.7727 12.5997 49.1266 13.4878 49.1319H14.3215ZM14.3215 42.1431V38.4638H10.1329V42.1431H14.3215ZM14.3215 35.2317V31.5523H10.1329V35.2317H14.3215ZM14.3215 28.3169V25.1521H10.1329V28.3169H14.3215Z" fill="#AB6F4B"/>
</g>
<defs>
<clipPath id="clip0_16_845">
<rect width="39.75" height="69" fill="white" transform="translate(0.5 0.395386)"/>
</clipPath>
</defs>
</svg>
