<svg width="195" height="74" viewBox="0 0 195 74" fill="none" xmlns="http://www.w3.org/2000/svg">
<path d="M29.8231 14.0813C29.9768 15.9207 31.3462 16.8291 33.868 16.4359C34.6069 16.1536 35.3296 15.8307 36.0328 15.4687C36.5302 15.1988 36.9413 14.7938 37.2188 14.3005C37.4962 13.8072 37.6287 13.2456 37.601 12.6803C37.6219 12.1868 37.4706 11.7015 37.1729 11.3074C36.8753 10.9132 36.4498 10.6349 35.9695 10.52L32.8285 10.3889C30.7089 10.7957 29.665 12.1786 29.8231 14.0813Z" fill="#F8EFDA"/>
<path d="M193.502 20.0969C192.092 18.1761 189.688 16.2599 187.582 15.9842C185.353 15.7024 183.093 16.1613 181.151 17.2903C180.185 17.8389 179.34 18.5786 178.67 19.4642C178.078 20.2686 177.702 21.299 176.6 21.5069C176.435 21.2088 176.298 20.8955 176.193 20.5714C176.089 20.1195 176.103 19.6675 176.008 19.2156C175.811 18.1416 175.877 17.0358 176.202 15.9933C176.414 15.234 176.609 14.4702 176.762 13.6974C176.889 13.0511 176.948 12.3958 177.043 11.745C177.083 11.4467 177.138 11.153 177.174 10.8411C177.251 10.1587 177.354 9.48532 177.377 8.78482C177.377 8.20634 177.273 7.64141 177.269 7.06293C177.268 6.90612 177.232 6.75148 177.163 6.6106C177.094 6.46972 176.994 6.34626 176.871 6.24944C176.767 6.15454 176.668 6.05511 176.559 5.96472C176.214 5.70129 175.785 5.57418 175.352 5.6077C174.638 5.6077 174.046 6.00539 173.45 6.3805C173.31 6.46636 173.179 6.56579 173.07 6.6381C172.677 6.56128 172.519 6.26752 172.293 6.05511C171.954 5.73424 170.788 5.60317 170.255 5.71616C169.174 5.91501 168.899 5.81559 167.837 6.22685C167.385 6.39859 166.933 6.58389 166.481 6.76919C166.029 6.95448 165.654 7.30247 165.229 7.53296C164.402 7.9849 163.805 8.71253 163.127 9.34072C162.616 9.88942 162.134 10.4657 161.686 11.0671C161.524 11.251 161.373 11.4442 161.234 11.6456C160.71 12.4275 160.19 13.2184 159.697 14.0228C159.336 14.6149 159.006 15.2205 158.671 15.8306C158.505 16.1236 158.354 16.4253 158.219 16.7344C158.002 17.2497 157.808 17.7694 157.614 18.2846C157.496 18.5919 157.324 19.1026 157.23 19.4144C157.094 19.8935 156.963 20.3726 156.841 20.8516C156.841 20.8878 156.841 20.9194 156.841 20.951C155.887 22.8944 154.622 24.1146 153.488 24.0604C153.225 24.0604 153.126 23.8163 153.103 23.5678C153.049 23.03 152.968 22.4922 152.954 21.9498C152.954 21.2358 152.954 20.5172 153.008 19.7986C153.063 19.08 153.162 18.2394 153.212 17.4575C153.262 16.6757 153.266 15.8125 153.298 14.99C153.298 14.8634 153.298 14.7414 153.32 14.6194C153.424 13.589 153.524 12.5585 153.628 11.5281C153.673 11.0497 153.62 10.567 153.472 10.1099C153.323 9.65275 153.083 9.23099 152.764 8.87069C152.423 8.46006 152.022 8.10219 151.576 7.80864C151.187 7.51617 150.705 7.37629 150.22 7.41546C149.604 7.46503 148.996 7.59257 148.412 7.79507C147.804 8.056 147.25 8.42678 146.776 8.88878C145.857 9.708 145.042 10.6369 144.349 11.6547C144.015 12.1473 143.699 12.6489 143.337 13.1235C143.296 13.1732 143.283 13.2364 143.247 13.2907C142.795 13.9776 141.76 16.974 141.484 16.2644C141.339 15.8077 141.277 15.3284 141.303 14.8498C141.305 13.5798 141.025 12.3251 140.485 11.1756C140.183 10.6437 139.749 10.1986 139.224 9.88303C138.888 9.68772 138.521 9.55025 138.14 9.4763C137.466 9.36979 136.778 9.5321 136.223 9.92824C135.645 10.2536 134.836 10.7146 134.172 11.153C134 11.2635 133.867 11.4247 133.791 11.6141C133.715 11.8036 133.699 12.012 133.747 12.2105C133.97 13.0592 134.148 13.9191 134.28 14.7866C134.181 14.9402 134.09 15.0758 134.059 15.1346C133.661 15.817 133.281 16.4904 132.879 17.1909C132.558 17.7287 132.219 18.2439 131.885 18.7727C131.844 18.8405 131.813 18.9083 131.772 18.9761C131.41 19.6268 131.062 20.2867 130.678 20.9239C130.362 21.4572 130.005 21.9679 129.666 22.4831C129.521 22.7046 129.372 22.9351 129.214 23.1384C128.821 23.6808 128.459 24.2502 128.016 24.7564C127.506 25.3394 126.927 25.8681 126.362 26.4059C126.127 26.6274 125.811 26.763 125.594 26.998C125.255 27.3731 124.776 27.4771 124.401 27.7844C124.328 27.8431 124.202 27.8296 124.102 27.8476C123.379 27.9606 122.661 28.0691 121.942 28.1911C121.789 28.2263 121.629 28.2077 121.488 28.1386C121.348 28.0694 121.235 27.9539 121.169 27.8115C121.179 27.7827 121.193 27.7553 121.21 27.7301L122.566 26.5054C123.19 25.9405 123.84 25.4027 124.437 24.8106C124.906 24.4277 125.337 24.0009 125.725 23.5361C126.114 22.9712 126.561 22.4515 126.981 21.9092C127.046 21.8211 127.102 21.7273 127.149 21.6289C127.429 21.0911 127.722 20.5579 127.976 20.011C128.274 19.3647 128.554 18.7139 128.798 18.0496C129.01 17.4847 129.155 16.9062 129.34 16.3367C129.545 15.7141 129.662 15.0662 129.688 14.4115C129.725 13.9127 129.659 13.4117 129.495 12.9392C129.331 12.4667 129.072 12.0327 128.735 11.6637C128.019 10.9808 127.18 10.4396 126.263 10.0683C126.079 9.9802 125.884 9.91638 125.684 9.8785C125.051 9.77908 124.414 9.67515 123.772 9.61188C123.434 9.59163 123.094 9.59163 122.756 9.61188C122.143 9.6381 121.535 9.74135 120.948 9.91919C120.525 10.0323 120.114 10.1836 119.719 10.3711C119.267 10.6016 118.815 10.8999 118.363 11.1665C117.47 11.7424 116.722 12.5155 116.175 13.4262C115.787 14.0092 115.484 14.642 115.104 15.234C114.342 16.3633 113.801 17.627 113.509 18.958C113.306 19.9387 113.17 20.9285 112.962 21.9092C112.835 22.6999 112.769 23.4991 112.763 24.2999C112.736 24.7519 112.732 25.1631 112.763 25.5699C111.859 27.0296 110.82 27.9154 109.853 27.8657C109.591 27.8657 109.491 27.6171 109.469 27.3731C109.414 26.8353 109.333 26.2975 109.324 25.7551C109.324 25.0411 109.324 24.3225 109.374 23.6039C109.423 22.8854 109.527 22.0447 109.577 21.2629C109.627 20.481 109.631 19.6178 109.663 18.7908L109.69 18.4247C109.79 17.3943 109.89 16.3638 109.993 15.3334C110.038 14.855 109.985 14.3723 109.837 13.9152C109.688 13.4581 109.448 13.0363 109.13 12.676C108.788 12.2654 108.387 11.9075 107.941 11.614C107.552 11.3215 107.07 11.1816 106.585 11.2208C105.969 11.2703 105.362 11.3979 104.777 11.6004C104.17 11.8614 103.615 12.2321 103.141 12.6941C102.222 13.5133 101.407 14.4422 100.715 15.46C100.38 15.9481 100.064 16.4542 99.7022 16.9288C99.6691 16.9821 99.6404 17.038 99.6163 17.096C99.1644 17.7829 98.1249 20.7793 97.8492 20.0698C97.7061 19.6126 97.6449 19.1337 97.6684 18.6552C97.6721 17.3849 97.3927 16.1297 96.8505 14.9809C96.612 14.4254 96.2355 13.94 95.7567 13.5709C95.3717 13.2317 94.9374 12.9528 94.4687 12.7438C93.9367 12.5553 93.3788 12.4501 92.8146 12.432C92.1984 12.4814 91.591 12.609 91.0069 12.8116C90.3994 13.0734 89.8449 13.444 89.3709 13.9053C88.4518 14.7245 87.6367 15.6534 86.9439 16.6712C86.6095 17.1593 86.2931 17.6654 85.9316 18.14C85.8954 18.1897 85.8773 18.253 85.8457 18.3072C85.3938 18.9896 84.3543 21.9905 84.0786 21.281C83.9346 20.824 83.8749 20.3447 83.9024 19.8664C83.9034 18.5959 83.6225 17.3409 83.0798 16.1921C82.7788 15.6579 82.3444 15.211 81.8189 14.8951C81.4825 14.7012 81.1158 14.5652 80.7343 14.4928C80.0609 14.3843 79.372 14.5468 78.8181 14.9448C78.2396 15.2656 77.4306 15.7311 76.7663 16.1695C76.5939 16.2792 76.4605 16.4405 76.3851 16.6303C76.3096 16.8202 76.2959 17.029 76.346 17.227C76.9138 19.5305 77.235 21.8878 77.3041 24.2592C76.6099 24.5682 75.8585 24.7279 75.0986 24.7279C74.3387 24.7279 73.5873 24.5682 72.8931 24.2592C72.7442 22.8043 72.2948 21.3962 71.5735 20.124C71.4459 19.9209 71.3055 19.7262 71.1532 19.541C70.4165 18.8224 69.6799 18.0993 68.8935 17.4259C68.3963 17.0181 67.8515 16.6722 67.271 16.3955C66.3894 15.9612 65.4403 15.68 64.4644 15.5639C63.8929 15.4929 63.3129 15.5406 62.7607 15.704C62.2635 15.8667 61.789 16.1198 61.3009 16.3186C60.7157 16.604 60.169 16.9624 59.6739 17.3852C59.2799 17.6927 58.9111 18.0312 58.5712 18.3976C58.2837 18.667 58.0164 18.957 57.7712 19.2653C57.4368 19.7172 57.0888 20.2099 56.7544 20.6844C55.3719 22.7924 54.4353 25.1609 54.0021 27.6443C53.9297 27.8205 53.8574 27.9878 53.7942 28.1233C52.8903 30.0938 52.0316 31.8925 51.0147 32.9094C49.4374 34.4821 47.6162 33.185 46.405 31.0157C51.8011 25.832 54.9918 16.6531 55.1907 13.0602C55.3895 9.46726 53.645 0.405874 48.0952 0.893969C45.3836 1.1335 43.7521 2.06447 42.4821 4.401C39.1944 10.4632 37.7123 17.3404 38.2113 24.2186C38.3333 26.2387 38.6225 28.2363 38.8982 30.2203C38.7988 30.4734 38.6994 30.7401 38.5909 31.0248C38.139 32.236 36.9232 35.4131 35.9064 36.3486C35.809 36.4541 35.691 36.5382 35.5595 36.5958C35.4281 36.6533 35.2861 36.683 35.1426 36.683C34.9991 36.683 34.8572 36.6533 34.7257 36.5958C34.5943 36.5382 34.4762 36.4541 34.3788 36.3486C33.6828 35.4899 33.6015 33.994 33.7325 33.0088C33.9676 31.2734 35.6985 23.3328 35.9606 21.6018C36.0646 20.9194 36.0962 20.246 36.1323 19.5771C36.1481 19.3577 36.0867 19.1396 35.9588 18.9606C35.831 18.7815 35.6446 18.6527 35.4318 18.5964C31.9203 17.6926 30.3295 18.8631 29.1454 22.3746C29.1454 22.4244 29.1092 22.4831 29.0911 22.5373C29.1188 22.3882 29.1339 22.237 29.1363 22.0854C29.1634 20.7296 27.7805 19.2065 26.2032 18.9489C25.5541 18.8663 24.8965 18.8784 24.2509 18.9851C22.1087 19.2834 19.9665 19.6495 17.8198 19.9568C17.0334 20.0698 16.2425 20.1014 15.1985 20.1963C15.4877 17.2135 15.7408 14.6013 15.9894 12.0614C20.5359 10.2536 24.9785 10.1678 29.3081 9.69775C29.6689 9.65631 30.0138 9.52606 30.3119 9.31863C30.6101 9.1112 30.8521 8.83306 31.0164 8.50914L31.0571 8.42327C31.1645 8.13438 31.2151 7.82748 31.2062 7.51939C31.0797 4.92074 28.6799 2.5119 26.0586 2.4893C24.8415 2.43224 23.6226 2.5587 22.4431 2.86442C15.8809 4.88007 9.33687 6.99061 2.7973 9.08761C1.7488 9.42657 0.853946 9.99151 0.75 11.4558C2.14197 14.2171 5.20613 14.2081 7.9268 14.8363C7.71891 17.4169 7.52006 19.8619 7.33929 22.0673C3.94522 22.6594 4.2209 29.0814 6.80148 28.3945C6.99581 30.2022 6.88734 31.0474 6.76079 34.107C6.72012 35.047 6.57549 36.1588 6.61164 37.0898C6.66588 38.5722 6.61166 39.9461 6.96417 41.3426C7.27662 42.2811 7.82797 43.1222 8.56403 43.783C10.1051 45.2835 11.9491 44.7276 13.7613 43.783C15.4516 42.9289 16.0843 41.5956 15.8357 39.8105C15.699 38.8402 15.628 37.8618 15.6233 36.8819C15.6233 33.9217 15.203 30.9796 15.9261 27.816C16.943 27.5448 17.8378 27.2872 18.7462 27.0658C21.2364 26.4602 23.7447 25.945 26.2168 25.258C27.6178 24.8648 28.5172 24.1191 28.9284 23.1927C27.9748 26.8082 26.967 34.5996 27.1794 36.2989C27.3449 37.6957 27.9063 39.016 28.7974 40.1042C29.1318 40.5065 29.403 40.8228 29.4482 40.8771C31.961 43.8689 34.3472 43.765 37.5831 40.972C38.2971 40.3573 39.7614 38.188 40.6789 36.9045L40.8822 37.2977C41.6957 38.762 43.1013 39.7517 44.1272 40.5065C47.006 42.6215 51.191 42.0431 53.8439 39.2636C54.5805 38.4797 55.2531 37.6379 55.855 36.7463C56.221 37.3434 56.6481 37.9008 57.1295 38.4095C57.36 38.5902 57.5814 38.7665 57.8074 38.9608C58.4365 39.4984 59.1416 39.9401 59.8999 40.2714C60.225 40.4283 60.5754 40.5263 60.9348 40.5607C61.8305 40.6147 62.7294 40.5554 63.6103 40.3844C64.5493 40.2358 65.4623 39.9543 66.3219 39.5484C66.9404 39.2482 67.5041 38.8464 67.9896 38.3597C68.5625 37.8441 69.0916 37.2818 69.5714 36.6785C69.8605 36.3219 70.1205 35.9425 70.3487 35.5442C70.7329 34.794 71.1034 34.0392 71.4153 33.2528C71.8713 32.0007 72.2087 30.7085 72.4231 29.3933C74.5518 29.7503 75.7268 30.017 77.0058 29.8181L77.3267 29.7594C77.2905 30.1299 77.2453 30.5005 77.1775 30.8666C77.1097 31.2327 77.06 31.6846 77.0193 32.0959C76.9877 32.4303 76.9561 32.7648 76.9109 33.0947C76.8295 33.7183 76.6939 34.342 76.6262 34.9657C76.4923 35.7799 76.559 36.6145 76.8205 37.3971C76.9122 37.7041 77.0807 37.9827 77.31 38.2065C77.5393 38.4303 77.8219 38.5919 78.1311 38.6761C78.6565 38.7663 79.1917 38.7845 79.7219 38.7303C80.1825 38.764 80.6386 38.6201 80.9964 38.3281C81.0633 38.2842 81.1364 38.2507 81.2133 38.2287C81.675 38.0595 82.0968 37.7967 82.4522 37.4569C82.8077 37.117 83.089 36.7074 83.2787 36.2537C83.586 35.5035 83.9973 34.7985 84.2549 34.0211C84.5125 33.2438 86.6276 27.1878 86.7722 26.8986C87.075 26.2794 87.9247 24.3587 88.241 23.735C88.3269 23.5678 88.4082 23.378 88.693 23.3509C88.7785 23.47 88.8427 23.603 88.8828 23.744C88.9189 24.0333 88.7517 24.892 88.6477 25.8817C88.5709 26.5958 88.3811 30.4011 88.6116 31.5355C88.7698 32.3128 88.9279 33.0901 89.1494 33.8449C89.303 34.3601 89.6013 34.8256 89.7821 35.3363C89.9293 35.8347 90.1668 36.3019 90.4826 36.7147C90.8787 37.0931 91.3739 37.3516 91.9108 37.4604C92.4363 37.549 92.9715 37.5658 93.5016 37.5101C94.0375 37.4501 94.565 37.3304 95.0743 37.1531C95.5318 36.9533 95.9437 36.6623 96.2849 36.2978C96.626 35.9334 96.8892 35.5032 97.0583 35.0335C97.3702 34.2833 97.7769 33.5782 98.0345 32.8009C98.2921 32.0236 100.412 25.9676 100.552 25.6783C100.859 25.0592 101.704 23.1384 102.021 22.5147C102.106 22.343 102.188 22.1577 102.473 22.1261C102.557 22.2457 102.621 22.3786 102.662 22.5193C102.699 22.8085 102.531 23.6672 102.427 24.6569C102.355 25.3755 102.161 29.1763 102.391 30.3107C102.549 31.088 102.708 31.8654 102.929 32.6201C103.083 33.1398 103.381 33.6008 103.562 34.1115C103.808 34.7262 104.271 35.2293 104.863 35.5261C105.816 36.0283 106.883 36.2759 107.959 36.2447C108.295 36.2316 108.628 36.1738 108.949 36.0729C110.969 35.5532 113.97 32.5388 114.987 31.4948C115.37 31.9342 115.783 32.3479 116.221 32.7331C116.752 33.1445 117.314 33.5147 117.902 33.8404C118.024 33.9158 118.153 33.9808 118.286 34.0347C118.877 34.315 119.508 34.4996 120.157 34.5815C120.605 34.6676 121.058 34.7235 121.513 34.7488C122.318 34.7983 123.126 34.7328 123.913 34.5544C124.5 34.3691 125.128 34.3149 125.72 34.0754C126.516 33.7409 127.28 33.2935 128.057 32.8913C128.613 32.5863 129.143 32.234 129.639 31.8383C130.052 31.5707 130.442 31.2683 130.805 30.9344C131.88 29.7819 133.064 28.6973 133.846 27.3189C134.104 26.9212 134.339 26.5867 134.565 26.2794C134.524 26.5461 134.493 26.8127 134.47 27.0839C134.447 27.355 134.407 27.7527 134.361 28.0826C134.28 28.7063 134.145 29.33 134.077 29.9537C133.939 30.7674 134.004 31.6026 134.267 32.3851C134.361 32.6921 134.53 32.9705 134.76 33.1948C134.99 33.4191 135.272 33.582 135.582 33.6686C136.107 33.7573 136.642 33.774 137.173 33.7183C137.633 33.7532 138.088 33.611 138.447 33.3206C138.512 33.2759 138.584 33.2422 138.659 33.2212C139.122 33.052 139.545 32.7888 139.902 32.4481C140.258 32.1074 140.54 31.6967 140.729 31.2417C141.037 30.496 141.448 29.7865 141.701 29.0091C141.954 28.2318 144.078 22.1758 144.223 21.8865C144.526 21.2719 145.375 19.3466 145.692 18.723C145.777 18.5512 145.859 18.3659 146.143 18.3343C146.228 18.4539 146.292 18.5868 146.333 18.7275C146.369 19.0167 146.198 19.8754 146.098 20.8652C146.021 21.5838 145.832 25.3846 146.062 26.5189C146.22 27.2963 146.374 28.0781 146.6 28.8284C146.754 29.3481 147.052 29.8091 147.228 30.3198C147.476 30.9352 147.941 31.4384 148.534 31.7343C149.487 32.2376 150.553 32.4851 151.63 32.4529C151.965 32.4394 152.296 32.3816 152.615 32.2812C154.346 31.8292 156.796 29.5695 158.102 28.2634C158.374 28.7229 158.721 29.1338 159.128 29.4792C159.762 30.0879 160.492 30.5886 161.288 30.9615C161.801 31.1772 162.338 31.329 162.888 31.4134C163.393 31.4912 163.907 31.4759 164.406 31.3683C165.509 31.0898 166.542 30.5884 167.443 29.8949C168.576 29.0318 169.517 27.942 170.205 26.6952L170.706 26.4828C170.847 26.6274 171.059 26.7449 171.104 26.9347C171.195 27.3189 171.493 27.5222 171.692 27.807C171.959 28.2089 172.285 28.5684 172.659 28.8735C173.452 29.5126 174.426 29.8857 175.443 29.9401C176.198 29.9808 176.97 29.9401 177.734 29.8949C178.439 29.8063 179.106 29.5231 179.659 29.0769C179.975 28.8273 180.265 28.5456 180.523 28.2363C181.023 27.7299 181.45 27.1565 181.792 26.5325C182.086 25.9676 182.475 25.475 182.755 24.901C183.012 24.2337 183.36 23.6055 183.79 23.0345C185.318 21.3171 188.165 21.0595 189.575 22.9803C190.027 23.5859 190.696 26.2568 188.938 29.5063C186.678 33.646 177.748 43.0644 143.197 41.1301C97.0222 38.536 39.653 40.0455 28.5579 61.9826C28.5579 61.9826 27.7172 63.2842 29.7645 64.396C32.1734 65.6976 32.9507 64.2062 32.9507 64.2062C40.6698 48.9397 79.731 42.5131 142.921 46.0472C178.941 48.0629 189.923 38.0208 193.267 31.8518C195.852 27.0658 195.215 22.3973 193.502 20.0969ZM44.2628 19.1252C44.2578 17.2074 44.409 15.2924 44.7147 13.3991C45.0311 11.6863 45.1666 9.78362 47.0738 8.57694C50.6893 11.9529 46.2874 22.1035 44.6785 24.4807C44.0955 22.5464 44.2492 20.8064 44.2808 19.1252H44.2628ZM65.9016 28.4216C65.8137 29.2321 65.6626 30.0345 65.4497 30.8214C65.0212 32.1144 64.1272 33.2017 62.9414 33.872C61.9291 33.985 61.6308 33.7545 61.1879 32.9319C60.8058 32.197 60.5811 31.3904 60.5281 30.5638C60.4965 29.8054 60.5618 29.046 60.7224 28.3041C60.8463 27.6816 61.0404 27.0751 61.3009 26.4963C61.609 25.6755 62.0321 24.9025 62.5573 24.2005C62.7193 24.0391 62.8914 23.8882 63.0725 23.7485C63.2171 23.9564 63.3708 24.083 63.4024 24.2412C63.6871 25.6964 64.3605 26.8895 65.8157 27.477C66.1231 27.7753 65.9513 28.1143 65.9016 28.4216ZM119.384 22.9983C119.323 22.6234 119.208 22.2594 119.041 21.9182C119.041 21.4979 119.041 21.1228 119.041 20.9736C119.086 19.9206 119.556 19.2427 119.945 18.2258C120.197 17.6249 120.53 17.0609 120.934 16.5491C121.188 16.2804 121.475 16.045 121.788 15.8486C121.94 15.8522 122.091 15.8658 122.24 15.8893C122.719 15.9842 123.144 16.1334 123.203 16.635C123.246 17.4485 123.056 18.2575 122.656 18.967C122.204 19.785 121.752 20.3816 121.3 21.1589C120.743 21.8518 120.099 22.47 119.384 22.9983ZM169.73 14.3663C169.639 15.0148 169.499 15.6554 169.31 16.2825C169.144 16.7389 168.947 17.183 168.718 17.6112C168.417 18.2319 168.115 18.848 167.814 19.4596C167.769 19.5545 167.706 19.6449 167.651 19.7398C167.208 20.4186 166.801 21.1201 166.431 21.8414C166.07 22.529 165.65 23.1837 165.175 23.7983C164.845 24.2502 164.447 24.7021 164.117 25.0908L163.516 25.1902C163.239 25.0136 163.003 24.7785 162.826 24.5014C162.649 24.2243 162.534 23.9118 162.49 23.5858C162.404 23.0814 162.364 22.57 162.373 22.0583C162.499 21.8052 162.626 21.5476 162.748 21.29C163.099 20.572 163.195 19.7557 163.019 18.9761C163.15 18.6507 163.272 18.3207 163.403 17.9954C163.471 17.8486 163.547 17.7053 163.629 17.566L164.221 16.5311C164.265 16.4506 164.315 16.3735 164.37 16.3006C165.088 15.3269 165.891 14.4194 166.77 13.5889C167.123 13.261 167.533 13.002 167.981 12.8252C168.248 12.6849 168.555 12.6437 168.849 12.7091C169.143 12.7745 169.404 12.9422 169.586 13.1822C169.78 13.5388 169.827 13.9573 169.717 14.3482L169.73 14.3663Z" fill="#F8EFDA"/>
<path d="M47.6117 72.603C46.3146 73.9227 43.96 73.7238 42.3692 72.1511C40.7784 70.5783 40.5343 68.2373 41.8314 66.9176C43.0426 65.6838 44.7012 65.9053 45.813 66.669C45.9496 66.7648 46.0429 66.9106 46.0726 67.0749C46.1022 67.2391 46.0657 67.4083 45.9712 67.5458C45.9245 67.6143 45.8647 67.6729 45.7953 67.7182C45.7259 67.7635 45.6482 67.7946 45.5667 67.8097C45.4852 67.8248 45.4015 67.8237 45.3204 67.8063C45.2394 67.7889 45.1625 67.7557 45.0944 67.7085C44.7579 67.4303 44.3306 67.2861 43.8944 67.3037C43.4582 67.3212 43.0438 67.4991 42.7308 67.8034C41.9218 68.6259 42.1523 70.1761 43.2505 71.2517C44.3487 72.3273 45.9034 72.5397 46.7123 71.7036C47.3948 71.0122 47.3676 70.027 46.6445 69.0779C46.5914 69.0114 46.5521 68.935 46.5292 68.853C46.5063 68.7711 46.5001 68.6853 46.5111 68.6009C46.5221 68.5166 46.5499 68.4353 46.5931 68.3619C46.6362 68.2885 46.6937 68.2246 46.762 68.174C46.8288 68.1211 46.9055 68.0821 46.9876 68.0596C47.0697 68.037 47.1556 68.0312 47.24 68.0426C47.3244 68.054 47.4056 68.0823 47.4788 68.1259C47.552 68.1694 47.6156 68.2273 47.6659 68.296C48.9901 70.0902 48.4659 71.7308 47.6117 72.603Z" fill="#EF5A38"/>
<path d="M53.2611 68.3187C51.5979 69.2542 49.3744 68.4633 48.2897 66.5607C47.2051 64.658 47.7022 62.3441 49.3699 61.4085C51.0375 60.473 53.2565 61.2639 54.3412 63.1666C55.4259 65.0693 54.9287 67.3832 53.2611 68.3187ZM49.998 62.5113C48.9405 63.1033 48.6739 64.6444 49.406 65.9415C50.1381 67.2386 51.5889 67.8125 52.6464 67.2205C53.704 66.6284 53.9706 65.0828 53.243 63.7858C52.5154 62.4887 51.0556 61.9147 49.998 62.5113Z" fill="#EF5A38"/>
<path d="M63.3436 64.2376C63.1853 64.2913 63.0123 64.2806 62.8618 64.2079C62.7114 64.1352 62.5955 64.0063 62.5391 63.849L61.2647 60.1566L60.9076 64.1382C60.8965 64.2594 60.8505 64.3747 60.775 64.4701C60.6996 64.5656 60.5981 64.6371 60.4828 64.676C60.3682 64.716 60.2445 64.7219 60.1266 64.693C60.0087 64.6641 59.9017 64.6017 59.8185 64.5133L57.0752 61.6073L58.3542 65.2952C58.4078 65.4535 58.3971 65.6264 58.3244 65.7769C58.2517 65.9274 58.1228 66.0433 57.9655 66.0996C57.8073 66.1545 57.6338 66.1444 57.483 66.0715C57.3322 65.9987 57.2164 65.869 57.1611 65.711L54.924 59.2437C54.8761 59.1077 54.8764 58.9593 54.925 58.8235C54.9735 58.6878 55.0673 58.5728 55.1906 58.498C55.3144 58.4236 55.4599 58.3938 55.6029 58.4136C55.746 58.4333 55.878 58.5014 55.977 58.6065L59.7733 62.6287L60.2704 57.1196C60.2829 56.9758 60.3445 56.8406 60.4449 56.7369C60.5454 56.6332 60.6784 56.5673 60.8218 56.5501C60.9652 56.532 61.1106 56.5639 61.2333 56.6404C61.356 56.717 61.4484 56.8336 61.4952 56.9704L63.7549 63.4332C63.7815 63.513 63.792 63.5973 63.7857 63.6812C63.7794 63.7651 63.7564 63.8469 63.7181 63.9218C63.6798 63.9967 63.627 64.0632 63.5627 64.1174C63.4984 64.1717 63.4239 64.2125 63.3436 64.2376Z" fill="#EF5A38"/>
<path d="M68.9929 55.2259L69.8967 59.0177C69.8967 59.0177 69.8967 59.0628 69.8967 59.0854C70.317 61.2773 69.6572 62.7416 68.0528 63.1122C67.649 63.2248 67.2229 63.2302 66.8163 63.128C66.4098 63.0258 66.0369 62.8194 65.7344 62.5292C65.1443 61.8918 64.7505 61.0978 64.6 60.2424L63.6961 56.4552C63.6575 56.2947 63.6832 56.1254 63.7676 55.9836C63.852 55.8417 63.9886 55.7385 64.1481 55.6959C64.3086 55.6573 64.4778 55.683 64.6197 55.7674C64.7615 55.8518 64.8647 55.9883 64.9073 56.1478L65.8112 59.9396C66.3355 62.1993 67.3614 61.9553 67.75 61.8649C68.6855 61.648 68.9658 60.6943 68.5816 59.0312L67.7591 55.4925C67.7205 55.332 67.7461 55.1628 67.8305 55.0209C67.915 54.8791 68.0515 54.7758 68.211 54.7333C68.2948 54.712 68.382 54.7079 68.4674 54.7214C68.5528 54.7349 68.6346 54.7656 68.7077 54.8117C68.7808 54.8578 68.8438 54.9183 68.8929 54.9895C68.9419 55.0607 68.9759 55.1411 68.9929 55.2259Z" fill="#EF5A38"/>
<path d="M77.2905 61.3318C77.1876 61.3484 77.0822 61.3394 76.9836 61.3055C76.8851 61.2716 76.7964 61.2139 76.7256 61.1375L72.5677 56.6452L73.327 61.3363C73.3406 61.4179 73.3378 61.5014 73.319 61.582C73.3002 61.6626 73.2657 61.7387 73.2174 61.8059C73.1691 61.873 73.108 61.93 73.0376 61.9735C72.9672 62.0171 72.889 62.0462 72.8073 62.0594C72.7256 62.073 72.6421 62.0703 72.5615 62.0515C72.481 62.0327 72.4049 61.9981 72.3377 61.9498C72.2705 61.9015 72.2135 61.8404 72.17 61.7701C72.1265 61.6997 72.0973 61.6214 72.0842 61.5397L70.9859 54.7832C70.9641 54.6496 70.9857 54.5126 71.0476 54.3922C71.1094 54.2718 71.2081 54.1744 71.3294 54.1143C71.4515 54.0543 71.5897 54.0355 71.7234 54.0607C71.857 54.086 71.9789 54.154 72.0706 54.2544L76.2284 58.7467L75.4692 54.0555C75.4556 53.9739 75.4583 53.8904 75.4771 53.8099C75.4959 53.7293 75.5305 53.6532 75.5788 53.586C75.6271 53.5188 75.6882 53.4618 75.7585 53.4183C75.8289 53.3748 75.9072 53.3456 75.9889 53.3325C76.0705 53.3189 76.154 53.3216 76.2346 53.3404C76.3152 53.3592 76.3913 53.3938 76.4585 53.4421C76.5257 53.4904 76.5826 53.5515 76.6262 53.6218C76.6697 53.6922 76.6989 53.7705 76.712 53.8522L77.8102 60.6313C77.8324 60.7654 77.8105 60.9031 77.7477 61.0237C77.685 61.1443 77.5848 61.2413 77.4622 61.3002C77.4069 61.3193 77.349 61.3299 77.2905 61.3318Z" fill="#EF5A38"/>
<path d="M80.2417 60.9609C80.1597 60.9716 80.0763 60.966 79.9965 60.9442C79.9168 60.9224 79.8421 60.885 79.7769 60.8341C79.7117 60.7832 79.6573 60.7199 79.6169 60.6478C79.5764 60.5757 79.5506 60.4962 79.5412 60.4141L78.7051 53.635C78.6949 53.5531 78.7011 53.47 78.7231 53.3904C78.7451 53.3109 78.7826 53.2365 78.8333 53.1714C78.8841 53.1064 78.9472 53.0519 79.019 53.0113C79.0909 52.9706 79.17 52.9445 79.2519 52.9345C79.4178 52.914 79.5851 52.96 79.7172 53.0624C79.8493 53.1649 79.9355 53.3155 79.9569 53.4813L80.793 60.2604C80.8031 60.3427 80.7968 60.4261 80.7745 60.5059C80.7522 60.5857 80.7144 60.6603 80.6631 60.7254C80.6119 60.7905 80.5482 60.8449 80.4759 60.8853C80.4036 60.9257 80.324 60.9514 80.2417 60.9609Z" fill="#EF5A38"/>
<path d="M85.5791 60.387C83.7352 60.5588 82.0675 58.8866 81.8642 56.6585C81.6608 54.4305 82.994 52.4871 84.8424 52.3154C86.5598 52.1572 87.6852 53.4001 88.0377 54.7017C88.0588 54.7821 88.0638 54.8659 88.0525 54.9482C88.0412 55.0306 88.0138 55.11 87.9718 55.1817C87.9299 55.2535 87.8742 55.3163 87.8079 55.3665C87.7417 55.4168 87.6662 55.4534 87.5857 55.4745C87.5053 55.4962 87.4213 55.5017 87.3388 55.4907C87.2562 55.4797 87.1766 55.4524 87.1047 55.4103C87.0328 55.3682 86.9699 55.3123 86.9198 55.2457C86.8697 55.1792 86.8334 55.1033 86.8129 55.0225C86.7351 54.5926 86.5019 54.2063 86.1577 53.9371C85.8135 53.6679 85.3824 53.5347 84.9464 53.5628C83.7939 53.6712 82.9714 55.0045 83.1115 56.5365C83.2516 58.0686 84.3046 59.2482 85.4571 59.1216C86.4242 59.0357 87.0389 58.2675 87.1021 57.0743C87.1115 56.9073 87.1866 56.7507 87.3112 56.6389C87.4357 56.5271 87.5994 56.4692 87.7665 56.4778C87.9336 56.4871 88.0902 56.5622 88.202 56.6868C88.3138 56.8113 88.3717 56.975 88.363 57.1421C88.2546 59.3611 86.7948 60.2786 85.5791 60.387Z" fill="#EF5A38"/>
<path d="M95.8337 59.655C95.6831 59.7267 95.5104 59.7361 95.353 59.6811C95.1955 59.6261 95.0662 59.5112 94.9931 59.3613L94.0892 57.4767L91.1651 57.6394L90.4601 59.6053C90.419 59.7231 90.3437 59.826 90.2439 59.9008C90.1441 59.9757 90.0243 60.0191 89.8997 60.0256C89.8168 60.0291 89.734 60.0169 89.6557 59.9895C89.5774 59.9621 89.5054 59.9196 89.4437 59.8643C89.382 59.809 89.3319 59.742 89.2962 59.6672C89.2605 59.5924 89.2399 59.5113 89.2357 59.4286C89.2315 59.3458 89.2436 59.2631 89.2715 59.185L90.1121 56.8169L91.7436 52.2026C91.7848 52.0848 91.86 51.9819 91.9598 51.9071C92.0596 51.8322 92.1795 51.7888 92.304 51.7823C92.4282 51.7761 92.5515 51.8067 92.6584 51.8702C92.7653 51.9337 92.8511 52.0273 92.9051 52.1393L95.0337 56.5457L96.1274 58.8054C96.165 58.8803 96.1871 58.9619 96.1926 59.0455C96.1982 59.1291 96.1869 59.2129 96.1595 59.2921C96.1321 59.3713 96.0892 59.4442 96.0333 59.5065C95.9773 59.5688 95.9095 59.6193 95.8337 59.655ZM93.4881 56.2474L92.426 54.051L91.6126 56.3514L93.4881 56.2474Z" fill="#EF5A38"/>
<path d="M103.363 58.7013C103.367 58.8683 103.304 59.03 103.189 59.1511C103.074 59.2722 102.915 59.3428 102.748 59.3475L97.4471 59.4831C97.3282 59.4855 97.2111 59.4547 97.1089 59.394C97.0066 59.3333 96.9234 59.2452 96.8687 59.1396C96.8157 59.0336 96.7932 58.915 96.8036 58.7969C96.8139 58.6789 96.8568 58.566 96.9274 58.4708L101.271 52.7176L97.2754 52.8215C97.1083 52.8252 96.9466 52.7626 96.8255 52.6475C96.7044 52.5323 96.6339 52.3739 96.6291 52.2069C96.6255 52.0399 96.688 51.8781 96.8032 51.7571C96.9183 51.636 97.0767 51.5654 97.2437 51.5606L102.545 51.4251C102.663 51.4217 102.781 51.4517 102.883 51.5116C102.985 51.5715 103.068 51.659 103.123 51.764C103.177 51.8699 103.2 51.9886 103.189 52.1068C103.179 52.225 103.136 52.3379 103.065 52.4329L98.7216 58.1861L102.717 58.0866C102.884 58.083 103.045 58.1456 103.167 58.2607C103.288 58.3759 103.358 58.5343 103.363 58.7013Z" fill="#EF5A38"/>
<path d="M105.266 59.4925C105.098 59.4937 104.938 59.4288 104.818 59.3119C104.699 59.1951 104.631 59.0358 104.628 58.8688L104.574 52.0219C104.574 51.8548 104.64 51.6946 104.758 51.5761C104.875 51.4576 105.035 51.3904 105.202 51.3892C105.369 51.388 105.53 51.4529 105.649 51.5697C105.769 51.6865 105.837 51.8458 105.839 52.0129L105.894 58.8552C105.894 59.0227 105.828 59.1834 105.71 59.3026C105.593 59.4219 105.433 59.4901 105.266 59.4925Z" fill="#EF5A38"/>
<path d="M110.761 59.4062C108.854 59.4062 107.313 57.5984 107.335 55.411C107.358 53.2236 108.922 51.4611 110.833 51.4791C112.745 51.4972 114.282 53.2869 114.259 55.4743C114.236 57.6617 112.673 59.4242 110.761 59.4062ZM110.82 52.74C109.609 52.74 108.61 53.9332 108.596 55.4246C108.583 56.916 109.559 58.1362 110.775 58.1362C111.99 58.1362 112.985 56.9431 112.998 55.4517C113.012 53.9603 112.036 52.7536 110.82 52.74Z" fill="#EF5A38"/>
<path d="M120.772 59.7137C120.668 59.7089 120.566 59.6794 120.476 59.6275C120.385 59.5756 120.309 59.5029 120.252 59.4155L117.021 54.2182L116.881 58.9681C116.878 59.051 116.86 59.1326 116.826 59.2082C116.791 59.2838 116.743 59.352 116.682 59.4087C116.622 59.4654 116.551 59.5096 116.473 59.5387C116.395 59.5678 116.313 59.5812 116.23 59.5782C116.147 59.5758 116.065 59.5571 115.99 59.5231C115.914 59.4891 115.846 59.4404 115.789 59.3799C115.732 59.3194 115.688 59.2482 115.659 59.1706C115.63 59.0929 115.617 59.0103 115.62 58.9274L115.823 52.0895C115.825 51.9554 115.87 51.8253 115.951 51.7186C116.032 51.612 116.146 51.5344 116.275 51.4975C116.406 51.4631 116.544 51.4713 116.67 51.5208C116.796 51.5704 116.903 51.6588 116.976 51.7732L120.207 56.9705L120.347 52.2206C120.353 52.0535 120.425 51.8956 120.547 51.7813C120.669 51.667 120.831 51.6056 120.998 51.6105C121.165 51.6164 121.323 51.6881 121.437 51.81C121.551 51.932 121.613 52.0942 121.608 52.2613L121.405 59.0991C121.403 59.2333 121.358 59.3634 121.277 59.47C121.195 59.5767 121.082 59.6542 120.953 59.6912C120.894 59.7076 120.833 59.7152 120.772 59.7137Z" fill="#EF5A38"/>
<path d="M128.848 59.4336C128.84 59.6006 128.766 59.7576 128.642 59.8703C128.518 59.9829 128.355 60.042 128.188 60.0346L123.786 59.8313C123.619 59.8231 123.462 59.7491 123.349 59.6254C123.237 59.5018 123.178 59.3385 123.185 59.1714L123.506 52.3336C123.509 52.2509 123.528 52.1696 123.563 52.0944C123.597 52.0192 123.647 51.9517 123.708 51.8958C123.769 51.8398 123.84 51.7966 123.918 51.7685C123.996 51.7405 124.078 51.7283 124.161 51.7325L128.568 51.9359C128.734 51.9452 128.891 52.0196 129.003 52.143C129.115 52.2663 129.175 52.4289 129.169 52.5957C129.16 52.7628 129.086 52.9198 128.963 53.0324C128.839 53.1451 128.676 53.2042 128.509 53.1968L124.735 53.0205L124.654 54.7605L127.257 54.8825C127.424 54.8907 127.581 54.9647 127.694 55.0884C127.806 55.212 127.865 55.3753 127.858 55.5424C127.85 55.7094 127.776 55.8664 127.652 55.9791C127.529 56.0917 127.365 56.1508 127.198 56.1434L124.595 56.0214L124.478 58.5975L128.247 58.7737C128.414 58.7819 128.571 58.856 128.683 58.9796C128.796 59.1032 128.855 59.2665 128.848 59.4336Z" fill="#EF5A38"/>
<path d="M139.45 58.2722C139.289 58.9796 138.871 59.6021 138.278 60.0194C137.684 60.4368 136.957 60.6193 136.237 60.5319L134.542 60.4189H134.47H134.398C134.23 60.4073 134.075 60.3299 133.965 60.2037C133.855 60.0774 133.799 59.9127 133.81 59.7455L134.262 52.9212C134.274 52.7541 134.351 52.5984 134.477 52.4882C134.604 52.3781 134.768 52.3225 134.935 52.3337H135.008H135.08L136.811 52.4512C137.527 52.461 138.213 52.7366 138.737 53.2244C139.261 53.7122 139.584 54.3774 139.645 55.0905C139.743 56.1548 139.678 57.2278 139.45 58.2722ZM138.402 55.2577C138.381 54.8322 138.195 54.4315 137.884 54.1405C137.572 53.8495 137.16 53.691 136.734 53.6986L135.487 53.6127L135.112 59.1806L136.323 59.2619C136.744 59.3265 137.174 59.2297 137.527 58.9909C137.879 58.7521 138.129 58.3889 138.226 57.9739C138.417 57.0821 138.477 56.1669 138.402 55.2577Z" fill="#EF5A38"/>
<path d="M141.552 60.9073C141.469 60.901 141.389 60.8784 141.315 60.8409C141.241 60.8034 141.175 60.7517 141.122 60.6887C141.068 60.6257 141.027 60.5526 141.002 60.4738C140.976 60.395 140.967 60.3119 140.973 60.2294L141.498 53.4051C141.504 53.3225 141.526 53.2419 141.564 53.1681C141.602 53.0943 141.653 53.0286 141.716 52.9748C141.779 52.921 141.852 52.8803 141.931 52.8548C142.01 52.8294 142.093 52.8198 142.176 52.8266C142.342 52.8393 142.496 52.9173 142.604 53.0436C142.713 53.1698 142.767 53.334 142.754 53.5L142.23 60.3243C142.217 60.4914 142.139 60.6467 142.011 60.756C141.884 60.8653 141.719 60.9197 141.552 60.9073Z" fill="#EF5A38"/>
<path d="M150.347 57.5222C150.161 59.3525 149.443 61.4992 146.989 61.3275C145.14 61.1964 143.767 59.2757 143.925 57.0477C144.083 54.8196 145.732 53.1158 147.54 53.2468C148.223 53.2949 148.868 53.5799 149.363 54.0528C149.858 54.5256 150.172 55.1564 150.252 55.8364C150.27 56.003 150.221 56.1698 150.115 56.3003C150.01 56.4308 149.858 56.5142 149.691 56.5324C149.525 56.5502 149.358 56.5011 149.228 56.3961C149.097 56.291 149.014 56.1386 148.995 55.972C148.948 55.5827 148.766 55.2223 148.48 54.9538C148.194 54.6853 147.823 54.5258 147.432 54.5032C146.279 54.4219 145.253 55.6014 145.145 57.138C145.036 58.6746 145.886 59.9853 147.039 60.0711C147.49 60.1028 148.566 60.1751 148.959 58.0419L147.052 57.9063C146.97 57.9006 146.889 57.8786 146.815 57.8416C146.741 57.8047 146.675 57.7534 146.621 57.6908C146.566 57.6282 146.525 57.5556 146.499 57.477C146.473 57.3984 146.463 57.3155 146.469 57.2329C146.481 57.0658 146.558 56.9101 146.684 56.8C146.811 56.6898 146.975 56.6343 147.142 56.6454L149.723 56.8307H149.777H149.841L149.895 56.8533L149.954 56.8804C149.972 56.8882 149.988 56.8989 150.003 56.9121L150.057 56.9482L150.098 56.9844L150.143 57.0296L150.175 57.0793C150.19 57.0955 150.202 57.1138 150.211 57.1335C150.221 57.1487 150.229 57.1655 150.234 57.1832L150.261 57.242V57.3007V57.364V57.4227C150.263 57.4423 150.263 57.462 150.261 57.4815L150.347 57.5222Z" fill="#EF5A38"/>
<path d="M152.376 61.6032C152.209 61.5984 152.05 61.5278 151.935 61.4067C151.82 61.2857 151.757 61.124 151.761 60.9569L151.964 54.1145C151.97 53.9475 152.042 53.7896 152.164 53.6753C152.286 53.561 152.448 53.4995 152.615 53.5044C152.698 53.5068 152.779 53.5253 152.854 53.5591C152.93 53.5928 152.998 53.6411 153.054 53.7011C153.111 53.7611 153.155 53.8317 153.184 53.9089C153.214 53.986 153.228 54.0682 153.225 54.1507L153.022 60.9931C153.02 61.0758 153.002 61.1573 152.968 61.2329C152.935 61.3085 152.887 61.3766 152.827 61.4334C152.766 61.4902 152.696 61.5344 152.618 61.5636C152.541 61.5927 152.458 61.6062 152.376 61.6032Z" fill="#EF5A38"/>
<path d="M160.728 54.1549C160.729 54.2377 160.715 54.3202 160.685 54.3974C160.654 54.4746 160.609 54.545 160.552 54.6047C160.494 54.6643 160.425 54.712 160.349 54.7449C160.273 54.7779 160.191 54.7954 160.108 54.7966L158.093 54.8373L158.206 61.0469C158.208 61.1298 158.193 61.2122 158.163 61.2894C158.133 61.3666 158.087 61.4371 158.03 61.4967C157.972 61.5564 157.903 61.6041 157.827 61.637C157.751 61.67 157.669 61.6875 157.587 61.6887C157.42 61.6911 157.258 61.6274 157.138 61.5114C157.018 61.3954 156.948 61.2366 156.945 61.0695L156.832 54.8599L154.812 54.8961C154.729 54.8979 154.646 54.8832 154.569 54.853C154.492 54.8228 154.422 54.7776 154.362 54.7201C154.302 54.6625 154.255 54.5937 154.222 54.5177C154.189 54.4416 154.171 54.3598 154.17 54.2769C154.168 54.194 154.183 54.1116 154.213 54.0344C154.243 53.9572 154.288 53.8867 154.346 53.8271C154.403 53.7674 154.472 53.7198 154.548 53.6868C154.624 53.6539 154.706 53.6363 154.789 53.6351L160.086 53.5357C160.253 53.5333 160.414 53.597 160.534 53.713C160.655 53.829 160.724 53.9878 160.728 54.1549Z" fill="#EF5A38"/>
<path d="M167.208 60.9205C167.061 60.9991 166.888 61.0161 166.728 60.9679C166.568 60.9196 166.434 60.81 166.354 60.6629L165.364 58.819L162.449 59.1037L161.835 61.1058C161.8 61.2268 161.73 61.3346 161.633 61.4152C161.536 61.4957 161.418 61.5454 161.293 61.5577C161.21 61.5664 161.127 61.5572 161.048 61.5306C160.969 61.5069 160.895 61.4676 160.831 61.4151C160.767 61.3627 160.714 61.298 160.675 61.2249C160.636 61.1518 160.611 61.0717 160.603 60.9892C160.595 60.9067 160.604 60.8235 160.628 60.7443L161.365 58.3399L162.802 53.6578C162.836 53.5375 162.906 53.4302 163.002 53.3497C163.098 53.2691 163.215 53.2191 163.34 53.2059C163.464 53.1943 163.589 53.2193 163.699 53.278C163.809 53.3366 163.899 53.4263 163.959 53.5358L166.273 57.8473L167.466 60.0618C167.506 60.1351 167.53 60.2154 167.539 60.2983C167.547 60.3812 167.539 60.4649 167.516 60.5447C167.492 60.6244 167.452 60.6987 167.399 60.7632C167.347 60.8277 167.282 60.8811 167.208 60.9205ZM164.718 57.6168L163.561 55.4656L162.847 57.7976L164.718 57.6168Z" fill="#EF5A38"/>
<path d="M174.706 58.4393C174.746 58.6005 174.721 58.7709 174.637 58.9137C174.552 59.0566 174.415 59.1605 174.254 59.2031L169.974 60.2426C169.813 60.2825 169.643 60.2575 169.5 60.173C169.357 60.0884 169.253 59.9511 169.211 59.7906L167.597 53.1426C167.557 52.9815 167.582 52.8111 167.667 52.6682C167.751 52.5253 167.889 52.4214 168.049 52.3788C168.21 52.339 168.379 52.3641 168.522 52.4487C168.664 52.5334 168.767 52.6706 168.808 52.8308L170.273 58.8641L173.942 57.9603C174.024 57.9403 174.109 57.9369 174.192 57.9503C174.275 57.9637 174.354 57.9936 174.426 58.0383C174.497 58.0829 174.558 58.1415 174.607 58.2103C174.655 58.2792 174.689 58.3571 174.706 58.4393Z" fill="#EF5A38"/>
<path d="M181.82 55.1762C181.859 55.2485 181.885 55.3281 181.894 55.4102C181.903 55.4923 181.896 55.5755 181.873 55.6548C181.849 55.7342 181.811 55.8082 181.759 55.8726C181.707 55.937 181.643 55.9906 181.571 56.0303L177.702 58.1409C177.63 58.1808 177.55 58.206 177.468 58.2151C177.386 58.2241 177.303 58.2169 177.224 58.1938C177.144 58.1708 177.07 58.1322 177.006 58.0805C176.942 58.0287 176.888 57.9648 176.848 57.8923L173.567 51.886C173.488 51.7384 173.47 51.5655 173.518 51.4048C173.565 51.2441 173.674 51.1085 173.82 51.0274L177.689 48.9168C177.761 48.8771 177.841 48.8521 177.924 48.8434C178.006 48.8346 178.089 48.8422 178.169 48.8657C178.248 48.8892 178.322 48.9282 178.386 48.9804C178.45 49.0326 178.504 49.097 178.543 49.1699C178.583 49.2425 178.608 49.3223 178.616 49.4046C178.625 49.487 178.618 49.5702 178.594 49.6496C178.571 49.729 178.532 49.8029 178.479 49.8672C178.427 49.9314 178.363 49.9847 178.29 50.024L174.977 51.8318L175.813 53.3639L178.1 52.1165C178.247 52.0372 178.418 52.0188 178.578 52.0653C178.738 52.1119 178.873 52.2196 178.954 52.3651C178.994 52.4381 179.019 52.5182 179.028 52.6009C179.037 52.6835 179.029 52.7671 179.006 52.8469C178.982 52.9266 178.943 53.001 178.891 53.0656C178.839 53.1303 178.774 53.184 178.701 53.2238L176.441 54.4711L177.675 56.7308L180.988 54.9231C181.133 54.8499 181.3 54.8354 181.455 54.8826C181.61 54.9297 181.74 55.0349 181.82 55.1762Z" fill="#EF5A38"/>
</svg>
