<svg width="195" height="74" viewBox="0 0 195 74" fill="none" xmlns="http://www.w3.org/2000/svg">
<path d="M29.8231 13.8313C29.9768 15.6707 31.3462 16.5791 33.868 16.1859C34.6069 15.9036 35.3296 15.5807 36.0328 15.2187C36.5302 14.9488 36.9413 14.5438 37.2188 14.0505C37.4962 13.5572 37.6287 12.9956 37.601 12.4303C37.6219 11.9368 37.4706 11.4515 37.1729 11.0574C36.8753 10.6632 36.4498 10.3849 35.9695 10.27L32.8285 10.1389C30.7089 10.5457 29.665 11.9286 29.8231 13.8313Z" fill="#4C533A"/>
<path d="M193.502 19.8469C192.092 17.9261 189.688 16.0099 187.582 15.7342C185.353 15.4524 183.093 15.9113 181.151 17.0403C180.185 17.5889 179.34 18.3286 178.67 19.2142C178.078 20.0186 177.702 21.049 176.6 21.2569C176.435 20.9588 176.298 20.6455 176.193 20.3214C176.089 19.8695 176.103 19.4175 176.008 18.9656C175.811 17.8916 175.877 16.7858 176.202 15.7433C176.414 14.984 176.609 14.2202 176.762 13.4474C176.889 12.8011 176.948 12.1458 177.043 11.495C177.083 11.1967 177.138 10.903 177.174 10.5911C177.251 9.90871 177.354 9.23532 177.377 8.53482C177.377 7.95634 177.273 7.39141 177.269 6.81293C177.268 6.65612 177.232 6.50148 177.163 6.3606C177.094 6.21972 176.994 6.09626 176.871 5.99944C176.767 5.90454 176.668 5.80511 176.559 5.71472C176.214 5.45129 175.785 5.32418 175.352 5.3577C174.638 5.3577 174.046 5.75539 173.45 6.1305C173.31 6.21636 173.179 6.31579 173.07 6.3881C172.677 6.31128 172.519 6.01752 172.293 5.80511C171.954 5.48424 170.788 5.35317 170.255 5.46616C169.174 5.66501 168.899 5.56559 167.837 5.97685C167.385 6.14859 166.933 6.33389 166.481 6.51919C166.029 6.70448 165.654 7.05247 165.229 7.28296C164.402 7.7349 163.805 8.46253 163.127 9.09072C162.616 9.63942 162.134 10.2157 161.686 10.8171C161.524 11.001 161.373 11.1942 161.234 11.3956C160.71 12.1775 160.19 12.9684 159.697 13.7728C159.336 14.3649 159.006 14.9705 158.671 15.5806C158.505 15.8736 158.354 16.1753 158.219 16.4844C158.002 16.9997 157.808 17.5194 157.614 18.0346C157.496 18.3419 157.324 18.8526 157.23 19.1644C157.094 19.6435 156.963 20.1226 156.841 20.6016C156.841 20.6378 156.841 20.6694 156.841 20.701C155.887 22.6444 154.622 23.8646 153.488 23.8104C153.225 23.8104 153.126 23.5663 153.103 23.3178C153.049 22.78 152.968 22.2422 152.954 21.6998C152.954 20.9858 152.954 20.2672 153.008 19.5486C153.063 18.83 153.162 17.9894 153.212 17.2075C153.262 16.4257 153.266 15.5625 153.298 14.74C153.298 14.6134 153.298 14.4914 153.32 14.3694C153.424 13.339 153.524 12.3085 153.628 11.2781C153.673 10.7997 153.62 10.317 153.472 9.85985C153.323 9.40275 153.083 8.98099 152.764 8.62069C152.423 8.21006 152.022 7.85219 151.576 7.55864C151.187 7.26617 150.705 7.12629 150.22 7.16546C149.604 7.21503 148.996 7.34257 148.412 7.54507C147.804 7.806 147.25 8.17678 146.776 8.63878C145.857 9.458 145.042 10.3869 144.349 11.4047C144.015 11.8973 143.699 12.3989 143.337 12.8735C143.296 12.9232 143.283 12.9864 143.247 13.0407C142.795 13.7276 141.76 16.724 141.484 16.0144C141.339 15.5577 141.277 15.0784 141.303 14.5998C141.305 13.3298 141.025 12.0751 140.485 10.9256C140.183 10.3937 139.749 9.94856 139.224 9.63303C138.888 9.43772 138.521 9.30025 138.14 9.2263C137.466 9.11979 136.778 9.2821 136.223 9.67824C135.645 10.0036 134.836 10.4646 134.172 10.903C134 11.0135 133.867 11.1747 133.791 11.3641C133.715 11.5536 133.699 11.762 133.747 11.9605C133.97 12.8092 134.148 13.6691 134.28 14.5366C134.181 14.6902 134.09 14.8258 134.059 14.8846C133.661 15.567 133.281 16.2404 132.879 16.9409C132.558 17.4787 132.219 17.9939 131.885 18.5227C131.844 18.5905 131.813 18.6583 131.772 18.7261C131.41 19.3768 131.062 20.0367 130.678 20.6739C130.362 21.2072 130.005 21.7179 129.666 22.2331C129.521 22.4546 129.372 22.6851 129.214 22.8884C128.821 23.4308 128.459 24.0002 128.016 24.5064C127.506 25.0894 126.927 25.6181 126.362 26.1559C126.127 26.3774 125.811 26.513 125.594 26.748C125.255 27.1231 124.776 27.2271 124.401 27.5344C124.328 27.5931 124.202 27.5796 124.102 27.5976C123.379 27.7106 122.661 27.8191 121.942 27.9411C121.789 27.9763 121.629 27.9577 121.488 27.8886C121.348 27.8194 121.235 27.7039 121.169 27.5615C121.179 27.5327 121.193 27.5053 121.21 27.4801L122.566 26.2554C123.19 25.6905 123.84 25.1527 124.437 24.5606C124.906 24.1777 125.337 23.7509 125.725 23.2861C126.114 22.7212 126.561 22.2015 126.981 21.6592C127.046 21.5711 127.102 21.4773 127.149 21.3789C127.429 20.8411 127.722 20.3079 127.976 19.761C128.274 19.1147 128.554 18.4639 128.798 17.7996C129.01 17.2347 129.155 16.6562 129.34 16.0867C129.545 15.4641 129.662 14.8162 129.688 14.1615C129.725 13.6627 129.659 13.1617 129.495 12.6892C129.331 12.2167 129.072 11.7827 128.735 11.4137C128.019 10.7308 127.18 10.1896 126.263 9.81834C126.079 9.7302 125.884 9.66638 125.684 9.6285C125.051 9.52908 124.414 9.42515 123.772 9.36188C123.434 9.34163 123.094 9.34163 122.756 9.36188C122.143 9.3881 121.535 9.49135 120.948 9.66919C120.525 9.78234 120.114 9.93361 119.719 10.1211C119.267 10.3516 118.815 10.6499 118.363 10.9165C117.47 11.4924 116.722 12.2655 116.175 13.1762C115.787 13.7592 115.484 14.392 115.104 14.984C114.342 16.1133 113.801 17.377 113.509 18.708C113.306 19.6887 113.17 20.6785 112.962 21.6592C112.835 22.4499 112.769 23.2491 112.763 24.0499C112.736 24.5019 112.732 24.9131 112.763 25.3199C111.859 26.7796 110.82 27.6654 109.853 27.6157C109.591 27.6157 109.491 27.3671 109.469 27.1231C109.414 26.5853 109.333 26.0475 109.324 25.5051C109.324 24.7911 109.324 24.0725 109.374 23.3539C109.423 22.6354 109.527 21.7947 109.577 21.0129C109.627 20.231 109.631 19.3678 109.663 18.5408L109.69 18.1747C109.79 17.1443 109.89 16.1138 109.993 15.0834C110.038 14.605 109.985 14.1223 109.837 13.6652C109.688 13.2081 109.448 12.7863 109.13 12.426C108.788 12.0154 108.387 11.6575 107.941 11.364C107.552 11.0715 107.07 10.9316 106.585 10.9708C105.969 11.0203 105.362 11.1479 104.777 11.3504C104.17 11.6114 103.615 11.9821 103.141 12.4441C102.222 13.2633 101.407 14.1922 100.715 15.21C100.38 15.6981 100.064 16.2042 99.7022 16.6788C99.6691 16.7321 99.6404 16.788 99.6163 16.846C99.1644 17.5329 98.1249 20.5293 97.8492 19.8198C97.7061 19.3626 97.6449 18.8837 97.6684 18.4052C97.6721 17.1349 97.3927 15.8797 96.8505 14.7309C96.612 14.1754 96.2355 13.69 95.7567 13.3209C95.3717 12.9817 94.9374 12.7028 94.4687 12.4938C93.9367 12.3053 93.3788 12.2001 92.8146 12.182C92.1984 12.2314 91.591 12.359 91.0069 12.5616C90.3994 12.8234 89.8449 13.194 89.3709 13.6553C88.4518 14.4745 87.6367 15.4034 86.9439 16.4212C86.6095 16.9093 86.2931 17.4154 85.9316 17.89C85.8954 17.9397 85.8773 18.003 85.8457 18.0572C85.3938 18.7396 84.3543 21.7405 84.0786 21.031C83.9346 20.574 83.8749 20.0947 83.9024 19.6164C83.9034 18.3459 83.6225 17.0909 83.0798 15.9421C82.7788 15.4079 82.3444 14.961 81.8189 14.6451C81.4825 14.4512 81.1158 14.3152 80.7343 14.2428C80.0609 14.1343 79.372 14.2968 78.8181 14.6948C78.2396 15.0156 77.4306 15.4811 76.7663 15.9195C76.5939 16.0292 76.4605 16.1905 76.3851 16.3803C76.3096 16.5702 76.2959 16.779 76.346 16.977C76.9138 19.2805 77.235 21.6378 77.3041 24.0092C76.6099 24.3182 75.8585 24.4779 75.0986 24.4779C74.3387 24.4779 73.5873 24.3182 72.8931 24.0092C72.7442 22.5543 72.2948 21.1462 71.5735 19.874C71.4459 19.6709 71.3055 19.4762 71.1532 19.291C70.4165 18.5724 69.6799 17.8493 68.8935 17.1759C68.3963 16.7681 67.8515 16.4222 67.271 16.1455C66.3894 15.7112 65.4403 15.43 64.4644 15.3139C63.8929 15.2429 63.3129 15.2906 62.7607 15.454C62.2635 15.6167 61.789 15.8698 61.3009 16.0686C60.7157 16.354 60.169 16.7124 59.6739 17.1352C59.2799 17.4427 58.9111 17.7812 58.5712 18.1476C58.2837 18.417 58.0164 18.707 57.7712 19.0153C57.4368 19.4672 57.0888 19.9599 56.7544 20.4344C55.3719 22.5424 54.4353 24.9109 54.0021 27.3943C53.9297 27.5705 53.8574 27.7378 53.7942 27.8733C52.8903 29.8438 52.0316 31.6425 51.0147 32.6594C49.4374 34.2321 47.6162 32.935 46.405 30.7657C51.8011 25.582 54.9918 16.4031 55.1907 12.8102C55.3895 9.21726 53.645 0.155874 48.0952 0.643969C45.3836 0.883497 43.7521 1.81447 42.4821 4.151C39.1944 10.2132 37.7123 17.0904 38.2113 23.9686C38.3333 25.9887 38.6225 27.9863 38.8982 29.9703C38.7988 30.2234 38.6994 30.4901 38.5909 30.7748C38.139 31.986 36.9232 35.1631 35.9064 36.0986C35.809 36.2041 35.691 36.2882 35.5595 36.3458C35.4281 36.4033 35.2861 36.433 35.1426 36.433C34.9991 36.433 34.8572 36.4033 34.7257 36.3458C34.5943 36.2882 34.4762 36.2041 34.3788 36.0986C33.6828 35.2399 33.6015 33.744 33.7325 32.7588C33.9676 31.0234 35.6985 23.0828 35.9606 21.3518C36.0646 20.6694 36.0962 19.996 36.1323 19.3271C36.1481 19.1077 36.0867 18.8896 35.9588 18.7106C35.831 18.5315 35.6446 18.4027 35.4318 18.3464C31.9203 17.4426 30.3295 18.6131 29.1454 22.1246C29.1454 22.1744 29.1092 22.2331 29.0911 22.2873C29.1188 22.1382 29.1339 21.987 29.1363 21.8354C29.1634 20.4796 27.7805 18.9565 26.2032 18.6989C25.5541 18.6163 24.8965 18.6284 24.2509 18.7351C22.1087 19.0334 19.9665 19.3995 17.8198 19.7068C17.0334 19.8198 16.2425 19.8514 15.1985 19.9463C15.4877 16.9635 15.7408 14.3513 15.9894 11.8114C20.5359 10.0036 24.9785 9.91776 29.3081 9.44775C29.6689 9.40631 30.0138 9.27606 30.3119 9.06863C30.6101 8.8612 30.8521 8.58306 31.0164 8.25914L31.0571 8.17327C31.1645 7.88438 31.2151 7.57748 31.2062 7.26939C31.0797 4.67074 28.6799 2.2619 26.0586 2.2393C24.8415 2.18224 23.6226 2.3087 22.4431 2.61442C15.8809 4.63007 9.33687 6.74061 2.7973 8.83761C1.7488 9.17657 0.853946 9.74151 0.75 11.2058C2.14197 13.9671 5.20613 13.9581 7.9268 14.5863C7.71891 17.1669 7.52006 19.6119 7.33929 21.8173C3.94522 22.4094 4.2209 28.8314 6.80148 28.1445C6.99581 29.9522 6.88734 30.7974 6.76079 33.857C6.72012 34.797 6.57549 35.9088 6.61164 36.8398C6.66588 38.3222 6.61166 39.6961 6.96417 41.0926C7.27662 42.0311 7.82797 42.8722 8.56403 43.533C10.1051 45.0335 11.9491 44.4776 13.7613 43.533C15.4516 42.6789 16.0843 41.3456 15.8357 39.5605C15.699 38.5902 15.628 37.6118 15.6233 36.6319C15.6233 33.6717 15.203 30.7296 15.9261 27.566C16.943 27.2948 17.8378 27.0372 18.7462 26.8158C21.2364 26.2102 23.7447 25.695 26.2168 25.008C27.6178 24.6148 28.5172 23.8691 28.9284 22.9427C27.9748 26.5582 26.967 34.3496 27.1794 36.0489C27.3449 37.4457 27.9063 38.766 28.7974 39.8542C29.1318 40.2565 29.403 40.5728 29.4482 40.6271C31.961 43.6189 34.3472 43.515 37.5831 40.722C38.2971 40.1073 39.7614 37.938 40.6789 36.6545L40.8822 37.0477C41.6957 38.512 43.1013 39.5017 44.1272 40.2565C47.006 42.3715 51.191 41.7931 53.8439 39.0136C54.5805 38.2297 55.2531 37.3879 55.855 36.4963C56.221 37.0934 56.6481 37.6508 57.1295 38.1595C57.36 38.3402 57.5814 38.5165 57.8074 38.7108C58.4365 39.2484 59.1416 39.6901 59.8999 40.0214C60.225 40.1783 60.5754 40.2763 60.9348 40.3107C61.8305 40.3647 62.7294 40.3054 63.6103 40.1344C64.5493 39.9858 65.4623 39.7043 66.3219 39.2984C66.9404 38.9982 67.5041 38.5964 67.9896 38.1097C68.5625 37.5941 69.0916 37.0318 69.5714 36.4285C69.8605 36.0719 70.1205 35.6925 70.3487 35.2942C70.7329 34.544 71.1034 33.7892 71.4153 33.0028C71.8713 31.7507 72.2087 30.4585 72.4231 29.1433C74.5518 29.5003 75.7268 29.767 77.0058 29.5681L77.3267 29.5094C77.2905 29.8799 77.2453 30.2505 77.1775 30.6166C77.1097 30.9827 77.06 31.4346 77.0193 31.8459C76.9877 32.1803 76.9561 32.5148 76.9109 32.8447C76.8295 33.4683 76.6939 34.092 76.6262 34.7157C76.4923 35.5299 76.559 36.3645 76.8205 37.1471C76.9122 37.4541 77.0807 37.7327 77.31 37.9565C77.5393 38.1803 77.8219 38.3419 78.1311 38.4261C78.6565 38.5163 79.1917 38.5345 79.7219 38.4803C80.1825 38.514 80.6386 38.3701 80.9964 38.0781C81.0633 38.0342 81.1364 38.0007 81.2133 37.9787C81.675 37.8095 82.0968 37.5467 82.4522 37.2069C82.8077 36.867 83.089 36.4574 83.2787 36.0037C83.586 35.2535 83.9973 34.5485 84.2549 33.7711C84.5125 32.9938 86.6276 26.9378 86.7722 26.6486C87.075 26.0294 87.9247 24.1087 88.241 23.485C88.3269 23.3178 88.4082 23.128 88.693 23.1009C88.7785 23.22 88.8427 23.353 88.8828 23.494C88.9189 23.7833 88.7517 24.642 88.6477 25.6317C88.5709 26.3458 88.3811 30.1511 88.6116 31.2855C88.7698 32.0628 88.9279 32.8401 89.1494 33.5949C89.303 34.1101 89.6013 34.5756 89.7821 35.0863C89.9293 35.5847 90.1668 36.0519 90.4826 36.4647C90.8787 36.8431 91.3739 37.1016 91.9108 37.2104C92.4363 37.299 92.9715 37.3158 93.5016 37.2601C94.0375 37.2001 94.565 37.0804 95.0743 36.9031C95.5318 36.7033 95.9437 36.4123 96.2849 36.0478C96.626 35.6834 96.8892 35.2532 97.0583 34.7835C97.3702 34.0333 97.7769 33.3282 98.0345 32.5509C98.2921 31.7736 100.412 25.7176 100.552 25.4283C100.859 24.8092 101.704 22.8884 102.021 22.2647C102.106 22.093 102.188 21.9077 102.473 21.8761C102.557 21.9957 102.621 22.1286 102.662 22.2693C102.699 22.5585 102.531 23.4172 102.427 24.4069C102.355 25.1255 102.161 28.9263 102.391 30.0607C102.549 30.838 102.708 31.6154 102.929 32.3701C103.083 32.8898 103.381 33.3508 103.562 33.8615C103.808 34.4762 104.271 34.9793 104.863 35.2761C105.816 35.7783 106.883 36.0259 107.959 35.9947C108.295 35.9816 108.628 35.9238 108.949 35.8229C110.969 35.3032 113.97 32.2888 114.987 31.2448C115.37 31.6842 115.783 32.0979 116.221 32.4831C116.752 32.8945 117.314 33.2647 117.902 33.5904C118.024 33.6658 118.153 33.7308 118.286 33.7847C118.877 34.065 119.508 34.2496 120.157 34.3315C120.605 34.4176 121.058 34.4735 121.513 34.4988C122.318 34.5483 123.126 34.4828 123.913 34.3044C124.5 34.1191 125.128 34.0649 125.72 33.8254C126.516 33.4909 127.28 33.0435 128.057 32.6413C128.613 32.3363 129.143 31.984 129.639 31.5883C130.052 31.3207 130.442 31.0183 130.805 30.6844C131.88 29.5319 133.064 28.4473 133.846 27.0689C134.104 26.6712 134.339 26.3367 134.565 26.0294C134.524 26.2961 134.493 26.5627 134.47 26.8339C134.447 27.105 134.407 27.5027 134.361 27.8326C134.28 28.4563 134.145 29.08 134.077 29.7037C133.939 30.5174 134.004 31.3526 134.267 32.1351C134.361 32.4421 134.53 32.7205 134.76 32.9448C134.99 33.1691 135.272 33.332 135.582 33.4186C136.107 33.5073 136.642 33.524 137.173 33.4683C137.633 33.5032 138.088 33.361 138.447 33.0706C138.512 33.0259 138.584 32.9922 138.659 32.9712C139.122 32.802 139.545 32.5388 139.902 32.1981C140.258 31.8574 140.54 31.4467 140.729 30.9917C141.037 30.246 141.448 29.5365 141.701 28.7591C141.954 27.9818 144.078 21.9258 144.223 21.6365C144.526 21.0219 145.375 19.0966 145.692 18.473C145.777 18.3012 145.859 18.1159 146.143 18.0843C146.228 18.2039 146.292 18.3368 146.333 18.4775C146.369 18.7667 146.198 19.6254 146.098 20.6152C146.021 21.3338 145.832 25.1346 146.062 26.2689C146.22 27.0463 146.374 27.8281 146.6 28.5784C146.754 29.0981 147.052 29.5591 147.228 30.0698C147.476 30.6852 147.941 31.1884 148.534 31.4843C149.487 31.9876 150.553 32.2351 151.63 32.2029C151.965 32.1894 152.296 32.1316 152.615 32.0312C154.346 31.5792 156.796 29.3195 158.102 28.0134C158.374 28.4729 158.721 28.8838 159.128 29.2292C159.762 29.8379 160.492 30.3386 161.288 30.7115C161.801 30.9272 162.338 31.079 162.888 31.1634C163.393 31.2412 163.907 31.2259 164.406 31.1183C165.509 30.8398 166.542 30.3384 167.443 29.6449C168.576 28.7818 169.517 27.692 170.205 26.4452L170.706 26.2328C170.847 26.3774 171.059 26.4949 171.104 26.6847C171.195 27.0689 171.493 27.2722 171.692 27.557C171.959 27.9589 172.285 28.3184 172.659 28.6235C173.452 29.2626 174.426 29.6357 175.443 29.6901C176.198 29.7308 176.97 29.6901 177.734 29.6449C178.439 29.5563 179.106 29.2731 179.659 28.8269C179.975 28.5773 180.265 28.2956 180.523 27.9863C181.023 27.4799 181.45 26.9065 181.792 26.2825C182.086 25.7176 182.475 25.225 182.755 24.651C183.012 23.9837 183.36 23.3555 183.79 22.7845C185.318 21.0671 188.165 20.8095 189.575 22.7303C190.027 23.3359 190.696 26.0068 188.938 29.2563C186.678 33.396 177.748 42.8144 143.197 40.8801C97.0222 38.286 39.653 39.7955 28.5579 61.7326C28.5579 61.7326 27.7172 63.0342 29.7645 64.146C32.1734 65.4476 32.9507 63.9562 32.9507 63.9562C40.6698 48.6897 79.731 42.2631 142.921 45.7972C178.941 47.8129 189.923 37.7708 193.267 31.6018C195.852 26.8158 195.215 22.1473 193.502 19.8469ZM44.2628 18.8752C44.2578 16.9574 44.409 15.0424 44.7147 13.1491C45.0311 11.4363 45.1666 9.53362 47.0738 8.32694C50.6893 11.7029 46.2874 21.8535 44.6785 24.2307C44.0955 22.2964 44.2492 20.5564 44.2808 18.8752H44.2628ZM65.9016 28.1716C65.8137 28.9821 65.6626 29.7845 65.4497 30.5714C65.0212 31.8644 64.1272 32.9517 62.9414 33.622C61.9291 33.735 61.6308 33.5045 61.1879 32.6819C60.8058 31.947 60.5811 31.1404 60.5281 30.3138C60.4965 29.5554 60.5618 28.796 60.7224 28.0541C60.8463 27.4316 61.0404 26.8251 61.3009 26.2463C61.609 25.4255 62.0321 24.6525 62.5573 23.9505C62.7193 23.7891 62.8914 23.6382 63.0725 23.4985C63.2171 23.7064 63.3708 23.833 63.4024 23.9912C63.6871 25.4464 64.3605 26.6395 65.8157 27.227C66.1231 27.5253 65.9513 27.8643 65.9016 28.1716ZM119.384 22.7483C119.323 22.3734 119.208 22.0094 119.041 21.6682C119.041 21.2479 119.041 20.8728 119.041 20.7236C119.086 19.6706 119.556 18.9927 119.945 17.9758C120.197 17.3749 120.53 16.8109 120.934 16.2991C121.188 16.0304 121.475 15.795 121.788 15.5986C121.94 15.6022 122.091 15.6158 122.24 15.6393C122.719 15.7342 123.144 15.8834 123.203 16.385C123.246 17.1985 123.056 18.0075 122.656 18.717C122.204 19.535 121.752 20.1316 121.3 20.9089C120.743 21.6018 120.099 22.22 119.384 22.7483ZM169.73 14.1163C169.639 14.7648 169.499 15.4054 169.31 16.0325C169.144 16.4889 168.947 16.933 168.718 17.3612C168.417 17.9819 168.115 18.598 167.814 19.2096C167.769 19.3045 167.706 19.3949 167.651 19.4898C167.208 20.1686 166.801 20.8701 166.431 21.5914C166.07 22.279 165.65 22.9337 165.175 23.5483C164.845 24.0002 164.447 24.4521 164.117 24.8408L163.516 24.9402C163.239 24.7636 163.003 24.5285 162.826 24.2514C162.649 23.9743 162.534 23.6618 162.49 23.3358C162.404 22.8314 162.364 22.32 162.373 21.8083C162.499 21.5552 162.626 21.2976 162.748 21.04C163.099 20.322 163.195 19.5057 163.019 18.7261C163.15 18.4007 163.272 18.0707 163.403 17.7454C163.471 17.5986 163.547 17.4553 163.629 17.316L164.221 16.2811C164.265 16.2006 164.315 16.1235 164.37 16.0506C165.088 15.0769 165.891 14.1694 166.77 13.3389C167.123 13.011 167.533 12.752 167.981 12.5752C168.248 12.4349 168.555 12.3937 168.849 12.4591C169.143 12.5245 169.404 12.6922 169.586 12.9322C169.78 13.2888 169.827 13.7073 169.717 14.0982L169.73 14.1163Z" fill="#4C533A"/>
<path d="M47.6117 72.353C46.3146 73.6727 43.96 73.4738 42.3692 71.9011C40.7784 70.3283 40.5343 67.9873 41.8314 66.6676C43.0426 65.4338 44.7012 65.6553 45.813 66.419C45.9496 66.5148 46.0429 66.6606 46.0726 66.8249C46.1022 66.9891 46.0657 67.1583 45.9712 67.2958C45.9245 67.3643 45.8647 67.4229 45.7953 67.4682C45.7259 67.5135 45.6482 67.5446 45.5667 67.5597C45.4852 67.5748 45.4015 67.5737 45.3204 67.5563C45.2394 67.5389 45.1625 67.5057 45.0944 67.4585C44.7579 67.1803 44.3306 67.0361 43.8944 67.0537C43.4582 67.0712 43.0438 67.2491 42.7308 67.5534C41.9218 68.3759 42.1523 69.9261 43.2505 71.0017C44.3487 72.0773 45.9034 72.2897 46.7123 71.4536C47.3948 70.7622 47.3676 69.777 46.6445 68.8279C46.5914 68.7614 46.5521 68.685 46.5292 68.603C46.5063 68.5211 46.5001 68.4353 46.5111 68.3509C46.5221 68.2666 46.5499 68.1853 46.5931 68.1119C46.6362 68.0385 46.6937 67.9746 46.762 67.924C46.8288 67.8711 46.9055 67.8321 46.9876 67.8096C47.0697 67.787 47.1556 67.7812 47.24 67.7926C47.3244 67.804 47.4056 67.8323 47.4788 67.8759C47.552 67.9194 47.6156 67.9773 47.6659 68.046C48.9901 69.8402 48.4659 71.4808 47.6117 72.353Z" fill="#EF5A38"/>
<path d="M53.2611 68.0687C51.5979 69.0042 49.3744 68.2133 48.2897 66.3107C47.2051 64.408 47.7022 62.0941 49.3699 61.1585C51.0375 60.223 53.2565 61.0139 54.3412 62.9166C55.4259 64.8193 54.9287 67.1332 53.2611 68.0687ZM49.998 62.2613C48.9405 62.8533 48.6739 64.3944 49.406 65.6915C50.1381 66.9886 51.5889 67.5625 52.6464 66.9705C53.704 66.3784 53.9706 64.8328 53.243 63.5358C52.5154 62.2387 51.0556 61.6647 49.998 62.2613Z" fill="#EF5A38"/>
<path d="M63.3436 63.9876C63.1854 64.0413 63.0123 64.0306 62.8619 63.9579C62.7114 63.8852 62.5955 63.7563 62.5392 63.599L61.2647 59.9066L60.9077 63.8882C60.8965 64.0094 60.8505 64.1247 60.7751 64.2201C60.6997 64.3156 60.5981 64.3871 60.4828 64.426C60.3682 64.466 60.2445 64.4719 60.1266 64.443C60.0087 64.4141 59.9017 64.3517 59.8185 64.2633L57.0752 61.3573L58.3542 65.0452C58.4079 65.2035 58.3972 65.3764 58.3245 65.5269C58.2518 65.6774 58.1229 65.7933 57.9655 65.8496C57.8073 65.9045 57.6338 65.8944 57.483 65.8215C57.3322 65.7487 57.2165 65.619 57.1611 65.461L54.924 58.9937C54.8761 58.8577 54.8765 58.7093 54.925 58.5735C54.9736 58.4378 55.0674 58.3228 55.1907 58.248C55.3144 58.1736 55.4599 58.1438 55.603 58.1636C55.746 58.1833 55.878 58.2514 55.977 58.3565L59.7733 62.3787L60.2705 56.8696C60.2829 56.7258 60.3446 56.5906 60.445 56.4869C60.5454 56.3832 60.6785 56.3173 60.8218 56.3001C60.9653 56.282 61.1106 56.3139 61.2333 56.3904C61.356 56.467 61.4485 56.5836 61.4952 56.7204L63.7549 63.1832C63.7816 63.263 63.7921 63.3473 63.7858 63.4312C63.7794 63.5151 63.7565 63.5969 63.7182 63.6718C63.6799 63.7467 63.627 63.8132 63.5627 63.8674C63.4984 63.9217 63.4239 63.9625 63.3436 63.9876Z" fill="#EF5A38"/>
<path d="M68.9929 54.9759L69.8967 58.7677C69.8967 58.7677 69.8967 58.8128 69.8967 58.8354C70.317 61.0273 69.6572 62.4916 68.0528 62.8622C67.649 62.9748 67.2229 62.9802 66.8163 62.878C66.4098 62.7758 66.0369 62.5694 65.7344 62.2792C65.1443 61.6418 64.7505 60.8478 64.6 59.9924L63.6961 56.2052C63.6575 56.0447 63.6832 55.8754 63.7676 55.7336C63.852 55.5917 63.9886 55.4885 64.1481 55.4459C64.3086 55.4073 64.4778 55.433 64.6197 55.5174C64.7615 55.6018 64.8647 55.7383 64.9073 55.8978L65.8112 59.6896C66.3355 61.9493 67.3614 61.7053 67.75 61.6149C68.6855 61.398 68.9658 60.4443 68.5816 58.7812L67.7591 55.2425C67.7205 55.082 67.7461 54.9128 67.8305 54.7709C67.915 54.6291 68.0515 54.5258 68.211 54.4833C68.2948 54.462 68.382 54.4579 68.4674 54.4714C68.5528 54.4849 68.6346 54.5156 68.7077 54.5617C68.7808 54.6078 68.8438 54.6683 68.8929 54.7395C68.9419 54.8107 68.9759 54.8911 68.9929 54.9759Z" fill="#EF5A38"/>
<path d="M77.2905 61.0818C77.1876 61.0984 77.0822 61.0894 76.9836 61.0555C76.8851 61.0216 76.7964 60.9639 76.7256 60.8875L72.5677 56.3952L73.327 61.0863C73.3406 61.1679 73.3378 61.2514 73.319 61.332C73.3002 61.4126 73.2657 61.4887 73.2174 61.5559C73.1691 61.623 73.108 61.68 73.0376 61.7235C72.9672 61.7671 72.889 61.7962 72.8073 61.8094C72.7256 61.823 72.6421 61.8203 72.5615 61.8015C72.481 61.7827 72.4049 61.7481 72.3377 61.6998C72.2705 61.6515 72.2135 61.5904 72.17 61.5201C72.1265 61.4497 72.0973 61.3714 72.0842 61.2897L70.9859 54.5332C70.9641 54.3996 70.9857 54.2626 71.0476 54.1422C71.1094 54.0218 71.2081 53.9244 71.3294 53.8643C71.4515 53.8043 71.5897 53.7855 71.7234 53.8107C71.857 53.836 71.9789 53.904 72.0706 54.0044L76.2284 58.4967L75.4692 53.8055C75.4556 53.7239 75.4583 53.6404 75.4771 53.5599C75.4959 53.4793 75.5305 53.4032 75.5788 53.336C75.6271 53.2688 75.6882 53.2118 75.7585 53.1683C75.8289 53.1248 75.9072 53.0956 75.9889 53.0825C76.0705 53.0689 76.154 53.0716 76.2346 53.0904C76.3152 53.1092 76.3913 53.1438 76.4585 53.1921C76.5257 53.2404 76.5826 53.3015 76.6262 53.3718C76.6697 53.4422 76.6989 53.5205 76.712 53.6022L77.8102 60.3813C77.8324 60.5154 77.8105 60.6531 77.7477 60.7737C77.685 60.8943 77.5848 60.9913 77.4622 61.0502C77.4069 61.0693 77.349 61.0799 77.2905 61.0818Z" fill="#EF5A38"/>
<path d="M80.2417 60.7109C80.1597 60.7216 80.0763 60.716 79.9965 60.6942C79.9168 60.6724 79.8421 60.635 79.7769 60.5841C79.7117 60.5332 79.6573 60.4699 79.6169 60.3978C79.5764 60.3257 79.5506 60.2462 79.5412 60.1641L78.7051 53.385C78.6949 53.3031 78.7011 53.22 78.7231 53.1404C78.7451 53.0609 78.7826 52.9865 78.8333 52.9214C78.8841 52.8564 78.9472 52.8019 79.019 52.7613C79.0909 52.7206 79.17 52.6945 79.2519 52.6845C79.4178 52.664 79.5851 52.71 79.7172 52.8124C79.8493 52.9149 79.9355 53.0655 79.9569 53.2313L80.793 60.0104C80.8031 60.0927 80.7968 60.1761 80.7745 60.2559C80.7522 60.3357 80.7144 60.4103 80.6631 60.4754C80.6119 60.5405 80.5482 60.5949 80.4759 60.6353C80.4036 60.6757 80.324 60.7014 80.2417 60.7109Z" fill="#EF5A38"/>
<path d="M85.5791 60.137C83.7352 60.3088 82.0675 58.6366 81.8642 56.4085C81.6608 54.1805 82.994 52.2371 84.8424 52.0654C86.5598 51.9072 87.6852 53.1501 88.0377 54.4517C88.0588 54.5321 88.0638 54.6159 88.0525 54.6982C88.0412 54.7806 88.0138 54.86 87.9718 54.9317C87.9299 55.0035 87.8742 55.0663 87.8079 55.1165C87.7417 55.1668 87.6662 55.2034 87.5857 55.2245C87.5053 55.2462 87.4213 55.2517 87.3388 55.2407C87.2562 55.2297 87.1766 55.2024 87.1047 55.1603C87.0328 55.1182 86.9699 55.0623 86.9198 54.9957C86.8697 54.9292 86.8334 54.8533 86.8129 54.7725C86.7351 54.3426 86.5019 53.9563 86.1577 53.6871C85.8135 53.4179 85.3824 53.2847 84.9464 53.3128C83.7939 53.4212 82.9714 54.7545 83.1115 56.2865C83.2516 57.8186 84.3046 58.9982 85.4571 58.8716C86.4242 58.7857 87.0389 58.0175 87.1021 56.8243C87.1115 56.6573 87.1866 56.5007 87.3112 56.3889C87.4357 56.2771 87.5994 56.2192 87.7665 56.2278C87.9336 56.2371 88.0902 56.3122 88.202 56.4368C88.3138 56.5613 88.3717 56.725 88.363 56.8921C88.2546 59.1111 86.7948 60.0286 85.5791 60.137Z" fill="#EF5A38"/>
<path d="M95.8337 59.405C95.6831 59.4767 95.5104 59.4861 95.353 59.4311C95.1955 59.3761 95.0662 59.2612 94.9931 59.1113L94.0892 57.2267L91.1651 57.3894L90.4601 59.3553C90.419 59.4731 90.3437 59.576 90.2439 59.6508C90.1441 59.7257 90.0243 59.7691 89.8997 59.7756C89.8168 59.7791 89.734 59.7669 89.6557 59.7395C89.5774 59.7121 89.5054 59.6696 89.4437 59.6143C89.382 59.559 89.3319 59.492 89.2962 59.4172C89.2605 59.3424 89.2399 59.2613 89.2357 59.1786C89.2315 59.0958 89.2436 59.0131 89.2715 58.935L90.1121 56.5669L91.7436 51.9526C91.7848 51.8348 91.86 51.7319 91.9598 51.6571C92.0596 51.5822 92.1795 51.5388 92.304 51.5323C92.4282 51.5261 92.5515 51.5567 92.6584 51.6202C92.7653 51.6837 92.8511 51.7773 92.9051 51.8893L95.0337 56.2957L96.1274 58.5554C96.165 58.6303 96.1871 58.7119 96.1926 58.7955C96.1982 58.8791 96.1869 58.9629 96.1595 59.0421C96.1321 59.1213 96.0892 59.1942 96.0333 59.2565C95.9773 59.3188 95.9095 59.3693 95.8337 59.405ZM93.4881 55.9974L92.426 53.801L91.6126 56.1014L93.4881 55.9974Z" fill="#EF5A38"/>
<path d="M103.363 58.4513C103.367 58.6183 103.304 58.78 103.189 58.9011C103.074 59.0222 102.915 59.0928 102.748 59.0975L97.4471 59.2331C97.3282 59.2355 97.2111 59.2047 97.1089 59.144C97.0066 59.0833 96.9234 58.9952 96.8687 58.8896C96.8157 58.7836 96.7932 58.665 96.8036 58.5469C96.8139 58.4289 96.8568 58.316 96.9274 58.2208L101.271 52.4676L97.2754 52.5715C97.1083 52.5752 96.9466 52.5126 96.8255 52.3975C96.7044 52.2823 96.6339 52.1239 96.6291 51.9569C96.6255 51.7899 96.688 51.6281 96.8032 51.5071C96.9183 51.386 97.0767 51.3154 97.2437 51.3106L102.545 51.1751C102.663 51.1717 102.781 51.2017 102.883 51.2616C102.985 51.3215 103.068 51.409 103.123 51.514C103.177 51.6199 103.2 51.7386 103.189 51.8568C103.179 51.975 103.136 52.0879 103.065 52.1829L98.7216 57.9361L102.717 57.8366C102.884 57.833 103.045 57.8956 103.167 58.0107C103.288 58.1259 103.358 58.2843 103.363 58.4513Z" fill="#EF5A38"/>
<path d="M105.266 59.2425C105.098 59.2437 104.938 59.1788 104.818 59.0619C104.699 58.9451 104.631 58.7858 104.628 58.6188L104.574 51.7719C104.574 51.6048 104.64 51.4446 104.758 51.3261C104.875 51.2076 105.035 51.1404 105.202 51.1392C105.369 51.138 105.53 51.2029 105.649 51.3197C105.769 51.4365 105.837 51.5958 105.839 51.7629L105.894 58.6052C105.894 58.7727 105.828 58.9334 105.71 59.0526C105.593 59.1719 105.433 59.2401 105.266 59.2425Z" fill="#EF5A38"/>
<path d="M110.761 59.1562C108.854 59.1562 107.313 57.3484 107.335 55.161C107.358 52.9736 108.922 51.2111 110.833 51.2291C112.745 51.2472 114.282 53.0369 114.259 55.2243C114.236 57.4117 112.673 59.1742 110.761 59.1562ZM110.82 52.49C109.609 52.49 108.61 53.6832 108.596 55.1746C108.583 56.666 109.559 57.8862 110.775 57.8862C111.99 57.8862 112.985 56.6931 112.998 55.2017C113.012 53.7103 112.036 52.5036 110.82 52.49Z" fill="#EF5A38"/>
<path d="M120.772 59.4637C120.668 59.4589 120.566 59.4294 120.476 59.3775C120.385 59.3256 120.309 59.2529 120.252 59.1655L117.021 53.9682L116.881 58.7181C116.878 58.801 116.86 58.8826 116.826 58.9582C116.791 59.0338 116.743 59.102 116.682 59.1587C116.622 59.2154 116.551 59.2596 116.473 59.2887C116.395 59.3178 116.313 59.3312 116.23 59.3282C116.147 59.3258 116.065 59.3071 115.99 59.2731C115.914 59.2391 115.846 59.1904 115.789 59.1299C115.732 59.0694 115.688 58.9982 115.659 58.9206C115.63 58.8429 115.617 58.7603 115.62 58.6774L115.823 51.8395C115.825 51.7054 115.87 51.5753 115.951 51.4686C116.032 51.362 116.146 51.2844 116.275 51.2475C116.406 51.2131 116.544 51.2213 116.67 51.2708C116.796 51.3204 116.903 51.4088 116.976 51.5232L120.207 56.7205L120.347 51.9706C120.353 51.8035 120.425 51.6456 120.547 51.5313C120.669 51.417 120.831 51.3556 120.998 51.3605C121.165 51.3664 121.323 51.4381 121.437 51.56C121.551 51.682 121.613 51.8442 121.608 52.0113L121.405 58.8491C121.403 58.9833 121.358 59.1134 121.277 59.22C121.195 59.3267 121.082 59.4042 120.953 59.4412C120.894 59.4576 120.833 59.4652 120.772 59.4637Z" fill="#EF5A38"/>
<path d="M128.848 59.1836C128.84 59.3506 128.766 59.5076 128.642 59.6203C128.518 59.7329 128.355 59.792 128.188 59.7846L123.786 59.5813C123.619 59.5731 123.462 59.4991 123.349 59.3754C123.237 59.2518 123.178 59.0885 123.185 58.9214L123.506 52.0836C123.509 52.0009 123.528 51.9196 123.563 51.8444C123.597 51.7692 123.647 51.7017 123.708 51.6458C123.769 51.5898 123.84 51.5466 123.918 51.5185C123.996 51.4905 124.078 51.4783 124.161 51.4825L128.568 51.6859C128.734 51.6952 128.891 51.7696 129.003 51.893C129.115 52.0163 129.175 52.1789 129.169 52.3457C129.16 52.5128 129.086 52.6698 128.963 52.7824C128.839 52.8951 128.676 52.9542 128.509 52.9468L124.735 52.7705L124.654 54.5105L127.257 54.6325C127.424 54.6407 127.581 54.7147 127.694 54.8384C127.806 54.962 127.865 55.1253 127.858 55.2924C127.85 55.4594 127.776 55.6164 127.652 55.7291C127.529 55.8417 127.365 55.9008 127.198 55.8934L124.595 55.7714L124.478 58.3475L128.247 58.5237C128.414 58.5319 128.571 58.606 128.683 58.7296C128.796 58.8532 128.855 59.0165 128.848 59.1836Z" fill="#EF5A38"/>
<path d="M139.45 58.0222C139.289 58.7296 138.871 59.3521 138.278 59.7694C137.684 60.1868 136.957 60.3693 136.237 60.2819L134.542 60.1689H134.47H134.398C134.23 60.1573 134.075 60.0799 133.965 59.9537C133.855 59.8274 133.799 59.6627 133.81 59.4955L134.262 52.6712C134.274 52.5041 134.351 52.3484 134.477 52.2382C134.604 52.1281 134.768 52.0725 134.935 52.0837H135.008H135.08L136.811 52.2012C137.527 52.211 138.213 52.4866 138.737 52.9744C139.261 53.4622 139.584 54.1274 139.645 54.8405C139.743 55.9048 139.678 56.9778 139.45 58.0222ZM138.402 55.0077C138.381 54.5822 138.195 54.1815 137.884 53.8905C137.572 53.5995 137.16 53.441 136.734 53.4486L135.487 53.3627L135.112 58.9306L136.323 59.0119C136.744 59.0765 137.174 58.9797 137.527 58.7409C137.879 58.5021 138.129 58.1389 138.226 57.7239C138.417 56.8321 138.477 55.9169 138.402 55.0077Z" fill="#EF5A38"/>
<path d="M141.552 60.6573C141.469 60.651 141.389 60.6284 141.315 60.5909C141.241 60.5534 141.175 60.5017 141.122 60.4387C141.068 60.3757 141.027 60.3026 141.002 60.2238C140.976 60.145 140.967 60.0619 140.973 59.9794L141.498 53.1551C141.504 53.0725 141.526 52.9919 141.564 52.9181C141.602 52.8443 141.653 52.7786 141.716 52.7248C141.779 52.671 141.852 52.6303 141.931 52.6048C142.01 52.5794 142.093 52.5698 142.176 52.5766C142.342 52.5893 142.496 52.6673 142.604 52.7936C142.713 52.9198 142.767 53.084 142.754 53.25L142.23 60.0743C142.217 60.2414 142.139 60.3967 142.011 60.506C141.884 60.6153 141.719 60.6697 141.552 60.6573Z" fill="#EF5A38"/>
<path d="M150.347 57.2722C150.161 59.1025 149.443 61.2492 146.989 61.0775C145.14 60.9464 143.767 59.0257 143.925 56.7977C144.083 54.5696 145.732 52.8658 147.54 52.9968C148.223 53.0449 148.868 53.3299 149.363 53.8028C149.858 54.2756 150.172 54.9064 150.252 55.5864C150.27 55.753 150.221 55.9198 150.115 56.0503C150.01 56.1808 149.858 56.2642 149.691 56.2824C149.525 56.3002 149.358 56.2511 149.228 56.1461C149.097 56.041 149.014 55.8886 148.995 55.722C148.948 55.3327 148.766 54.9723 148.48 54.7038C148.194 54.4353 147.823 54.2758 147.432 54.2532C146.279 54.1719 145.253 55.3514 145.145 56.888C145.036 58.4246 145.886 59.7353 147.039 59.8211C147.49 59.8528 148.566 59.9251 148.959 57.7919L147.052 57.6563C146.97 57.6506 146.889 57.6286 146.815 57.5916C146.741 57.5547 146.675 57.5034 146.621 57.4408C146.566 57.3782 146.525 57.3056 146.499 57.227C146.473 57.1484 146.463 57.0655 146.469 56.9829C146.481 56.8158 146.558 56.6601 146.684 56.55C146.811 56.4398 146.975 56.3843 147.142 56.3954L149.723 56.5807H149.777H149.841L149.895 56.6033L149.954 56.6304C149.972 56.6382 149.988 56.6489 150.003 56.6621L150.057 56.6982L150.098 56.7344L150.143 56.7796L150.175 56.8293C150.19 56.8455 150.202 56.8638 150.211 56.8835C150.221 56.8987 150.229 56.9155 150.234 56.9332L150.261 56.992V57.0507V57.114V57.1727C150.263 57.1923 150.263 57.212 150.261 57.2315L150.347 57.2722Z" fill="#EF5A38"/>
<path d="M152.376 61.3532C152.209 61.3484 152.05 61.2778 151.935 61.1567C151.82 61.0357 151.757 60.874 151.761 60.7069L151.964 53.8645C151.97 53.6975 152.042 53.5396 152.164 53.4253C152.286 53.311 152.448 53.2495 152.615 53.2544C152.698 53.2568 152.779 53.2753 152.854 53.3091C152.93 53.3428 152.998 53.3911 153.054 53.4511C153.111 53.5111 153.155 53.5817 153.184 53.6589C153.214 53.736 153.228 53.8182 153.225 53.9007L153.022 60.7431C153.02 60.8258 153.002 60.9073 152.968 60.9829C152.935 61.0585 152.887 61.1266 152.827 61.1834C152.766 61.2402 152.696 61.2844 152.618 61.3136C152.541 61.3427 152.458 61.3562 152.376 61.3532Z" fill="#EF5A38"/>
<path d="M160.728 53.9049C160.729 53.9877 160.715 54.0702 160.685 54.1474C160.654 54.2246 160.609 54.295 160.552 54.3547C160.494 54.4143 160.425 54.462 160.349 54.4949C160.273 54.5279 160.191 54.5454 160.108 54.5466L158.093 54.5873L158.206 60.7969C158.208 60.8798 158.193 60.9622 158.163 61.0394C158.133 61.1166 158.087 61.1871 158.03 61.2467C157.972 61.3064 157.903 61.3541 157.827 61.387C157.751 61.42 157.669 61.4375 157.587 61.4387C157.42 61.4411 157.258 61.3774 157.138 61.2614C157.018 61.1454 156.948 60.9866 156.945 60.8195L156.832 54.6099L154.812 54.6461C154.729 54.6479 154.646 54.6332 154.569 54.603C154.492 54.5728 154.422 54.5276 154.362 54.4701C154.302 54.4125 154.255 54.3437 154.222 54.2677C154.189 54.1916 154.171 54.1098 154.17 54.0269C154.168 53.944 154.183 53.8616 154.213 53.7844C154.243 53.7072 154.288 53.6367 154.346 53.5771C154.403 53.5174 154.472 53.4698 154.548 53.4368C154.624 53.4039 154.706 53.3863 154.789 53.3851L160.086 53.2857C160.253 53.2833 160.414 53.347 160.534 53.463C160.655 53.579 160.724 53.7378 160.728 53.9049Z" fill="#EF5A38"/>
<path d="M167.208 60.6705C167.061 60.7491 166.888 60.7661 166.728 60.7179C166.568 60.6696 166.434 60.56 166.354 60.4129L165.364 58.569L162.449 58.8537L161.835 60.8558C161.8 60.9768 161.73 61.0846 161.633 61.1652C161.536 61.2457 161.418 61.2954 161.293 61.3077C161.21 61.3164 161.127 61.3072 161.048 61.2806C160.969 61.2569 160.895 61.2176 160.831 61.1651C160.767 61.1127 160.714 61.048 160.675 60.9749C160.636 60.9018 160.611 60.8217 160.603 60.7392C160.595 60.6567 160.604 60.5735 160.628 60.4943L161.365 58.0899L162.802 53.4078C162.836 53.2875 162.906 53.1802 163.002 53.0997C163.098 53.0191 163.215 52.9691 163.34 52.9559C163.464 52.9443 163.589 52.9693 163.699 53.028C163.809 53.0866 163.899 53.1763 163.959 53.2858L166.273 57.5973L167.466 59.8118C167.506 59.8851 167.53 59.9654 167.539 60.0483C167.547 60.1312 167.539 60.2149 167.516 60.2947C167.492 60.3744 167.452 60.4487 167.399 60.5132C167.347 60.5777 167.282 60.6311 167.208 60.6705ZM164.718 57.3668L163.561 55.2156L162.847 57.5476L164.718 57.3668Z" fill="#EF5A38"/>
<path d="M174.706 58.1893C174.746 58.3505 174.721 58.5209 174.637 58.6637C174.552 58.8066 174.415 58.9105 174.254 58.9531L169.974 59.9926C169.813 60.0325 169.643 60.0075 169.5 59.923C169.357 59.8384 169.253 59.7011 169.211 59.5406L167.597 52.8926C167.557 52.7315 167.582 52.5611 167.667 52.4182C167.751 52.2753 167.889 52.1714 168.049 52.1288C168.21 52.089 168.379 52.1141 168.522 52.1987C168.664 52.2834 168.767 52.4206 168.808 52.5808L170.273 58.6141L173.942 57.7103C174.024 57.6903 174.109 57.6869 174.192 57.7003C174.275 57.7137 174.354 57.7436 174.426 57.7883C174.497 57.8329 174.558 57.8915 174.607 57.9603C174.655 58.0292 174.689 58.1071 174.706 58.1893Z" fill="#EF5A38"/>
<path d="M181.82 54.9262C181.859 54.9985 181.885 55.0781 181.894 55.1602C181.903 55.2423 181.896 55.3255 181.873 55.4048C181.849 55.4842 181.811 55.5582 181.759 55.6226C181.707 55.687 181.643 55.7406 181.571 55.7803L177.702 57.8909C177.63 57.9308 177.55 57.956 177.468 57.9651C177.386 57.9741 177.303 57.9669 177.224 57.9438C177.144 57.9208 177.07 57.8822 177.006 57.8305C176.942 57.7787 176.888 57.7148 176.848 57.6423L173.567 51.636C173.488 51.4884 173.47 51.3155 173.518 51.1548C173.565 50.9941 173.674 50.8585 173.82 50.7774L177.689 48.6668C177.761 48.6271 177.841 48.6021 177.924 48.5934C178.006 48.5846 178.089 48.5922 178.169 48.6157C178.248 48.6392 178.322 48.6782 178.386 48.7304C178.45 48.7826 178.504 48.847 178.543 48.9199C178.583 48.9925 178.608 49.0723 178.616 49.1546C178.625 49.237 178.618 49.3202 178.594 49.3996C178.571 49.479 178.532 49.5529 178.479 49.6172C178.427 49.6814 178.363 49.7347 178.29 49.774L174.977 51.5818L175.813 53.1139L178.1 51.8665C178.247 51.7872 178.418 51.7688 178.578 51.8153C178.738 51.8619 178.873 51.9696 178.954 52.1151C178.994 52.1881 179.019 52.2682 179.028 52.3509C179.037 52.4335 179.029 52.5171 179.006 52.5969C178.982 52.6766 178.943 52.751 178.891 52.8156C178.839 52.8803 178.774 52.934 178.701 52.9738L176.441 54.2211L177.675 56.4808L180.988 54.6731C181.133 54.5999 181.3 54.5854 181.455 54.6326C181.61 54.6797 181.74 54.7849 181.82 54.9262Z" fill="#EF5A38"/>
</svg>
