<svg width="438" height="139" viewBox="0 0 438 139" fill="none" xmlns="http://www.w3.org/2000/svg">
<g clip-path="url(#clip0_16_880)">
<path d="M77.5314 85.7736H75.9629C74.8262 87.0665 73.6213 88.4505 71.9846 90.3301C71.0866 93.8102 72.5017 97.6491 74.4227 100.964C71.9959 106.221 66.6536 107.303 62.9822 110.846C63.3175 112.634 62.34 114.662 63.9256 116.485C63.2209 120.688 59.0039 121.782 56.3384 124.054C53.4343 126.537 50.7745 129.277 48.092 131.493H43.9432C44.0966 130.746 44.0284 130.08 44.324 129.784C47.734 126.321 50.9393 122.556 55.5485 120.466C56.6851 119.959 57.4808 118.757 58.4697 117.869V109.462L69.9215 100.611C66.9889 97.4212 67.5743 93.1552 67.347 89.3505C64.636 88.1031 65.7954 92.392 63.5335 91.4067C60.7885 93.7818 58.1514 96.3049 55.2757 98.5034C50.9166 101.835 46.9269 105.686 41.9711 108.215C40.8714 108.807 39.8643 109.557 38.9817 110.441C35.6456 113.699 32.1617 116.86 29.1325 120.369C25.3929 124.669 20.5223 127.284 15.8563 130.245C12.5998 132.307 9.0364 133.822 6.08677 136.511C4.70573 137.764 2.79616 139.358 -0.00570679 137.821C0.835421 136.744 1.39238 135.542 2.33581 134.904C8.41693 130.752 14.0832 126.036 20.7212 122.636C23.8925 121.013 26.9729 118.848 28.8711 115.232C30.5022 112.145 33.3552 109.616 35.9695 107.166C38.3906 104.888 41.9938 104.279 44.324 101.744C47.0065 102.029 46.7792 98.8109 48.8706 98.0306C50.7859 97.3073 52.3772 95.6385 54.014 94.2716C58.8732 90.2163 63.6756 86.0641 68.5291 82.0145C69.8921 80.8611 71.6008 80.1975 73.3834 80.1294C75.166 80.0613 76.9202 80.5925 78.3669 81.6385C80.5597 83.2093 82.648 84.9216 84.6185 86.7646C86.2326 88.2512 87.6363 89.9656 89.3129 91.7711C93.0184 86.0755 99.0256 83.9624 103.862 80.3001C107.136 77.8225 110.682 75.6866 113.524 72.7021C116.665 69.4845 120.186 66.6633 124.009 64.301C126.254 62.8942 127.988 60.7412 130.261 59.135C133.802 56.6004 136.842 53.3825 140.167 50.5403C141.491 49.4012 143.009 48.5241 144.356 47.59C151.335 50.5518 155.722 56.2417 160.905 61.1912C163.179 58.1212 166.918 56.3385 168.339 52.5224C170.476 52.0952 171.425 50.0733 173.051 49.0082C175.142 47.6413 176.239 45.38 178.114 43.9162C180.183 42.2987 182.536 41.0684 184.656 39.4964C186.685 38.0155 188.52 36.2613 190.555 34.7918C192.59 33.3223 194.988 32.4452 196.665 30.7422C201.825 25.5079 209.202 22.7 212.845 15.8368C219.318 11.7985 223.507 5.25424 229.537 0.458496C233.396 3.53415 238.244 5.01502 241.87 8.43241C243.177 9.67976 244.711 10.7107 245.962 11.9922C246.984 13.0459 248.803 13.0344 249.212 15.0393C249.428 16.1101 250.917 16.9074 251.855 17.8415C254.867 20.9252 257.6 24.2703 260.022 27.8374C262.335 31.2263 265.495 34.2793 268.689 37.1556C272.775 40.8463 277.697 43.7511 280.311 49.048C282.397 46.69 284.67 45.4711 287.08 44.1839C293.019 41.0114 298.867 37.5942 303.533 32.4966C305.704 30.1272 308.279 28.128 311.012 25.6618C313.428 27.6382 315.457 29.3411 317.526 30.9871C320.327 33.2084 323.158 35.3899 325.977 37.5884C326.545 38.0327 327.142 38.4313 327.682 38.9211C333.729 44.5883 339.753 50.3125 345.811 55.9455C350.506 60.3312 355.217 64.6997 360.02 68.9942C361.11 69.8724 362.305 70.611 363.577 71.1928C364.64 71.7624 366.112 71.8364 366.851 72.6452C369.63 75.6696 373.057 76.034 375.944 75.698C380.121 74.1887 383.259 72.3775 386.606 70.9479C390.272 69.3873 392.482 70.5434 394.727 72.5255C397.938 75.3733 400.774 78.6142 403.883 81.5703C406.515 84.065 408.879 86.7875 412.027 88.8322C415.659 91.1959 417.983 95.0974 419.66 99.0274C420.619 101.323 422.068 103.379 423.905 105.053C427.401 108.271 430.242 112.139 434.425 114.736C436.028 115.721 436.824 118.034 438 119.76C435.443 121.628 433.738 119.845 432.317 118.974C429.874 117.429 427.631 115.589 425.639 113.494C421.378 109.145 417.648 104.304 414.528 99.073C413.981 97.9755 413.312 96.9437 412.533 95.9974C409.038 92.3693 405.509 88.7696 401.86 85.2952C399.371 82.9258 396.614 80.8298 394.074 78.5059C393.335 77.8281 392.937 76.7973 392.323 75.8404C391.755 76.9454 391.187 78.1187 390.488 79.4572C391.579 81.9975 392.397 84.4807 395.398 85.9217C397.969 87.2204 400.244 89.0374 402.082 91.2586C403.582 93.0356 404.275 95.536 405.173 97.7744C405.644 99.1877 406.023 100.63 406.31 102.092L403.673 104.49C402.724 100.93 399.382 99.2724 399.626 95.6784C398.279 92.9331 395.284 91.8224 393.528 89.3676C391.772 86.9128 389.379 85.1129 387.311 83.0681V76.2334C385.174 74.5873 383.702 76.7574 381.974 77.2301C380.343 77.6801 378.814 78.5059 377.064 79.2407C380.03 83.4782 382.457 87.619 385.555 91.2016C388.811 94.9379 392.659 98.1674 396.353 101.522C399.763 104.638 404.542 105.965 408.515 110.174L402.945 110.533C399.689 108.254 396.955 106.301 394.142 104.45C387.799 100.275 382.775 94.6532 378.553 88.5588C375.242 83.6375 370.712 79.663 365.407 77.0251C360.025 74.3937 355.24 71.2783 351.119 66.961C346.607 62.245 342.026 57.5517 337.269 53.1091C331.018 47.2824 324.505 41.6893 318.048 36.062C316.861 35.0311 315.394 34.3532 313.706 33.2426C311.848 37.1897 310.075 41.2507 310.137 45.9952C310.188 49.9822 312.763 52.6021 314.968 55.1765C319.898 60.9181 325.901 65.6391 332.637 69.074C333.893 69.7233 334.911 70.8738 335.934 71.7338C335.695 73.8469 336.536 75.9827 334.894 77.5035C335.331 79.2748 335.746 80.978 336.36 83.4784C339.281 85.7566 341.736 89.6865 345.823 92.0901C347.528 93.1039 348.903 95.5075 347.761 98.4407C347.088 98.1766 346.442 97.8466 345.834 97.4554C343.458 95.5132 341.231 93.3603 338.747 91.5662C335.093 88.9234 330.79 82.8689 330.37 78.8819C330.267 77.9421 330.91 76.9169 331.364 75.4189C331.171 73.6704 329.307 72.6907 327.71 71.4662C324.448 68.9715 320.975 66.6989 318.02 63.8795C314.606 60.5767 311.441 57.0243 308.552 53.2515C307.227 51.5428 306.756 49.1733 305.875 47.0545C308.375 45.175 305.875 42.0025 307.54 39.4964C308.79 37.6339 308.677 34.8374 309.393 31.1694C307.193 33.3679 305.767 34.6437 304.534 36.0847C303.368 37.4346 302.147 38.813 301.027 40.1287C299.907 41.4444 298.68 43.9448 296.014 43.455C293.224 46.3028 289.456 47.3565 286 48.9911C284.915 49.5037 283.778 49.9195 282.323 50.5175C284.233 53.2002 286.137 56.048 288.211 58.7534C293.269 65.3661 299.22 71.1757 305.261 76.8485C307.358 78.8135 310.285 79.9071 312.86 81.3595C315.133 82.6296 317.406 83.8485 320.021 85.2781V88.9746C319.543 89.0714 319.105 89.3106 318.884 89.1853C313.667 86.4001 308.125 84.0992 303.607 80.2034C300.004 77.0992 295.202 75.2766 293.133 70.4808C292.86 69.8429 292.127 69.3929 291.587 68.886C288.191 65.6562 285.255 61.9725 282.863 57.939C282.213 57.05 281.478 56.226 280.669 55.4784L278.885 57.2726C278.885 58.7023 278.998 60.2002 278.885 61.6754C278.237 68.6753 281.158 74.1317 285.932 78.9445C288.199 81.2363 290.275 83.7109 292.138 86.3431C292.806 87.277 293.23 88.3635 293.372 89.5034C293.514 90.6434 293.369 91.8008 292.951 92.8705C291.871 92.1471 290.519 91.7314 290.308 91.0194C288.995 86.5084 285.33 83.9397 282.289 80.9039C276.339 74.9633 273.668 67.6843 274.554 59.5566C274.924 56.1677 275.344 52.773 275.458 49.7714C272.525 44.1839 267.422 41.4216 262.989 37.8789C260.181 35.6405 258.505 32.3541 256.413 29.4493C254.568 26.7799 252.51 24.2656 250.258 21.9311C245.836 17.5283 241.892 12.5902 236.522 9.22405C235.516 8.58613 234.453 8.04505 233.487 7.51535C230.77 10.3632 232.208 13.4217 233.487 16.1784C235.192 19.7895 237.42 23.1329 239.329 26.6471C240.989 29.6829 242.625 32.7415 244.006 35.9082C244.342 36.6715 243.677 37.9131 243.387 38.9042C242.947 40.3065 242.216 41.5996 241.241 42.6981C240.266 43.7967 239.07 44.6758 237.732 45.2776C232.788 47.4875 229.065 50.9733 225.138 54.9944C226.356 56.0978 227.662 57.0998 229.042 57.9903C231.81 59.6193 234.157 61.9772 236.55 64.2156C238.943 66.454 241.341 68.9202 243.677 71.3295C247.795 75.6785 252.396 79.5406 257.391 82.8404C259.198 84.0137 259.556 85.2155 259.454 88.0292C256.834 88.0292 255.515 85.9103 253.606 84.7654C251.162 83.3074 248.582 82.0772 246.712 79.8901C244.842 77.7029 242.591 76.2334 240.716 74.1374C236.584 69.5296 231.861 65.4572 227.496 61.2823H221.626C212.782 64.6484 205.792 70.9649 198.284 77.1162L195.949 75.1284C203.706 67.9918 211.117 60.6273 221.523 56.6233C221.603 55.9398 221.728 55.0855 221.813 54.2311C222.086 51.3377 223.689 49.2702 225.973 47.6982C229.014 45.6136 231.969 43.3467 235.226 41.6722C237.164 40.6691 238.704 39.0338 239.591 37.036C238.886 31.608 235.413 27.6951 232.702 23.5145C230.882 20.9052 229.802 17.8504 229.577 14.6748C229.423 12.2428 228.667 9.85056 228.133 7.22487C226.212 8.8823 225.11 11.0239 223.075 12.3852C221.04 13.7464 219.591 15.7341 217.88 17.4485C216.033 19.2996 214.408 21.4697 212.288 22.9107C209.884 24.5511 208.071 26.7723 205.82 28.5494C203.439 30.4232 200.796 31.8756 198.432 33.6754C196.068 35.4753 193.584 37.1954 191.044 38.8357C188.202 40.6925 185.781 43.2612 183.144 45.4768C181.217 47.0944 179.251 48.6665 177.285 50.2328C175.46 51.6795 174.392 53.9805 171.846 54.6811C171.32 54.8894 170.842 55.2021 170.441 55.6005C170.04 55.9989 169.723 56.4747 169.51 56.9991C168.18 60.4735 165.071 62.3246 162.69 64.7681C160.417 67.0805 158.677 70.1106 155.302 71.1928C154.932 73.4198 152.676 73.7501 151.363 75.0203C146.877 79.3527 142.296 83.5865 137.621 87.7216C132.603 92.1642 127.465 96.4758 122.333 100.787C121.554 101.442 120.503 101.773 119.15 102.496L117.803 100.73C117.843 100.372 117.752 99.8875 117.951 99.6825C121.855 95.6604 126.174 92.0652 130.835 88.9575C131.12 88.716 131.386 88.4533 131.631 88.1716C136.348 83.8144 141.048 79.4286 145.799 75.1056C149.448 71.7851 153.187 68.5386 156.768 65.3376C157.797 62.1538 154.87 60.7811 153.801 58.7249C152.733 56.6688 150.448 55.6037 147.942 55.4727C146.328 56.5606 144.231 57.3125 143.264 58.8104C142.298 60.3084 140.639 60.9064 139.656 62.2278C138.519 63.76 137.524 65.3946 136.518 66.9039L139.241 73.1179C137.831 76.5352 134.842 77.2586 132.347 78.3635C131.316 78.8276 130.39 79.4973 129.626 80.3316C128.862 81.1659 128.276 82.1473 127.902 83.2162C126.351 87.0095 124.1 89.2935 120.753 91.4806C118.957 92.6482 117.485 92.5799 115.132 92.0787C115.854 91.287 116.223 90.5865 116.803 90.2903C121.827 87.733 125.095 83.8827 125.896 77.8738L133.654 73.8868C133.341 71.9218 132.989 69.6834 132.455 66.323L137.001 59.5167L136.388 58.9471C132.836 61.6924 129.204 64.3466 125.743 67.2058C122.373 69.991 119.332 73.1862 115.877 75.8461C110.409 80.0609 104.817 84.1333 99.0825 87.9722C95.5475 90.3359 92.7343 93.0983 90.9156 96.9713C88.9662 101.135 87.4602 105.783 83.3852 108.363C79.5717 110.766 76.9063 114.269 73.7691 116.974H70.6319C71.7686 112.845 74.3204 110.231 77.5371 108.226C81.6632 105.652 84.215 101.795 86.3235 97.6092C86.7668 96.7263 86.386 95.4221 86.386 94.6874L77.5314 85.7736Z" fill="#AB6F4B"/>
<path d="M111.074 96.6694C108.346 98.9477 105.789 101.226 103.067 103.242C102.367 103.772 101.151 103.612 99.1678 103.926C102.055 99.2553 105.01 96.2536 109.312 94.5279L111.074 96.6694Z" fill="#AB6F4B"/>
<path d="M172.897 95.2227C175.114 91.2016 175.114 91.2016 179.785 89.1113L181.627 90.8713L174.443 97.3643L172.897 95.2227Z" fill="#AB6F4B"/>
<path d="M265.643 89.4701L261.096 87.7614V84.942H268.808C268.791 87.3969 266.797 87.9664 265.643 89.4701Z" fill="#AB6F4B"/>
<path d="M86.0621 114.337C87.1419 110.459 88.1876 107.987 92.0523 107.503C92.1603 107.634 92.7115 108.266 93.3992 109.063C92.1773 111.888 89.688 112.953 86.0621 114.337Z" fill="#AB6F4B"/>
<path d="M187.367 87.0381V82.7208L191.402 79.0471L194.346 79.3774C192.681 82.4302 190.407 84.1106 187.367 87.0381Z" fill="#AB6F4B"/>
</g>
<defs>
<clipPath id="clip0_16_880">
<rect width="438" height="138" fill="white" transform="translate(0 0.441345)"/>
</clipPath>
</defs>
</svg>
