<svg width="478" height="120" viewBox="0 0 478 120" fill="none" xmlns="http://www.w3.org/2000/svg">
<g clip-path="url(#clip0_16_852)">
<path d="M320.484 48.8729C320.956 49.8243 321.114 50.9011 320.934 51.9479C320.853 52.4461 320.656 52.9183 320.359 53.3261C320.062 53.734 319.673 54.0661 319.224 54.2954L318.256 54.7529L319.231 55.2179C319.681 55.445 320.07 55.7755 320.368 56.1823C320.665 56.5891 320.861 57.0605 320.941 57.5579C321.121 58.6071 320.963 59.6862 320.491 60.6404C320.181 61.3975 319.666 62.053 319.003 62.5328C318.341 63.0125 317.557 63.2974 316.741 63.3554C316.311 63.3581 315.885 63.2632 315.496 63.0779L308.146 59.5754H308.094C306.121 60.5204 305.296 60.9104 304.494 61.2854C303.691 61.6604 302.859 62.0354 300.804 63.0479C300.413 63.2342 299.984 63.3291 299.551 63.3254C298.736 63.2649 297.953 62.979 297.291 62.4995C296.629 62.0201 296.113 61.3661 295.801 60.6104C295.332 59.6556 295.177 58.5763 295.359 57.5279C295.439 57.0304 295.635 56.559 295.932 56.1523C296.23 55.7455 296.619 55.415 297.069 55.1879L298.029 54.7229L297.069 54.2654C296.619 54.036 296.23 53.704 295.933 53.2961C295.636 52.8882 295.439 52.416 295.359 51.9179C295.176 50.8719 295.331 49.7949 295.801 48.8429C296.253 47.8898 296.993 47.1027 297.916 46.5929C298.352 46.3402 298.842 46.1949 299.346 46.1688C299.849 46.1427 300.351 46.2367 300.811 46.4429L308.154 49.9379L315.504 46.4429C315.964 46.2367 316.466 46.1427 316.969 46.1688C317.473 46.1949 317.963 46.3402 318.399 46.5929C319.318 47.1126 320.048 47.9111 320.484 48.8729ZM318.399 52.5553C319.149 52.2028 319.299 50.8904 318.759 49.7279L314.491 51.7604C314.363 51.8245 314.222 51.8579 314.079 51.8579C313.896 51.8578 313.717 51.8055 313.563 51.7072C313.409 51.6089 313.286 51.4686 313.209 51.3029C313.154 51.1887 313.123 51.0649 313.116 50.9385C313.11 50.8121 313.128 50.6856 313.171 50.5665C313.213 50.4473 313.279 50.3377 313.364 50.244C313.449 50.1503 313.552 50.0743 313.666 50.0204L317.416 48.2428C317.251 48.1527 317.068 48.0993 316.881 48.0864C316.693 48.0734 316.505 48.1012 316.329 48.1679L310.396 50.9954L316.036 53.6879L316.996 53.2304L318.399 52.5553ZM318.751 59.8079C319.306 58.6454 319.141 57.3104 318.399 56.9504C318.265 56.889 318.119 56.8582 317.971 56.8604C317.523 56.9304 317.1 57.1168 316.746 57.401C316.392 57.6853 316.119 58.0574 315.954 58.4804C315.399 59.6504 315.564 60.9854 316.306 61.3379C316.438 61.3985 316.581 61.4292 316.726 61.4279C317.177 61.3614 317.602 61.1763 317.958 60.8917C318.314 60.607 318.587 60.233 318.751 59.8079ZM315.751 55.7054L299.934 48.1679C299.76 48.101 299.574 48.0731 299.389 48.086C299.204 48.099 299.024 48.1525 298.861 48.2428L305.454 51.5204C305.567 51.577 305.667 51.6551 305.75 51.7506C305.832 51.8461 305.895 51.9569 305.935 52.0767C305.975 52.1965 305.99 52.323 305.981 52.4489C305.972 52.5748 305.938 52.6977 305.881 52.8104C305.801 52.9708 305.678 53.1057 305.526 53.1998C305.374 53.2939 305.198 53.3434 305.019 53.3429C304.87 53.3438 304.723 53.3077 304.591 53.2379L297.481 49.7054C297.194 50.2857 297.094 50.941 297.196 51.5804C297.222 51.7815 297.293 51.9741 297.405 52.1432C297.517 52.3123 297.666 52.4533 297.841 52.5553L313.666 60.0553C313.651 59.8356 313.651 59.6152 313.666 59.3954L307.666 56.5379C307.436 56.4275 307.259 56.2309 307.174 55.9908C307.088 55.7506 307.101 55.4863 307.209 55.2554C307.321 55.025 307.519 54.8478 307.76 54.7622C308.001 54.6766 308.267 54.6895 308.499 54.7979L314.214 57.5204C314.593 56.7983 315.138 56.1762 315.804 55.7054H315.751ZM305.866 58.5104L301.014 56.2004C301.427 56.6263 301.767 57.118 302.019 57.6554C302.388 58.4135 302.565 59.2503 302.536 60.0929L303.631 59.5754C304.246 59.2979 304.846 59.0204 305.896 58.5104H305.866ZM300.571 60.3629C300.674 59.7202 300.572 59.0616 300.279 58.4804C300.116 58.0562 299.843 57.6829 299.488 57.3983C299.134 57.1137 298.711 56.9282 298.261 56.8604C298.116 56.8591 297.973 56.8898 297.841 56.9504C297.668 57.0542 297.519 57.1957 297.408 57.3644C297.296 57.5332 297.224 57.7249 297.196 57.9254C297.093 58.568 297.195 59.2268 297.489 59.8079C297.651 60.2325 297.924 60.6063 298.278 60.8909C298.633 61.1756 299.057 61.3609 299.506 61.4279C299.653 61.4284 299.799 61.3978 299.934 61.3379C300.113 61.2384 300.267 61.0985 300.383 60.9292C300.498 60.76 300.573 60.5661 300.601 60.3629H300.571Z" fill="#AB6F4B"/>
<path d="M319.606 30.288C321.009 33.6405 321.204 36.7305 320.176 39.4905C319.66 40.8758 318.926 42.1696 318.001 43.323V43.3679C317.049 44.5904 316.036 45.7154 315.069 45.7154C314.861 45.7169 314.656 45.6662 314.472 45.5679C314.289 45.4697 314.133 45.327 314.019 45.1529C312.849 43.3904 312.339 42.4304 312.361 39.2654C312.222 39.6281 312.104 39.9987 312.009 40.3754C311.829 41.0054 311.634 41.7105 310.884 41.823C310.814 41.8304 310.744 41.8304 310.674 41.823C310.448 41.8201 310.226 41.7643 310.025 41.6601C309.824 41.5559 309.651 41.4062 309.519 41.2229C309.159 40.7579 308.686 39.7229 308.769 36.3404C308.769 35.8754 308.769 35.403 308.814 34.9455C308.627 35.2987 308.471 35.6677 308.349 36.048C307.96 37.4128 307.749 38.8218 307.719 40.2405C307.709 40.4509 307.63 40.6523 307.495 40.8136C307.359 40.9749 307.174 41.0871 306.969 41.1329C306.766 41.1833 306.552 41.165 306.361 41.0808C306.169 40.9967 306.011 40.8515 305.911 40.6679C305.47 40.0457 304.939 39.4922 304.336 39.0255L304.171 38.8904C304.723 40.1644 304.907 41.5672 304.704 42.9405C304.377 44.0593 303.771 45.0764 302.941 45.8955C302.733 46.0341 302.487 46.1071 302.236 46.1054C301.831 46.1054 301.194 45.9554 299.829 44.7929C299.267 44.3385 298.745 43.8367 298.269 43.2929C297.188 41.8559 296.568 40.1247 296.491 38.3279C296.394 35.8904 297.354 33.828 298.276 31.773C299.035 30.3414 299.567 28.8005 299.851 27.2055C299.877 27.0143 299.958 26.8349 300.085 26.6895C300.211 26.5442 300.378 26.4393 300.564 26.388C300.75 26.3416 300.946 26.351 301.128 26.415C301.309 26.479 301.468 26.5948 301.584 26.748C302.275 27.8689 302.755 29.1067 303.001 30.4005C305.131 26.943 305.146 22.413 304.921 19.788C304.901 19.6274 304.916 19.4643 304.965 19.3102C305.014 19.156 305.097 19.0145 305.206 18.8955C305.311 18.7804 305.438 18.6888 305.58 18.6268C305.722 18.5647 305.876 18.5336 306.031 18.5355C306.436 18.5355 307.029 18.6705 308.896 20.2455C309.636 20.843 310.328 21.4975 310.966 22.2029C311.965 23.5407 312.827 24.9754 313.539 26.4855C313.603 25.9106 313.583 25.3294 313.479 24.7605C313.446 24.5511 313.483 24.3368 313.583 24.15C313.683 23.9633 313.841 23.8142 314.034 23.7255C314.202 23.6518 314.383 23.6135 314.566 23.6129C315.639 23.6129 316.636 24.8955 317.806 26.8305C318.469 27.9491 319.07 29.1033 319.606 30.288ZM318.376 38.823C319.224 36.573 319.036 33.918 317.829 31.038C317.361 30.0313 316.84 29.0499 316.269 28.098C315.931 27.513 315.639 27.063 315.391 26.7105C315.261 27.8256 314.789 28.8733 314.041 29.7105C313.921 29.843 313.766 29.9397 313.594 29.99C313.422 30.0402 313.239 30.0421 313.066 29.9955C312.893 29.947 312.736 29.8512 312.614 29.7187C312.493 29.5862 312.41 29.4223 312.376 29.2455C311.956 27.123 310.749 25.2855 309.376 23.2455C308.602 22.4576 307.775 21.7234 306.901 21.048C307.014 24.573 306.489 29.748 303.151 33.273C303.027 33.4044 302.868 33.4981 302.693 33.5432C302.518 33.5883 302.334 33.583 302.161 33.528C301.993 33.4756 301.843 33.3779 301.726 33.2456C301.61 33.1133 301.532 32.9515 301.501 32.778C301.38 31.9394 301.212 31.1081 300.999 30.288C300.706 31.038 300.369 31.788 300.031 32.538C299.161 34.4355 298.336 36.228 298.419 38.2005C298.479 39.6116 298.965 40.9713 299.814 42.1005C300.486 42.8355 301.241 43.4899 302.064 44.0504C302.379 43.5859 302.631 43.0815 302.814 42.5504C303.159 40.8104 302.011 38.6804 301.456 37.6529C301.404 37.5554 301.351 37.4654 301.314 37.3829C301.229 37.2373 301.184 37.0716 301.184 36.9029C301.184 36.7343 301.229 36.5687 301.314 36.423C301.404 36.2804 301.529 36.1634 301.678 36.0833C301.826 36.0031 301.993 35.9625 302.161 35.9654C303.411 36.13 304.583 36.6686 305.521 37.5105L305.949 37.878C306.05 37.0482 306.228 36.2296 306.481 35.433C306.694 34.6137 307.081 33.85 307.615 33.1938C308.15 32.5376 308.82 32.0044 309.579 31.6305C309.745 31.5574 309.928 31.5327 310.107 31.5593C310.286 31.5858 310.454 31.6625 310.591 31.7805C310.731 31.8966 310.834 32.0499 310.89 32.2224C310.946 32.395 310.951 32.5798 310.906 32.7555C310.747 33.9564 310.664 35.1664 310.659 36.378C310.659 37.128 310.659 37.7354 310.696 38.2379L310.801 38.0279C311.289 37.0699 312.058 36.2845 313.006 35.7779C313.159 35.7073 313.327 35.6765 313.495 35.6883C313.663 35.7001 313.825 35.7542 313.966 35.8455C314.106 35.9398 314.218 36.0691 314.292 36.2205C314.365 36.3719 314.398 36.54 314.386 36.708C314.116 41.163 314.386 42.0705 315.271 43.458C315.71 43.0359 316.113 42.5794 316.479 42.093L316.524 42.033C317.303 41.0619 317.928 39.9767 318.376 38.8155V38.823Z" fill="#AB6F4B"/>
<path d="M169.764 46.3979C171.309 48.3749 172.148 50.8115 172.149 53.3203C172.159 56.1449 171.106 58.8701 169.2 60.9543C167.294 63.0385 164.673 64.3293 161.859 64.5703V68.9653C161.86 69.092 161.836 69.2177 161.788 69.335C161.74 69.4524 161.67 69.5591 161.58 69.649C161.491 69.739 161.385 69.8104 161.268 69.8591C161.151 69.9078 161.025 69.9329 160.899 69.9329C160.642 69.9329 160.396 69.8309 160.215 69.6495C160.033 69.4681 159.931 69.2219 159.931 68.9653V64.5703C157.118 64.3275 154.5 63.036 152.595 60.9519C150.69 58.8679 149.638 56.1437 149.649 53.3203C149.648 50.8123 150.484 48.3758 152.026 46.3979C151.981 45.9329 151.959 45.4604 151.959 44.9954C151.915 42.1665 152.809 39.4027 154.501 37.1354C155.231 36.112 156.189 35.2727 157.299 34.6842C158.41 34.0958 159.642 33.7743 160.899 33.7454C162.155 33.776 163.387 34.0983 164.497 34.6866C165.607 35.2749 166.566 36.1132 167.296 37.1354C168.983 39.405 169.874 42.1678 169.831 44.9954C169.831 45.4604 169.809 45.9329 169.764 46.3979ZM170.221 53.3203C170.218 51.1239 169.44 48.999 168.024 47.3203C167.937 47.2175 167.873 47.0977 167.835 46.9685C167.798 46.8393 167.788 46.7036 167.806 46.5703C167.873 46.048 167.905 45.5219 167.904 44.9954C167.904 39.8579 164.761 35.6729 160.899 35.6729C157.036 35.6729 153.886 39.8579 153.886 44.9954C153.885 45.5219 153.917 46.048 153.984 46.5703C154.002 46.7036 153.992 46.8393 153.955 46.9685C153.917 47.0977 153.853 47.2175 153.766 47.3203C152.35 48.999 151.572 51.1239 151.569 53.3203C151.571 55.6264 152.427 57.8502 153.971 59.5631C155.515 61.2761 157.638 62.357 159.931 62.5978V55.9829C158.692 55.7551 157.572 55.101 156.766 54.1338C155.959 53.1666 155.516 51.9474 155.514 50.6878C155.514 50.4332 155.615 50.1891 155.795 50.0091C155.975 49.829 156.219 49.7279 156.474 49.7279C156.601 49.7269 156.726 49.751 156.844 49.7988C156.961 49.8466 157.068 49.9172 157.158 50.0064C157.248 50.0957 157.319 50.2018 157.368 50.3188C157.416 50.4358 157.441 50.5611 157.441 50.6878C157.441 51.4366 157.683 52.1654 158.132 52.7645C158.581 53.3637 159.212 53.8009 159.931 54.0104V47.1929C159.931 47.0662 159.956 46.9407 160.005 46.8238C160.054 46.7068 160.125 46.6006 160.215 46.5114C160.305 46.4221 160.412 46.3515 160.529 46.3037C160.646 46.2559 160.772 46.2319 160.899 46.2329C161.025 46.2329 161.15 46.2577 161.266 46.3059C161.383 46.3542 161.488 46.4249 161.578 46.514C161.667 46.6032 161.738 46.709 161.786 46.8255C161.834 46.942 161.859 47.0668 161.859 47.1929V50.1929C162.579 49.9847 163.212 49.5481 163.663 48.9488C164.113 48.3495 164.357 47.6201 164.356 46.8704C164.356 46.6158 164.457 46.3716 164.637 46.1916C164.817 46.0116 165.062 45.9103 165.316 45.9103C165.572 45.9103 165.817 46.0113 165.998 46.1911C166.179 46.371 166.282 46.6151 166.284 46.8704C166.283 48.1323 165.84 49.354 165.031 50.3229C164.223 51.2918 163.1 51.9465 161.859 52.1729V57.8354C162.578 57.6276 163.21 57.192 163.66 56.5943C164.111 55.9965 164.355 55.2688 164.356 54.5204C164.355 54.3937 164.379 54.2681 164.427 54.1507C164.475 54.0334 164.546 53.9266 164.635 53.8367C164.724 53.7468 164.83 53.6754 164.947 53.6267C165.064 53.578 165.19 53.5529 165.316 53.5529C165.573 53.5529 165.819 53.6548 166 53.8362C166.182 54.0177 166.284 54.2638 166.284 54.5204C166.281 55.7811 165.837 57.001 165.029 57.9683C164.221 58.9356 163.099 59.5892 161.859 59.8154V62.6053C164.154 62.366 166.28 61.2844 167.824 59.5695C169.369 57.8547 170.223 55.6282 170.221 53.3203Z" fill="#AB6F4B"/>
<path d="M236.784 43.0379C236.783 43.8798 236.452 44.6879 235.861 45.2879C235.281 45.8825 234.494 46.2293 233.664 46.2554H229.164L232.861 52.8254C232.984 53.0488 233.014 53.3113 232.945 53.5566C232.876 53.8018 232.714 54.0105 232.494 54.1379C232.349 54.2193 232.187 54.2631 232.021 54.2654C231.85 54.2654 231.681 54.2195 231.534 54.1324C231.386 54.0454 231.264 53.9204 231.181 53.7704L228.106 48.3029L227.034 49.8629C226.945 49.992 226.826 50.0977 226.688 50.1709C226.549 50.244 226.395 50.2825 226.239 50.2829C226.067 50.2823 225.899 50.2356 225.751 50.1479L222.871 48.4303L221.559 49.9303C221.474 50.0298 221.369 50.1111 221.252 50.1691C221.135 50.2271 221.007 50.2607 220.876 50.2679C220.745 50.2729 220.614 50.2509 220.491 50.2032C220.369 50.1554 220.257 50.083 220.164 49.9904L219.226 49.0829L218.041 51.1604L223.291 60.4604C223.416 60.6825 223.448 60.9449 223.381 61.1906C223.314 61.4363 223.152 61.6456 222.931 61.7729C222.785 61.8552 222.619 61.8991 222.451 61.9004C222.282 61.8991 222.116 61.8534 221.97 61.7678C221.824 61.6823 221.703 61.5599 221.619 61.4129L211.209 43.0903L209.334 47.5304C209.269 47.6832 209.166 47.8168 209.035 47.918C208.904 48.0192 208.748 48.0846 208.584 48.1079H208.449C208.305 48.108 208.163 48.0756 208.033 48.0133C207.903 47.951 207.789 47.8603 207.699 47.7479L205.051 44.4179L203.461 46.7354C203.381 46.8495 203.277 46.9452 203.157 47.0163C203.037 47.0874 202.903 47.1322 202.764 47.1479C202.627 47.1592 202.489 47.141 202.359 47.0944C202.23 47.0478 202.112 46.974 202.014 46.8779L200.589 45.4904L196.089 53.3504C196.026 53.4604 195.943 53.557 195.843 53.6348C195.744 53.7125 195.629 53.7697 195.507 53.8031C195.385 53.8366 195.258 53.8457 195.132 53.8298C195.007 53.8138 194.886 53.7732 194.776 53.7104C194.555 53.5831 194.394 53.3738 194.326 53.1281C194.259 52.8824 194.291 52.62 194.416 52.3979L200.079 42.4379H194.491C193.637 42.3904 192.833 42.0205 192.241 41.4028C191.623 40.7689 191.279 39.9181 191.281 39.0329C191.281 38.14 191.63 37.2824 192.254 36.6433C192.877 36.0042 193.726 35.6344 194.619 35.6129C194.827 35.0769 195.146 34.5912 195.556 34.1879C196.324 33.4325 197.359 33.0095 198.436 33.0104C199.132 33.0129 199.815 33.1909 200.424 33.5278C201.032 33.8648 201.545 34.3498 201.916 34.9379H202.209C202.858 34.9373 203.496 35.1052 204.061 35.4254L205.711 32.5229C205.796 32.3753 205.919 32.2526 206.066 32.1671C206.214 32.0816 206.381 32.0362 206.551 32.0354C206.722 32.0362 206.889 32.0816 207.036 32.1671C207.184 32.2526 207.306 32.3753 207.391 32.5229L216.879 49.2254L223.029 38.4104C223.112 38.2629 223.233 38.1401 223.379 38.0545C223.525 37.9689 223.692 37.9235 223.861 37.9229C224.031 37.9258 224.197 37.9729 224.343 38.0597C224.489 38.1465 224.61 38.27 224.694 38.4179L225.991 40.7204C226.368 40.5146 226.785 40.3942 227.214 40.3678C227.387 39.9513 227.642 39.5738 227.964 39.2579C228.619 38.612 229.503 38.2509 230.424 38.2529C230.999 38.2548 231.564 38.3972 232.071 38.6678C232.579 38.9384 233.012 39.3289 233.334 39.8053H233.476C233.907 39.7953 234.335 39.8716 234.736 40.0296C235.137 40.1875 235.502 40.4241 235.811 40.7253C236.119 41.0264 236.364 41.3861 236.531 41.7832C236.698 42.1804 236.784 42.607 236.784 43.0379ZM234.489 43.9529C234.727 43.7081 234.859 43.3794 234.856 43.0379C234.857 42.8669 234.824 42.6973 234.76 42.539C234.695 42.3807 234.6 42.2369 234.479 42.1156C234.358 41.9943 234.215 41.898 234.057 41.8323C233.899 41.7666 233.73 41.7329 233.559 41.7329C233.427 41.7339 233.295 41.7541 233.169 41.7929C232.934 41.8676 232.679 41.8484 232.458 41.7393C232.237 41.6302 232.067 41.4398 231.984 41.2079C231.868 40.9053 231.662 40.6453 231.393 40.463C231.125 40.2807 230.808 40.1847 230.484 40.1879C230.069 40.1858 229.67 40.3476 229.374 40.6379C229.128 40.8793 228.969 41.1961 228.924 41.5379C228.903 41.6729 228.855 41.802 228.781 41.917C228.707 42.032 228.61 42.1303 228.496 42.2054C228.386 42.2762 228.263 42.3234 228.134 42.344C228.005 42.3647 227.873 42.3584 227.746 42.3254C227.659 42.3139 227.571 42.3139 227.484 42.3254C227.313 42.3263 227.145 42.3691 226.994 42.4502C226.844 42.5313 226.716 42.6482 226.621 42.7904L226.569 42.9028V42.9404V42.9854C226.569 42.9854 226.569 43.0379 226.569 43.0679C226.569 43.0679 226.569 43.1129 226.569 43.1354V43.2554C226.567 43.5211 226.669 43.777 226.854 43.9679C227.034 44.1538 227.278 44.2639 227.536 44.2754H233.701C233.992 44.2616 234.269 44.1506 234.489 43.9604V43.9529ZM227.071 46.4429L226.944 46.2179H226.899H226.861H226.771H226.734H226.621L226.501 46.1803H226.411H226.374H226.291H226.216L226.134 46.1354L226.029 46.0679L225.946 46.0079L225.879 45.9554L225.819 45.9028L225.751 45.8429L225.661 45.7529C225.13 45.2039 224.834 44.4693 224.836 43.7054V43.5704C224.839 43.5505 224.839 43.5303 224.836 43.5104C224.833 43.483 224.833 43.4553 224.836 43.4279C224.836 43.4279 224.836 43.3829 224.836 43.3529V43.2929C224.833 43.2655 224.833 43.2378 224.836 43.2104C224.833 43.1931 224.833 43.1752 224.836 43.1579C224.836 43.1579 224.836 43.1054 224.836 43.0754C224.836 43.0454 224.836 43.0754 224.836 43.0304V42.9404V42.8954C224.833 42.8655 224.833 42.8353 224.836 42.8053L224.874 42.7153L224.079 41.3053L220.374 47.8229L220.936 48.3704L222.106 47.0204C222.254 46.8489 222.458 46.7352 222.682 46.6995C222.906 46.6639 223.135 46.7085 223.329 46.8254L226.119 48.4904L227.071 46.4429ZM210.061 41.0054L206.619 34.9529L205.546 36.8429C205.72 37.1531 205.849 37.4865 205.929 37.8329C205.946 37.8945 205.958 37.9571 205.966 38.0204V38.0654C205.966 38.0654 205.966 38.1179 205.966 38.1479C205.966 38.1779 205.966 38.2079 205.966 38.2379V38.2979C205.97 38.3504 205.97 38.403 205.966 38.4554V38.5004C205.97 38.5578 205.97 38.6155 205.966 38.6729C205.966 39.6582 205.578 40.6038 204.886 41.3053C204.265 41.9399 203.438 42.3333 202.554 42.4154H202.269L201.519 43.7428L202.486 44.6803L204.166 42.2354C204.25 42.1115 204.361 42.0089 204.491 41.936C204.621 41.863 204.767 41.8217 204.916 41.8154C205.067 41.8089 205.216 41.8381 205.353 41.9007C205.49 41.9633 205.61 42.0574 205.704 42.1754L208.149 45.2579L210.061 41.0054ZM204.114 38.7104V38.5829C204.11 38.5681 204.11 38.5527 204.114 38.5379C204.117 38.5181 204.117 38.4978 204.114 38.4779C204.114 38.4779 204.114 38.4329 204.114 38.4104C204.059 38.0917 203.919 37.7938 203.709 37.5479C203.537 37.348 203.324 37.1876 203.085 37.0775C202.845 36.9675 202.585 36.9104 202.321 36.9104C202.136 36.9115 201.951 36.9392 201.774 36.9928C201.539 37.0656 201.285 37.0456 201.065 36.9367C200.844 36.8279 200.674 36.6386 200.589 36.4079C200.433 35.9922 200.155 35.6339 199.79 35.3806C199.426 35.1273 198.993 34.9912 198.549 34.9904C197.985 34.9945 197.446 35.2209 197.049 35.6204C196.707 35.9513 196.485 36.3868 196.419 36.8579C196.399 36.9923 196.352 37.1211 196.279 37.236C196.207 37.351 196.111 37.4495 195.999 37.5254C195.888 37.5951 195.765 37.6421 195.637 37.664C195.508 37.6859 195.376 37.6821 195.249 37.6528C195.122 37.6165 194.991 37.5989 194.859 37.6004C194.461 37.6004 194.079 37.7584 193.798 38.0397C193.517 38.3211 193.359 38.7026 193.359 39.1004C193.358 39.4856 193.506 39.8561 193.771 40.1354C194.035 40.4057 194.392 40.5663 194.769 40.5854H202.411C202.647 40.5819 202.88 40.5317 203.096 40.4377C203.312 40.3437 203.508 40.2078 203.671 40.0379C203.987 39.6734 204.146 39.199 204.114 38.7179V38.7104Z" fill="#AB6F4B"/>
<path d="M119.364 59.0579C119.478 59.1471 119.57 59.261 119.633 59.3909C119.697 59.5207 119.73 59.6633 119.731 59.8079C119.73 59.9525 119.697 60.0951 119.633 60.225C119.57 60.3549 119.478 60.4686 119.364 60.5579L115.614 63.4979C115.446 63.6319 115.236 63.7034 115.021 63.7004H107.589V65.2979H113.454C113.58 65.2979 113.705 65.3227 113.821 65.371C113.938 65.4192 114.043 65.4899 114.132 65.5791C114.222 65.6682 114.292 65.7741 114.341 65.8906C114.389 66.007 114.414 66.1318 114.414 66.2579V72.1379C114.414 72.3932 114.313 72.6381 114.133 72.8194C113.953 73.0006 113.709 73.1034 113.454 73.1054H107.589V86.3204C107.592 86.3703 107.592 86.4205 107.589 86.4704C107.593 86.5178 107.593 86.5655 107.589 86.6129C107.539 87.1112 107.351 87.5858 107.046 87.9833C106.742 88.3808 106.332 88.6854 105.864 88.8629C104.838 89.3208 103.724 89.5487 102.601 89.5304C101.478 89.5487 100.364 89.3208 99.3387 88.8629C98.8703 88.6854 98.4609 88.3808 98.1562 87.9833C97.8514 87.5858 97.6636 87.1112 97.6138 86.6129C97.6097 86.5655 97.6097 86.5178 97.6138 86.4704C97.6101 86.4205 97.6101 86.3703 97.6138 86.3204V73.1054H89.9338C89.7184 73.1033 89.5099 73.0294 89.3413 72.8954L85.5913 69.9554C85.4771 69.8665 85.3845 69.7527 85.3208 69.6228C85.2572 69.4928 85.224 69.3501 85.2238 69.2054C85.2257 69.061 85.2595 68.9187 85.323 68.789C85.3866 68.6593 85.4783 68.5454 85.5913 68.4554L89.3413 65.5154C89.5106 65.3835 89.7192 65.3122 89.9338 65.3129H97.6138V63.7154H91.5537C91.2991 63.7154 91.055 63.6142 90.875 63.4342C90.6949 63.2542 90.5937 63.01 90.5937 62.7554V56.8754C90.5937 56.6207 90.6949 56.3766 90.875 56.1966C91.055 56.0165 91.2991 55.9154 91.5537 55.9154H97.6587V51.8053C97.7068 51.3064 97.894 50.8311 98.199 50.4333C98.504 50.0356 98.9144 49.7313 99.3837 49.5553C100.408 49.0938 101.523 48.8659 102.646 48.8879C103.77 48.8659 104.884 49.0938 105.909 49.5553C106.378 49.7313 106.789 50.0356 107.094 50.4333C107.398 50.8311 107.586 51.3064 107.634 51.8053V55.9154H115.066C115.281 55.9124 115.491 55.9839 115.659 56.1178L119.364 59.0579ZM114.699 61.7954L117.211 59.8154L114.699 57.8354H92.4762V61.7879L114.699 61.7954ZM112.494 71.1929V67.2329H90.2788L87.7662 69.2129L90.2788 71.1929H112.494ZM105.676 86.4854C105.676 86.4329 105.676 86.3879 105.676 86.3354V73.1204H99.5562V86.3354C99.5599 86.3853 99.5599 86.4355 99.5562 86.4854C99.5603 86.5328 99.5603 86.5805 99.5562 86.6279C99.5562 86.6279 99.6763 86.8904 100.194 87.1454C100.958 87.4739 101.784 87.6349 102.616 87.6178C103.448 87.6349 104.274 87.4739 105.039 87.1454C105.556 86.8904 105.676 86.6579 105.676 86.6279C105.676 86.5979 105.676 86.5379 105.676 86.4854ZM105.676 65.3129V63.7154H99.5562V65.3129H105.676ZM105.676 55.9154V54.1454C104.704 54.5352 103.664 54.7288 102.616 54.7154C101.569 54.7296 100.528 54.536 99.5562 54.1454V55.9154H105.676ZM105.676 51.8053C105.676 51.8053 105.556 51.5354 105.039 51.2879C104.276 50.9532 103.449 50.7894 102.616 50.8079C101.783 50.7894 100.957 50.9532 100.194 51.2879C99.6763 51.5354 99.5562 51.7678 99.5562 51.8053C99.5562 51.8428 99.6763 52.0679 100.194 52.3154C100.957 52.65 101.783 52.8139 102.616 52.7954C103.449 52.8139 104.276 52.65 105.039 52.3154C105.549 52.0379 105.669 51.8353 105.669 51.8053H105.676Z" fill="#AB6F4B"/>
<path d="M401.904 74.6879V77.9279C401.904 78.1825 401.803 78.4267 401.623 78.6067C401.442 78.7867 401.198 78.8879 400.944 78.8879H388.374C388.248 78.8879 388.123 78.863 388.006 78.8148C387.89 78.7665 387.784 78.6958 387.695 78.6067C387.606 78.5175 387.535 78.4118 387.487 78.2953C387.439 78.1788 387.414 78.054 387.414 77.9279V74.6879C387.414 74.5618 387.439 74.437 387.487 74.3206C387.535 74.2041 387.606 74.0982 387.695 74.0091C387.784 73.92 387.89 73.8492 388.006 73.801C388.123 73.7528 388.248 73.7279 388.374 73.7279H389.026V69.7454H382.914V73.7279H383.566C383.821 73.7279 384.065 73.8291 384.245 74.0091C384.425 74.1891 384.526 74.4333 384.526 74.6879V77.9279C384.526 78.1825 384.425 78.4267 384.245 78.6067C384.065 78.7867 383.821 78.8879 383.566 78.8879H370.996C370.742 78.8879 370.497 78.7867 370.317 78.6067C370.137 78.4267 370.036 78.1825 370.036 77.9279V74.6879C370.036 74.4333 370.137 74.1891 370.317 74.0091C370.497 73.8291 370.742 73.7279 370.996 73.7279H371.709L373.306 52.3379C373.325 52.0958 373.434 51.8696 373.612 51.7043C373.79 51.5389 374.023 51.4465 374.266 51.4454H374.956V50.1329H374.746C374.49 50.1329 374.243 50.031 374.062 49.8495C373.881 49.6681 373.779 49.422 373.779 49.1654V45.9254C373.779 45.7987 373.804 45.6732 373.853 45.5562C373.901 45.4393 373.973 45.3332 374.063 45.244C374.153 45.1547 374.259 45.0841 374.377 45.0363C374.494 44.9885 374.62 44.9644 374.746 44.9654H381.496C381.622 44.9654 381.747 44.9903 381.864 45.0385C381.98 45.0868 382.086 45.1575 382.175 45.2466C382.264 45.3358 382.335 45.4415 382.383 45.558C382.431 45.6745 382.456 45.7993 382.456 45.9254V49.1654C382.456 49.4207 382.355 49.6656 382.175 49.8469C381.996 50.0281 381.752 50.1309 381.496 50.1329H381.279V51.4454H381.969C382.223 51.4454 382.467 51.5466 382.647 51.7266C382.828 51.9067 382.929 52.1508 382.929 52.4054V60.0254H389.041V52.4054C389.041 52.1508 389.142 51.9067 389.322 51.7266C389.502 51.5466 389.747 51.4454 390.001 51.4454H390.691V50.1329H390.474C390.347 50.1329 390.222 50.1078 390.105 50.0591C389.988 50.0104 389.882 49.939 389.792 49.8491C389.703 49.7591 389.632 49.6525 389.585 49.5351C389.537 49.4178 389.513 49.2921 389.514 49.1654V45.9254C389.514 45.6708 389.615 45.4266 389.795 45.2466C389.975 45.0666 390.219 44.9654 390.474 44.9654H397.224C397.35 44.9644 397.476 44.9885 397.593 45.0363C397.711 45.0841 397.818 45.1547 397.908 45.244C397.997 45.3332 398.069 45.4393 398.118 45.5562C398.166 45.6732 398.191 45.7987 398.191 45.9254V49.1654C398.191 49.422 398.089 49.6681 397.908 49.8495C397.726 50.031 397.48 50.1329 397.224 50.1329H397.006V51.4454H397.696C397.94 51.443 398.175 51.5342 398.354 51.7003C398.533 51.8663 398.641 52.0945 398.656 52.3379L400.261 73.7279H400.974C401.223 73.7357 401.46 73.8402 401.633 74.0194C401.807 74.1986 401.904 74.4384 401.904 74.6879ZM399.984 76.9379V75.6179H389.304V76.9379H399.984ZM398.296 73.6979L396.796 53.3429H390.976V73.6979H398.296ZM396.234 48.1979V46.8854H391.426V48.1979H396.234ZM395.056 51.4379V50.1254H392.604V51.4379H395.056ZM389.056 67.8179V61.9454H383.154V67.8179H389.056ZM382.636 76.9604V75.6404H371.986V76.9604H382.636ZM381.016 73.7204V53.3654H375.196L373.696 73.7204H381.016ZM380.544 48.2204V46.9079H375.736V48.2204H380.544ZM379.366 51.4604V50.1479H376.914V51.4604H379.366Z" fill="#AB6F4B"/>
<path d="M283.981 94.3979C284.066 94.545 284.111 94.7119 284.111 94.8817C284.111 95.0515 284.066 95.2184 283.981 95.3655C283.898 95.513 283.777 95.6357 283.631 95.7213C283.484 95.807 283.318 95.8524 283.149 95.853H277.629V101.748C277.63 101.875 277.606 102 277.558 102.118C277.51 102.235 277.44 102.342 277.35 102.432C277.261 102.522 277.155 102.593 277.038 102.642C276.921 102.69 276.795 102.715 276.669 102.715H267.804C267.677 102.715 267.552 102.69 267.435 102.642C267.318 102.593 267.211 102.522 267.122 102.432C267.033 102.342 266.962 102.235 266.915 102.118C266.867 102 266.843 101.875 266.844 101.748V95.853H260.214C260.044 95.8517 259.879 95.8059 259.732 95.7203C259.586 95.6348 259.465 95.5125 259.381 95.3655C259.295 95.2189 259.249 95.0518 259.249 94.8817C259.249 94.7116 259.295 94.5445 259.381 94.3979L263.491 87.3704H262.689C262.518 87.3697 262.351 87.3242 262.204 87.2387C262.056 87.1532 261.934 87.0305 261.849 86.8829C261.764 86.7358 261.719 86.569 261.719 86.3992C261.719 86.2293 261.764 86.0626 261.849 85.9155L266.281 78.333H265.531C265.362 78.334 265.196 78.29 265.05 78.2056C264.904 78.1213 264.783 77.9996 264.699 77.853C264.614 77.7059 264.569 77.539 264.569 77.3692C264.569 77.1994 264.614 77.0325 264.699 76.8855L270.804 66.4454C270.889 66.3007 271.011 66.181 271.157 66.0981C271.303 66.0152 271.468 65.972 271.636 65.9729C271.804 65.9734 271.969 66.0172 272.114 66.1C272.26 66.1828 272.382 66.3017 272.469 66.4454L278.544 76.8479C278.646 77.0039 278.701 77.1864 278.701 77.373C278.701 77.499 278.676 77.6238 278.628 77.7403C278.58 77.8568 278.509 77.9626 278.42 78.0517C278.331 78.1409 278.225 78.2116 278.109 78.2598C277.992 78.3081 277.867 78.333 277.741 78.333H276.991L281.394 85.8779C281.5 86.0323 281.555 86.2158 281.551 86.4029C281.552 86.5296 281.528 86.6553 281.48 86.7726C281.432 86.8899 281.362 86.9967 281.273 87.0866C281.184 87.1766 281.077 87.2479 280.96 87.2966C280.843 87.3454 280.718 87.3704 280.591 87.3704H279.789L283.981 94.3979ZM281.469 93.9254L277.359 86.8904C277.274 86.7433 277.229 86.5765 277.229 86.4067C277.229 86.2368 277.274 86.0701 277.359 85.923C277.442 85.7758 277.563 85.6537 277.709 85.5692C277.856 85.4848 278.022 85.4412 278.191 85.443H278.994L274.561 77.8605C274.476 77.7134 274.432 77.5466 274.432 77.3767C274.432 77.2069 274.476 77.04 274.561 76.893C274.645 76.7463 274.766 76.6246 274.912 76.5403C275.059 76.456 275.225 76.412 275.394 76.4129H276.144L271.719 68.838L267.294 76.4129H268.044C268.212 76.4128 268.378 76.457 268.524 76.5413C268.671 76.6256 268.792 76.7469 268.876 76.893C268.963 77.0395 269.008 77.2066 269.008 77.3767C269.008 77.5469 268.963 77.7139 268.876 77.8605L264.444 85.443H265.254C265.423 85.442 265.589 85.4859 265.735 85.5702C265.881 85.6546 266.002 85.7764 266.086 85.923C266.173 86.0696 266.218 86.2365 266.218 86.4067C266.218 86.5768 266.173 86.7439 266.086 86.8904L261.976 93.9254H281.544H281.469ZM275.709 100.788V95.853H272.574C272.657 96.3059 272.632 96.7719 272.501 97.2135C272.371 97.6552 272.139 98.06 271.824 98.3955C271.64 98.5841 271.538 98.8372 271.539 99.1004V99.708C271.539 99.8146 271.554 99.9206 271.584 100.023L271.824 100.773L275.709 100.788ZM270.406 97.0379C270.559 96.8801 270.656 96.677 270.683 96.4592C270.71 96.2415 270.665 96.0208 270.556 95.8305H268.771V100.788H269.761L269.709 100.623C269.613 100.333 269.565 100.029 269.566 99.7229V99.1155C269.564 98.3538 269.86 97.6217 270.391 97.0755L270.406 97.0379Z" fill="#AB6F4B"/>
<path d="M46.9212 93.4829C46.7105 93.4828 46.5043 93.4218 46.3274 93.3074C46.1505 93.193 46.0102 93.03 45.9236 92.8379C45.8093 92.573 45.8034 92.2738 45.9072 92.0046C46.0109 91.7354 46.2161 91.5176 46.4786 91.3979C47.5475 90.9233 48.587 90.3848 49.5912 89.7854C49.7146 89.7111 49.8514 89.662 49.9939 89.641C50.1364 89.62 50.2815 89.6276 50.4211 89.6632C50.5606 89.6987 50.6919 89.7616 50.8069 89.8483C50.9219 89.9349 51.0185 90.0436 51.0912 90.1679C51.1656 90.2912 51.2145 90.4281 51.2355 90.5706C51.2565 90.7131 51.2491 90.8584 51.2136 90.9979C51.178 91.1374 51.1149 91.2685 51.0283 91.3835C50.9416 91.4985 50.833 91.5952 50.7087 91.6679C49.6319 92.3117 48.5175 92.8903 47.3713 93.4004C47.2284 93.4581 47.0752 93.4861 46.9212 93.4829Z" fill="#AB6F4B"/>
<path d="M387.054 105.895C386.019 105.895 384.976 105.895 383.956 105.79C383.668 105.769 383.4 105.635 383.211 105.418C383.021 105.2 382.925 104.916 382.944 104.628C382.965 104.34 383.099 104.072 383.316 103.882C383.534 103.693 383.818 103.597 384.106 103.615C386.45 103.772 388.802 103.742 391.141 103.525C391.429 103.507 391.713 103.603 391.931 103.792C392.149 103.982 392.283 104.25 392.304 104.538C392.329 104.826 392.239 105.113 392.053 105.335C391.868 105.557 391.602 105.696 391.314 105.723C389.874 105.828 388.434 105.895 387.054 105.895ZM155.874 105.355H155.761C153.23 105.107 150.765 104.4 148.486 103.27C148.353 103.207 148.234 103.117 148.137 103.006C148.04 102.895 147.966 102.765 147.92 102.625C147.875 102.485 147.858 102.337 147.872 102.19C147.885 102.043 147.928 101.9 147.999 101.77C148.063 101.638 148.154 101.52 148.265 101.423C148.376 101.326 148.505 101.253 148.645 101.208C148.785 101.162 148.933 101.145 149.08 101.158C149.226 101.171 149.369 101.214 149.499 101.283C151.541 102.294 153.749 102.927 156.016 103.15C156.303 103.181 156.566 103.323 156.749 103.546C156.931 103.769 157.018 104.056 156.991 104.343C156.97 104.628 156.838 104.894 156.624 105.083C156.409 105.272 156.129 105.37 155.844 105.355H155.874ZM163.021 104.763C162.784 104.761 162.554 104.683 162.364 104.539C162.175 104.396 162.037 104.196 161.971 103.968C161.893 103.69 161.928 103.393 162.068 103.141C162.209 102.89 162.444 102.704 162.721 102.625C164.874 102.041 166.842 100.916 168.436 99.3553C168.641 99.1511 168.919 99.0365 169.209 99.0365C169.498 99.0365 169.776 99.1511 169.981 99.3553C170.186 99.5605 170.3 99.8383 170.3 100.128C170.3 100.417 170.186 100.695 169.981 100.9C168.121 102.723 165.826 104.039 163.314 104.725C163.209 104.755 163.1 104.767 162.991 104.763H163.021ZM376.921 104.658C376.832 104.669 376.741 104.669 376.651 104.658C374.242 104.044 371.906 103.171 369.684 102.055C369.55 101.992 369.432 101.902 369.334 101.791C369.237 101.68 369.164 101.55 369.119 101.409C369.074 101.269 369.058 101.12 369.073 100.974C369.087 100.827 369.132 100.684 369.204 100.555C369.268 100.423 369.358 100.305 369.47 100.208C369.581 100.112 369.71 100.039 369.851 99.9939C369.991 99.949 370.139 99.9331 370.286 99.9471C370.432 99.9611 370.574 100.005 370.704 100.075C372.785 101.119 374.972 101.933 377.229 102.505C377.503 102.584 377.735 102.767 377.875 103.016C378.016 103.264 378.053 103.557 377.979 103.833C377.921 104.075 377.782 104.29 377.583 104.441C377.385 104.591 377.14 104.668 376.891 104.658H376.921ZM398.356 104.538C398.11 104.538 397.871 104.455 397.678 104.303C397.485 104.15 397.348 103.937 397.291 103.698C397.226 103.416 397.274 103.121 397.426 102.875C397.578 102.629 397.82 102.453 398.101 102.385C399.991 101.934 401.851 101.371 403.674 100.698L404.829 100.263C405.098 100.157 405.399 100.162 405.664 100.278C405.93 100.393 406.139 100.609 406.246 100.878C406.298 101.011 406.323 101.154 406.32 101.297C406.317 101.44 406.286 101.581 406.228 101.712C406.17 101.843 406.087 101.961 405.983 102.06C405.879 102.159 405.757 102.236 405.624 102.288L404.431 102.745C402.525 103.448 400.579 104.036 398.604 104.508C398.505 104.529 398.404 104.539 398.304 104.538H398.356ZM216.016 99.9779C215.73 99.9779 215.456 99.8654 215.252 99.6647C215.049 99.464 214.933 99.1912 214.929 98.9054C214.926 98.7623 214.951 98.62 215.004 98.4869C215.056 98.3537 215.135 98.2324 215.234 98.1298C215.334 98.0272 215.453 97.9454 215.585 97.8893C215.717 97.8332 215.858 97.8038 216.001 97.8029C218.282 97.7524 220.535 97.2925 222.654 96.4453C222.787 96.3933 222.93 96.3682 223.073 96.3714C223.216 96.3745 223.357 96.4059 223.488 96.4637C223.619 96.5216 223.737 96.6047 223.836 96.7084C223.935 96.812 224.012 96.9342 224.064 97.0679C224.116 97.2013 224.141 97.3437 224.138 97.4868C224.135 97.63 224.103 97.7712 224.045 97.9022C223.987 98.0332 223.904 98.1515 223.801 98.2503C223.697 98.3491 223.575 98.4264 223.441 98.4779C221.082 99.4206 218.571 99.9288 216.031 99.9779H216.016ZM411.766 99.3704C411.566 99.3702 411.37 99.3149 411.199 99.2103C411.028 99.1058 410.89 98.9561 410.799 98.7778C410.728 98.6497 410.684 98.5088 410.669 98.3635C410.654 98.2181 410.668 98.0712 410.711 97.9314C410.754 97.7916 410.824 97.6618 410.918 97.5496C411.011 97.4373 411.126 97.3449 411.256 97.2778C413.266 96.2353 415.336 95.0279 417.414 93.7004C417.657 93.5463 417.952 93.4953 418.234 93.5586C418.515 93.6219 418.759 93.7943 418.914 94.0379C418.991 94.1578 419.044 94.2919 419.07 94.4325C419.095 94.573 419.092 94.7172 419.062 94.8567C419.031 94.9962 418.973 95.1283 418.891 95.2452C418.809 95.3621 418.704 95.4616 418.584 95.5379C416.454 96.9029 414.331 98.1329 412.269 99.2129C412.114 99.3053 411.939 99.3592 411.759 99.3704H411.766ZM143.266 99.0179C143.118 99.0187 142.972 98.9884 142.836 98.929C142.7 98.8695 142.578 98.7823 142.479 98.6729C140.77 96.844 139.313 94.7961 138.144 92.5829C138.072 92.456 138.026 92.3158 138.009 92.1708C137.993 92.0259 138.005 91.8789 138.047 91.739C138.088 91.599 138.157 91.4688 138.25 91.3561C138.342 91.2434 138.457 91.1505 138.586 91.0829C138.714 91.0112 138.854 90.966 138.999 90.9499C139.145 90.9338 139.292 90.9471 139.432 90.9891C139.572 91.0311 139.702 91.1009 139.814 91.1943C139.927 91.2878 140.019 91.4029 140.086 91.5329C141.165 93.5759 142.509 95.4673 144.084 97.1579C144.282 97.369 144.389 97.6501 144.38 97.9397C144.372 98.2292 144.249 98.5036 144.039 98.7028C143.934 98.8056 143.81 98.8865 143.673 98.9406C143.536 98.9947 143.39 99.021 143.244 99.0179H143.266ZM209.034 98.4404C208.864 98.4407 208.696 98.3995 208.546 98.3203C208.104 98.0953 207.669 97.8478 207.256 97.5703C205.519 96.4325 203.996 94.9982 202.756 93.3329C202.589 93.1056 202.516 92.8219 202.554 92.5419C202.591 92.2619 202.737 92.0077 202.959 91.8329C203.187 91.6671 203.47 91.5955 203.749 91.6332C204.029 91.671 204.283 91.815 204.459 92.0353C205.541 93.5089 206.877 94.7786 208.404 95.7853C208.756 96.0103 209.154 96.2204 209.506 96.4154C209.638 96.4805 209.755 96.5713 209.851 96.6826C209.947 96.794 210.02 96.9235 210.064 97.0635C210.109 97.2035 210.125 97.351 210.112 97.4974C210.098 97.6437 210.056 97.7859 209.986 97.9154C209.884 98.0806 209.74 98.216 209.569 98.3082C209.398 98.4003 209.206 98.4459 209.011 98.4404H209.034ZM364.179 98.1479C363.917 98.1488 363.664 98.0556 363.466 97.8854C361.585 96.2531 359.898 94.4083 358.441 92.3879C358.28 92.1545 358.216 91.8677 358.262 91.5879C358.308 91.3082 358.461 91.0572 358.689 90.8879C358.922 90.7269 359.209 90.6628 359.489 90.7089C359.768 90.7551 360.019 90.9079 360.189 91.1354C361.547 93.0169 363.117 94.7357 364.869 96.2578C365.077 96.4452 365.205 96.7058 365.226 96.9853C365.247 97.2648 365.159 97.5415 364.981 97.7578C364.881 97.8791 364.754 97.9769 364.612 98.0443C364.469 98.1117 364.314 98.147 364.156 98.1479H364.179ZM172.636 94.9604C172.537 94.9746 172.436 94.9746 172.336 94.9604C172.198 94.9215 172.069 94.8557 171.956 94.7666C171.844 94.6776 171.75 94.5671 171.68 94.4416C171.61 94.3161 171.566 94.1781 171.55 94.0354C171.534 93.8927 171.546 93.7483 171.586 93.6104C172.175 91.3351 172.591 89.0184 172.831 86.6803C172.849 86.5385 172.894 86.4015 172.965 86.2772C173.035 86.1529 173.13 86.0437 173.243 85.956C173.356 85.8682 173.485 85.8035 173.622 85.7656C173.76 85.7278 173.904 85.7176 174.046 85.7354C174.188 85.753 174.325 85.7984 174.449 85.869C174.574 85.9396 174.683 86.0341 174.771 86.1469C174.858 86.2598 174.923 86.3888 174.961 86.5267C174.999 86.6646 175.009 86.8086 174.991 86.9504C174.742 89.4007 174.303 91.8279 173.679 94.2104C173.607 94.4342 173.464 94.6286 173.272 94.764C173.08 94.8993 172.849 94.9683 172.614 94.9604H172.636ZM229.269 94.9604C229.105 94.9616 228.943 94.9258 228.795 94.8557C228.647 94.7856 228.516 94.6829 228.414 94.5553C228.243 94.3316 228.165 94.0503 228.197 93.7705C228.229 93.4908 228.369 93.2344 228.586 93.0553C229.385 92.41 230.137 91.7083 230.836 90.9554C231.702 90.0097 232.504 89.0075 233.236 87.9554C233.406 87.7283 233.656 87.5751 233.935 87.5276C234.215 87.4802 234.501 87.5421 234.736 87.7004C234.968 87.8662 235.125 88.1169 235.173 88.3979C235.22 88.6788 235.155 88.9673 234.991 89.2004C234.204 90.3224 233.342 91.3899 232.411 92.3954C231.638 93.2267 230.806 94.0012 229.921 94.7129C229.73 94.8679 229.492 94.9526 229.246 94.9529L229.269 94.9604ZM423.961 91.6603C423.789 91.6612 423.62 91.6217 423.466 91.5448C423.312 91.4679 423.179 91.3559 423.076 91.2179C422.914 90.9862 422.847 90.7007 422.89 90.4211C422.934 90.1414 423.084 89.8894 423.309 89.7179C425.094 88.4054 426.954 86.9804 428.994 85.3454C429.217 85.1753 429.497 85.0975 429.777 85.1282C430.056 85.1589 430.312 85.2957 430.494 85.5104C430.665 85.7341 430.742 86.0154 430.71 86.2952C430.678 86.5749 430.539 86.8313 430.321 87.0104C428.259 88.6679 426.384 90.1154 424.569 91.4429C424.386 91.5773 424.165 91.6507 423.939 91.6528L423.961 91.6603ZM199.914 87.6029C199.712 87.6026 199.514 87.5463 199.341 87.4404C199.169 87.3345 199.03 87.1831 198.939 87.0029C198.699 86.5304 198.459 86.0503 198.189 85.5779C197.439 84.1228 196.689 82.6229 195.939 81.2354L195.624 80.7029C195.473 80.4568 195.425 80.1612 195.492 79.8803C195.558 79.5995 195.732 79.356 195.976 79.2029C196.222 79.0521 196.518 79.0046 196.799 79.0706C197.08 79.1367 197.323 79.3108 197.476 79.5553C197.596 79.7503 197.716 79.9454 197.829 80.1404C198.661 81.5878 199.426 83.1404 200.169 84.6404C200.409 85.1128 200.641 85.5854 200.881 86.0504C200.951 86.1794 200.994 86.3211 201.008 86.4671C201.022 86.6131 201.007 86.7605 200.963 86.9004C200.918 87.0403 200.847 87.1699 200.752 87.2816C200.656 87.3932 200.54 87.4846 200.409 87.5504C200.242 87.6075 200.065 87.623 199.891 87.5954L199.914 87.6029ZM55.9137 87.5054C55.7629 87.5046 55.6139 87.4729 55.4759 87.4123C55.3378 87.3517 55.2137 87.2633 55.1111 87.1528C54.9174 86.938 54.816 86.6556 54.8286 86.3666C54.8412 86.0775 54.967 85.805 55.1787 85.6079C56.9012 84.0126 58.4962 82.2848 59.9488 80.4404C60.1267 80.2218 60.3825 80.081 60.6623 80.0474C60.9422 80.0138 61.2242 80.0902 61.4488 80.2604C61.6661 80.4394 61.8055 80.6958 61.8377 80.9756C61.8699 81.2554 61.7923 81.5367 61.6213 81.7604C60.1036 83.6983 58.4332 85.5115 56.6261 87.1829C56.4334 87.3733 56.1769 87.4856 55.9062 87.4979L55.9137 87.5054ZM355.719 86.6129C355.509 86.6115 355.304 86.551 355.128 86.4382C354.951 86.3254 354.81 86.1649 354.721 85.9754C353.715 83.7298 352.876 81.4137 352.209 79.0454C352.13 78.7669 352.165 78.4686 352.305 78.2156C352.446 77.9627 352.681 77.7756 352.959 77.6953C353.236 77.6168 353.534 77.6517 353.785 77.7924C354.037 77.933 354.223 78.1679 354.301 78.4453C354.935 80.7105 355.74 82.9244 356.709 85.0679C356.828 85.3316 356.839 85.6318 356.737 85.903C356.636 86.1743 356.432 86.3945 356.169 86.5154C356.023 86.5746 355.868 86.6052 355.711 86.6053L355.719 86.6129ZM136.344 86.5003C136.113 86.501 135.888 86.4289 135.701 86.2943C135.514 86.1596 135.374 85.9692 135.301 85.7503C134.585 83.3992 134.033 81.0009 133.651 78.5729C133.608 78.2877 133.679 77.9968 133.849 77.7637C134.019 77.5306 134.274 77.374 134.559 77.3279C134.7 77.3043 134.844 77.3091 134.983 77.3417C135.122 77.3743 135.253 77.4342 135.369 77.5179C135.485 77.6016 135.583 77.7075 135.658 77.8294C135.732 77.9512 135.782 78.0867 135.804 78.2279C136.168 80.5543 136.694 82.8523 137.379 85.1053C137.421 85.2442 137.435 85.3902 137.42 85.5345C137.405 85.6789 137.361 85.8188 137.291 85.946C137.222 86.0732 137.127 86.1852 137.013 86.2752C136.899 86.3653 136.769 86.4316 136.629 86.4704C136.533 86.4905 136.434 86.498 136.336 86.4928L136.344 86.5003ZM237.691 83.4178C237.533 83.4189 237.376 83.3829 237.234 83.3128C237.104 83.2524 236.988 83.167 236.891 83.0615C236.795 82.956 236.72 82.8325 236.671 82.6981C236.622 82.5636 236.6 82.4208 236.607 82.2779C236.613 82.135 236.648 81.9949 236.709 81.8654C237.594 79.9604 238.434 77.8604 239.341 75.2729C239.388 75.1372 239.46 75.012 239.555 74.9045C239.65 74.7971 239.766 74.7094 239.895 74.6466C240.024 74.5839 240.164 74.5473 240.307 74.539C240.45 74.5306 240.593 74.5506 240.729 74.5978C240.864 74.645 240.988 74.7183 241.095 74.8136C241.201 74.9089 241.288 75.0243 241.35 75.1532C241.412 75.2821 241.448 75.4219 241.456 75.5647C241.464 75.7075 241.444 75.8505 241.396 75.9854C240.607 78.2973 239.7 80.5676 238.681 82.7879C238.593 82.9769 238.452 83.1363 238.275 83.2467C238.098 83.3572 237.892 83.414 237.684 83.4103L237.691 83.4178ZM175.081 80.7554C174.989 80.7669 174.896 80.7669 174.804 80.7554C174.53 80.6767 174.297 80.4934 174.157 80.2451C174.017 79.9968 173.98 79.7033 174.054 79.4279C174.864 76.3529 176.101 74.2228 177.954 72.7228C178.176 72.5509 178.457 72.4721 178.737 72.5028C179.017 72.5336 179.274 72.6717 179.454 72.8879C179.624 73.1114 179.702 73.3917 179.671 73.6709C179.64 73.95 179.503 74.2067 179.289 74.3879C177.789 75.5804 176.806 77.3878 176.124 79.9529C176.06 80.182 175.922 80.3838 175.733 80.5274C175.543 80.671 175.312 80.7485 175.074 80.7479L175.081 80.7554ZM64.9287 76.2554C64.7244 76.2565 64.524 76.1992 64.3512 76.0903C64.1067 75.9372 63.9325 75.6937 63.8665 75.4128C63.8005 75.132 63.848 74.8364 63.9987 74.5903C65.1762 72.7003 66.3237 70.6679 67.5086 68.3804C67.575 68.2499 67.667 68.134 67.7789 68.0396C67.8909 67.9453 68.0207 67.8743 68.1605 67.8309C68.3004 67.7875 68.4475 67.7727 68.5932 67.7872C68.7389 67.8017 68.8801 67.8453 69.0086 67.9154C69.1392 67.9818 69.255 68.0736 69.3494 68.1856C69.4438 68.2975 69.5148 68.4273 69.5581 68.5672C69.6015 68.707 69.6164 68.8541 69.6019 68.9998C69.5874 69.1455 69.5438 69.2868 69.4737 69.4154C68.2587 71.7479 67.0887 73.8254 65.8812 75.7679C65.7809 75.931 65.6393 76.0648 65.4707 76.1557C65.3021 76.2466 65.1126 76.2912 64.9212 76.2853L64.9287 76.2554ZM191.806 75.7679C191.558 75.7693 191.317 75.6845 191.124 75.5278C189.441 74.0788 187.4 73.1076 185.214 72.7153C185.072 72.696 184.935 72.6488 184.811 72.5764C184.688 72.5041 184.58 72.408 184.493 72.2937C184.407 72.1794 184.344 72.0491 184.308 71.9104C184.272 71.7717 184.264 71.6273 184.284 71.4854C184.325 71.1995 184.477 70.9414 184.707 70.7672C184.938 70.593 185.227 70.5168 185.514 70.5553C188.093 71.0033 190.504 72.1353 192.496 73.8329C192.711 74.0141 192.848 74.2715 192.877 74.5511C192.907 74.8308 192.827 75.111 192.654 75.3329C192.558 75.4724 192.431 75.5871 192.282 75.6679C192.133 75.7487 191.968 75.7933 191.799 75.7979L191.806 75.7679ZM351.684 72.7679C351.428 72.7682 351.18 72.6781 350.983 72.5135C350.787 72.3488 350.655 72.1201 350.611 71.8678C350.221 69.6178 349.914 67.2329 349.666 64.6304C349.639 64.3421 349.727 64.0547 349.911 63.8312C350.095 63.6077 350.361 63.4663 350.649 63.4378C350.937 63.4106 351.224 63.4988 351.448 63.6829C351.671 63.8671 351.813 64.1322 351.841 64.4204C352.081 66.9779 352.381 69.2878 352.756 71.5003C352.78 71.6412 352.775 71.7853 352.743 71.9245C352.711 72.0637 352.652 72.1952 352.569 72.3115C352.402 72.5464 352.148 72.7051 351.864 72.7529C351.803 72.7708 351.74 72.7809 351.676 72.7829L351.684 72.7679ZM133.906 72.2879C133.634 72.2869 133.372 72.184 133.172 71.9993C132.972 71.8146 132.849 71.5617 132.826 71.2904C132.699 69.7904 132.594 68.2904 132.489 66.7904C132.429 65.8979 132.361 64.9978 132.301 64.1053C132.29 63.9628 132.307 63.8196 132.352 63.6837C132.396 63.5479 132.467 63.4223 132.561 63.3141C132.654 63.206 132.768 63.1175 132.896 63.0538C133.024 62.99 133.164 62.9524 133.306 62.9429C133.449 62.9317 133.592 62.9488 133.728 62.9933C133.864 63.0379 133.989 63.1091 134.097 63.2025C134.205 63.296 134.294 63.41 134.358 63.538C134.421 63.6659 134.459 63.8052 134.469 63.9479C134.536 64.8404 134.604 65.7403 134.664 66.6404C134.769 68.1404 134.874 69.6404 134.994 71.1404C135.006 71.2827 134.99 71.4261 134.947 71.5623C134.904 71.6985 134.835 71.8249 134.743 71.9342C134.651 72.0435 134.538 72.1338 134.411 72.1996C134.285 72.2654 134.146 72.3056 134.004 72.3179L133.906 72.2879ZM242.656 69.8429C242.542 69.8438 242.428 69.8261 242.319 69.7904C242.045 69.6993 241.818 69.5046 241.686 69.248C241.554 68.9915 241.528 68.6934 241.614 68.4178L241.711 68.1253C242.461 65.7628 243.211 63.6253 243.909 61.5553C244.004 61.2825 244.204 61.0584 244.463 60.9319C244.723 60.8055 245.023 60.787 245.296 60.8804C245.569 60.9758 245.793 61.1751 245.92 61.435C246.046 61.6949 246.065 61.9943 245.971 62.2679C245.221 64.3154 244.539 66.4453 243.781 68.7928L243.691 69.0854C243.622 69.314 243.48 69.5136 243.286 69.6533C243.092 69.7929 242.857 69.8648 242.619 69.8579L242.656 69.8429ZM71.7087 63.5278C71.5447 63.5272 71.3829 63.4888 71.2361 63.4154C70.9764 63.2891 70.7772 63.0653 70.6817 62.7928C70.5862 62.5203 70.6022 62.2211 70.7262 61.9604L71.0937 61.2104C72.0087 59.3204 72.9462 57.3703 73.9062 55.4728C73.9699 55.3446 74.0584 55.2302 74.1665 55.1362C74.2747 55.0422 74.4002 54.9705 74.5361 54.9252C74.672 54.8799 74.8156 54.8619 74.9585 54.8723C75.1014 54.8826 75.2407 54.921 75.3686 54.9854C75.5012 55.0496 75.6193 55.1401 75.7158 55.2514C75.8123 55.3626 75.8852 55.4922 75.93 55.6325C75.9749 55.7728 75.9909 55.9207 75.9769 56.0673C75.9629 56.2139 75.9193 56.3562 75.8487 56.4854C74.9037 58.3754 73.9663 60.3179 73.0588 62.1929L72.6913 62.9429C72.5966 63.1301 72.45 63.2861 72.2692 63.3925C72.0884 63.4989 71.8808 63.5511 71.6712 63.5428L71.7087 63.5278ZM350.289 58.4204C350.008 58.4188 349.74 58.3098 349.537 58.1159C349.335 57.9219 349.215 57.6578 349.201 57.3779L349.104 55.2928C349.029 53.5978 348.946 51.8879 348.849 50.1779C348.834 49.8899 348.934 49.6078 349.126 49.3929C349.319 49.1781 349.588 49.0478 349.876 49.0304C350.019 49.0223 350.162 49.0424 350.297 49.0897C350.432 49.137 350.557 49.2105 350.663 49.3059C350.77 49.4014 350.857 49.5169 350.918 49.646C350.98 49.775 351.016 49.915 351.024 50.0579C351.124 51.7729 351.209 53.4828 351.279 55.1878L351.376 57.2729C351.383 57.4157 351.362 57.5585 351.314 57.6932C351.266 57.8278 351.191 57.9517 351.095 58.0576C350.999 58.1634 350.883 58.2494 350.754 58.3103C350.624 58.3713 350.484 58.4061 350.341 58.4129L350.289 58.4204ZM132.714 57.9103C132.45 57.9108 132.194 57.8152 131.996 57.6413C131.797 57.4674 131.668 57.2271 131.634 56.9653C131.364 54.9403 131.049 53.1254 130.659 51.4079C130.554 50.9504 130.434 50.4779 130.314 50.0204C130.239 49.744 130.276 49.4495 130.417 49.2C130.557 48.9505 130.789 48.7658 131.064 48.6854C131.34 48.6111 131.635 48.648 131.884 48.7882C132.134 48.9284 132.318 49.1607 132.399 49.4354C132.526 49.9154 132.646 50.4104 132.759 50.9354C133.164 52.7129 133.509 54.5953 133.771 56.6878C133.791 56.8298 133.783 56.9745 133.746 57.1132C133.71 57.2519 133.646 57.3819 133.559 57.4957C133.472 57.6095 133.363 57.7047 133.238 57.7759C133.114 57.8471 132.976 57.8928 132.834 57.9103H132.714ZM247.464 56.2303C247.33 56.2309 247.198 56.2055 247.074 56.1554C246.94 56.1039 246.818 56.0266 246.714 55.9278C246.61 55.829 246.527 55.7107 246.47 55.5797C246.412 55.4487 246.38 55.3076 246.377 55.1644C246.374 55.0212 246.399 54.8788 246.451 54.7454C247.351 52.4129 248.289 50.1554 249.226 47.9954C249.283 47.8643 249.366 47.7459 249.469 47.6469C249.572 47.5479 249.693 47.4704 249.827 47.4188C249.96 47.3671 250.102 47.3424 250.245 47.3462C250.388 47.3499 250.528 47.3819 250.659 47.4404C250.79 47.4974 250.908 47.5797 251.007 47.6826C251.107 47.7855 251.185 47.907 251.237 48.04C251.289 48.1731 251.315 48.3151 251.312 48.458C251.309 48.6009 251.278 48.7419 251.221 48.8729C250.299 50.9654 249.376 53.1929 248.484 55.4954C248.408 55.723 248.261 55.9197 248.063 56.0552C247.865 56.1907 247.628 56.2575 247.389 56.2454L247.464 56.2303ZM78.3313 50.6878C78.1396 50.6877 77.951 50.6387 77.7836 50.5454C77.6594 50.4726 77.5509 50.376 77.4641 50.2612C77.3773 50.1464 77.3139 50.0155 77.2777 49.8762C77.2415 49.7369 77.2331 49.5918 77.253 49.4492C77.2729 49.3066 77.3208 49.1694 77.3938 49.0454C78.62 46.9297 79.9594 44.8817 81.4062 42.9103C81.5776 42.6849 81.8304 42.5352 82.1106 42.4932C82.3907 42.4512 82.6761 42.5201 82.9062 42.6854C83.1328 42.8558 83.2841 43.1079 83.3275 43.3881C83.3709 43.6683 83.3032 43.9544 83.1387 44.1854C81.7361 46.0903 80.4392 48.0707 79.2538 50.1178C79.1601 50.2999 79.0164 50.4515 78.8398 50.5551C78.6632 50.6587 78.4608 50.7099 78.2562 50.7029L78.3313 50.6878ZM128.934 44.0654C128.728 44.0644 128.527 44.0054 128.353 43.8954C128.179 43.7853 128.04 43.6285 127.951 43.4429C126.958 41.3431 125.722 39.367 124.269 37.5553C124.098 37.3328 124.019 37.0531 124.048 36.7739C124.077 36.4948 124.213 36.2375 124.426 36.0553C124.651 35.8729 124.939 35.787 125.228 35.8166C125.516 35.8461 125.78 35.9886 125.964 36.2129C127.523 38.1593 128.849 40.2811 129.916 42.5353C130.039 42.7959 130.054 43.0948 129.957 43.3663C129.86 43.6377 129.659 43.8594 129.399 43.9829C129.231 44.0634 129.044 44.0971 128.859 44.0804L128.934 44.0654ZM349.434 44.0129C349.163 44.014 348.902 43.9137 348.702 43.7317C348.502 43.5498 348.378 43.2996 348.354 43.0304C348.099 40.4354 347.791 38.1253 347.409 35.9653C347.358 35.68 347.423 35.3863 347.589 35.1488C347.755 34.9112 348.009 34.7491 348.294 34.6979C348.579 34.6477 348.873 34.7126 349.11 34.8785C349.348 35.0444 349.51 35.2977 349.561 35.5829C349.951 37.8329 350.266 40.1728 350.521 42.8203C350.535 42.9627 350.52 43.1063 350.478 43.2429C350.436 43.3796 350.367 43.5065 350.276 43.6166C350.184 43.7266 350.072 43.8177 349.946 43.8844C349.819 43.9511 349.681 43.9922 349.539 44.0054L349.434 44.0129ZM253.291 43.0454C253.119 43.0422 252.95 43.0012 252.796 42.9254C252.665 42.8596 252.548 42.7682 252.453 42.6566C252.358 42.5449 252.286 42.4153 252.242 42.2754C252.198 42.1355 252.183 41.9881 252.197 41.8421C252.211 41.6961 252.254 41.5544 252.324 41.4254C253.449 39.1754 254.634 37.0679 255.834 35.0429C255.985 34.7961 256.226 34.6185 256.507 34.5484C256.788 34.4782 257.084 34.5211 257.334 34.6679C257.582 34.8174 257.761 35.0592 257.831 35.3404C257.902 35.6216 257.857 35.9191 257.709 36.1678C256.531 38.1478 255.369 40.2554 254.266 42.4229C254.173 42.6153 254.025 42.776 253.841 42.8853C253.657 42.9946 253.445 43.0477 253.231 43.0379L253.291 43.0454ZM86.9711 39.1979C86.6877 39.1899 86.4185 39.0714 86.2211 38.8678C86.1191 38.7667 86.0382 38.6465 85.9829 38.5139C85.9276 38.3813 85.8992 38.239 85.8992 38.0954C85.8992 37.9517 85.9276 37.8095 85.9829 37.6769C86.0382 37.5443 86.1191 37.424 86.2211 37.3229C87.9976 35.5957 89.9422 34.0505 92.0261 32.7104C92.2689 32.5556 92.5632 32.5034 92.8444 32.5653C93.1256 32.6271 93.3707 32.798 93.5261 33.0404C93.6037 33.1603 93.6569 33.2944 93.6823 33.435C93.7077 33.5756 93.7049 33.7197 93.6742 33.8592C93.6435 33.9988 93.5855 34.1308 93.5034 34.2477C93.4213 34.3646 93.3169 34.4641 93.1962 34.5404C91.2341 35.8057 89.4026 37.2629 87.7286 38.8903C87.6217 38.9973 87.4941 39.0811 87.3534 39.1366C87.2128 39.1921 87.0623 39.2181 86.9112 39.2129L86.9711 39.1979ZM119.806 33.1004C119.593 33.0988 119.385 33.0364 119.206 32.9204C118.176 32.2407 117.084 31.6606 115.944 31.1879C114.972 30.7869 113.969 30.4682 112.944 30.2354C112.803 30.2036 112.671 30.1443 112.554 30.0609C112.437 29.9775 112.337 29.8718 112.261 29.7497C112.185 29.6277 112.134 29.4917 112.111 29.3498C112.088 29.2079 112.093 29.0628 112.126 28.9229C112.192 28.6426 112.367 28.3999 112.611 28.2481C112.856 28.0962 113.151 28.0476 113.431 28.1129C114.562 28.3767 115.671 28.7304 116.746 29.1704C118.015 29.6987 119.23 30.3466 120.376 31.1054C120.495 31.1834 120.597 31.2842 120.677 31.402C120.757 31.5197 120.813 31.6521 120.842 31.7914C120.87 31.9308 120.871 32.0745 120.844 32.2142C120.817 32.3539 120.762 32.4868 120.684 32.6054C120.585 32.7643 120.447 32.8949 120.282 32.9843C120.118 33.0737 119.933 33.1189 119.746 33.1154L119.806 33.1004ZM99.0462 31.4804C98.8189 31.4786 98.598 31.4052 98.4148 31.2705C98.2317 31.1358 98.0956 30.9468 98.0261 30.7304C97.9756 30.5965 97.9522 30.4538 97.9569 30.3108C97.9616 30.1678 97.9945 30.0271 98.0538 29.8968C98.113 29.7665 98.1974 29.6491 98.302 29.5515C98.4067 29.4539 98.5296 29.3779 98.6637 29.3278C101.008 28.4471 103.455 27.8724 105.946 27.6179C106.232 27.5907 106.518 27.678 106.74 27.8607C106.962 28.0434 107.103 28.3067 107.131 28.5929C107.158 28.88 107.071 29.1663 106.889 29.3896C106.706 29.6128 106.443 29.7551 106.156 29.7854C103.847 30.0205 101.578 30.555 99.4062 31.3754C99.2752 31.4421 99.1326 31.4828 98.9861 31.4954L99.0462 31.4804ZM260.694 30.6704C260.469 30.6717 260.249 30.6036 260.064 30.4754C259.835 30.3071 259.681 30.0573 259.632 29.778C259.583 29.4986 259.644 29.2112 259.801 28.9754C260.229 28.3754 260.664 27.7754 261.099 27.1904C262.111 25.8254 263.184 24.4829 264.279 23.1929C264.464 22.9817 264.724 22.851 265.004 22.8286C265.284 22.8062 265.562 22.8938 265.779 23.0729C265.991 23.2571 266.123 23.5169 266.147 23.797C266.171 24.0771 266.084 24.3554 265.906 24.5729C264.841 25.8254 263.799 27.1379 262.816 28.4654C262.396 29.0354 261.969 29.6204 261.556 30.2054C261.455 30.3566 261.318 30.4798 261.157 30.5637C260.995 30.6476 260.815 30.6895 260.634 30.6854L260.694 30.6704ZM346.839 29.8453C346.607 29.8484 346.382 29.7772 346.194 29.6421C346.006 29.5071 345.867 29.3155 345.796 29.0953C345.124 26.849 344.269 24.6617 343.239 22.5554C343.175 22.4269 343.137 22.2871 343.127 22.1439C343.117 22.0007 343.136 21.857 343.182 21.7211C343.228 21.5851 343.3 21.4596 343.395 21.3518C343.49 21.244 343.605 21.156 343.734 21.0929C343.862 21.0289 344.001 20.991 344.143 20.9813C344.286 20.9716 344.429 20.9903 344.565 21.0364C344.7 21.0824 344.825 21.1549 344.932 21.2496C345.039 21.3442 345.126 21.4592 345.189 21.5879C346.275 23.8021 347.175 26.1024 347.881 28.4654C347.921 28.6038 347.934 28.7487 347.918 28.8919C347.902 29.0351 347.858 29.1737 347.788 29.2998C347.718 29.4259 347.624 29.537 347.512 29.6268C347.399 29.7165 347.27 29.7832 347.131 29.8229C347.016 29.8537 346.897 29.8663 346.779 29.8604L346.839 29.8453ZM270.031 19.6979C269.748 19.6899 269.479 19.5714 269.281 19.3679C269.179 19.2674 269.098 19.1477 269.043 19.0158C268.988 18.8838 268.96 18.7421 268.96 18.5991C268.96 18.4561 268.988 18.3145 269.043 18.1825C269.098 18.0505 269.179 17.9308 269.281 17.8304C271.031 16.126 272.869 14.5139 274.786 13.0004C275.011 12.8302 275.293 12.7538 275.572 12.7874C275.852 12.821 276.108 12.9619 276.286 13.1804C276.456 13.405 276.533 13.6869 276.499 13.9667C276.466 14.2465 276.325 14.5024 276.106 14.6804C274.247 16.1478 272.465 17.7099 270.766 19.3604C270.664 19.4699 270.542 19.5577 270.405 19.6183C270.268 19.6789 270.121 19.7111 269.971 19.7129L270.031 19.6979ZM340.411 17.0204C340.245 17.0221 340.08 16.9851 339.93 16.9122C339.781 16.8393 339.65 16.7325 339.549 16.6004C338.118 14.7638 336.493 13.0867 334.704 11.5979C334.491 11.4146 334.357 11.1561 334.33 10.8765C334.304 10.5969 334.387 10.3179 334.561 10.0979C334.747 9.87583 335.013 9.73617 335.301 9.70947C335.589 9.68277 335.876 9.7712 336.099 9.95538C338.011 11.5433 339.746 13.3338 341.274 15.2954C341.44 15.5225 341.513 15.8051 341.477 16.0845C341.44 16.3638 341.298 16.6184 341.079 16.7954C340.874 16.9622 340.615 17.0477 340.351 17.0354L340.411 17.0204ZM281.304 10.7879C281.118 10.7886 280.936 10.7422 280.773 10.653C280.61 10.5638 280.473 10.4347 280.374 10.2779C280.225 10.0313 280.179 9.73636 280.244 9.45605C280.31 9.17574 280.483 8.93235 280.726 8.77787C282.805 7.48469 284.962 6.32 287.184 5.29036C287.314 5.22986 287.454 5.19566 287.597 5.18969C287.741 5.18373 287.884 5.20612 288.018 5.25561C288.153 5.3051 288.276 5.38069 288.381 5.47804C288.486 5.57539 288.571 5.69259 288.631 5.82287C288.692 5.95281 288.726 6.09343 288.732 6.23664C288.738 6.37985 288.715 6.52281 288.666 6.65733C288.617 6.79185 288.541 6.91527 288.444 7.02047C288.346 7.12568 288.229 7.21061 288.099 7.27037C285.957 8.26194 283.878 9.38404 281.874 10.6304C281.702 10.7356 281.505 10.7902 281.304 10.7879ZM329.379 7.78787C329.198 7.78762 329.019 7.74116 328.861 7.65287C326.799 6.53809 324.644 5.60698 322.419 4.87036C322.145 4.77796 321.919 4.58106 321.789 4.32255C321.66 4.06404 321.638 3.76491 321.729 3.49038C321.821 3.21653 322.018 2.9903 322.276 2.86105C322.535 2.73179 322.834 2.70996 323.109 2.80035C325.452 3.58177 327.723 4.56551 329.896 5.74038C330.026 5.80797 330.14 5.90085 330.233 6.01358C330.325 6.1263 330.394 6.25653 330.436 6.3965C330.477 6.53646 330.49 6.68333 330.473 6.8283C330.456 6.97328 330.411 7.11342 330.339 7.24038C330.247 7.41843 330.108 7.5682 329.938 7.67384C329.767 7.77948 329.572 7.83704 329.371 7.84037L329.379 7.78787ZM294.369 4.74287C294.138 4.74356 293.913 4.67141 293.726 4.53674C293.539 4.40206 293.399 4.21173 293.326 3.99287C293.245 3.71241 293.278 3.4112 293.419 3.1553C293.559 2.8994 293.796 2.7097 294.076 2.62786C295.576 2.16286 297.144 1.75789 298.681 1.43539C299.529 1.25539 300.399 1.09785 301.261 0.970348C301.403 0.949069 301.547 0.955871 301.685 0.990352C301.824 1.02483 301.955 1.08632 302.07 1.17131C302.185 1.25629 302.282 1.36313 302.355 1.48565C302.429 1.60818 302.478 1.74399 302.499 1.88537C302.52 2.02672 302.513 2.17086 302.479 2.30958C302.444 2.4483 302.383 2.57889 302.298 2.69383C302.213 2.80876 302.106 2.9058 301.983 2.97943C301.861 3.05305 301.725 3.10181 301.584 3.12289C300.766 3.25039 299.941 3.40036 299.131 3.56536C297.631 3.88036 296.176 4.26289 294.721 4.71289C294.606 4.75635 294.484 4.78163 294.361 4.78787L294.369 4.74287ZM315.766 3.24287H315.586C313.267 2.86505 310.923 2.66698 308.574 2.65039C308.431 2.6504 308.289 2.62196 308.157 2.56675C308.025 2.51154 307.905 2.43064 307.805 2.32876C307.704 2.22688 307.625 2.10603 307.572 1.97326C307.518 1.84049 307.492 1.69845 307.494 1.55537C307.494 1.41291 307.522 1.27184 307.577 1.14032C307.631 1.00879 307.712 0.889413 307.813 0.789028C307.914 0.688642 308.034 0.609263 308.166 0.555431C308.298 0.501599 308.439 0.474379 308.581 0.475368C311.044 0.488265 313.501 0.693899 315.931 1.09037C316.215 1.13643 316.47 1.29336 316.639 1.52676C316.807 1.76016 316.877 2.05096 316.831 2.33535C316.8 2.59787 316.674 2.83981 316.476 3.01536C316.278 3.19091 316.023 3.28788 315.759 3.28787L315.766 3.24287Z" fill="#AB6F4B"/>
<path d="M435.301 82.5929C435.143 82.5921 434.986 82.5568 434.842 82.4895C434.698 82.4221 434.571 82.3243 434.469 82.2028C434.297 81.9823 434.215 81.7047 434.24 81.4262C434.265 81.1477 434.395 80.8891 434.604 80.7028C435.534 79.9528 436.456 79.1428 437.379 78.3628C437.598 78.1874 437.876 78.1035 438.156 78.1286C438.435 78.1538 438.695 78.2861 438.879 78.4979C439.057 78.7153 439.143 78.9936 439.119 79.2737C439.096 79.5538 438.963 79.8136 438.751 79.9979L435.976 82.3454C435.786 82.502 435.548 82.5893 435.301 82.5929Z" fill="#AB6F4B"/>
<path d="M21.7287 119.088C33.277 119.088 42.6387 109.726 42.6387 98.1779C42.6387 86.6297 33.277 77.2679 21.7287 77.2679C10.1805 77.2679 0.818741 86.6297 0.818741 98.1779C0.818741 109.726 10.1805 119.088 21.7287 119.088Z" fill="#AB6F4B"/>
<path d="M456.271 80.3804C467.82 80.3804 477.181 71.0187 477.181 59.4704C477.181 47.9222 467.82 38.5604 456.271 38.5604C444.723 38.5604 435.361 47.9222 435.361 59.4704C435.361 71.0187 444.723 80.3804 456.271 80.3804Z" fill="#AB6F4B"/>
<path d="M36.0687 97.3408V99.0077C35.878 102.516 34.3919 105.828 31.8983 108.302C29.4228 110.794 26.1113 112.28 22.6039 112.473H20.9435C17.4361 112.28 14.1248 110.794 11.6492 108.302C9.15822 105.826 7.67241 102.515 7.47865 99.0077V97.3408C7.67363 93.834 9.15925 90.5234 11.6492 88.0465C14.1262 85.5565 17.4367 84.071 20.9435 83.876H22.6039C26.1107 84.071 29.4214 85.5565 31.8983 88.0465C34.3909 90.5217 35.8768 93.8333 36.0687 97.3408ZM32.2614 97.3408H34.3758C34.1846 94.2772 32.8762 91.3901 30.6984 89.2269C28.5324 87.0491 25.6434 85.7408 22.5779 85.5494V87.6638C24.795 87.8377 26.8999 88.7096 28.5904 90.1544L29.1028 89.642C29.2596 89.4859 29.4718 89.3984 29.693 89.3984C29.9142 89.3984 30.1265 89.4859 30.2833 89.642C30.4394 89.7988 30.5269 90.011 30.5269 90.2322C30.5269 90.4534 30.4394 90.6657 30.2833 90.8225L29.7709 91.3348C31.2121 93.0238 32.0797 95.1269 32.2486 97.3408H32.2614ZM34.3758 99.0077H32.2614C32.0876 101.225 31.2157 103.33 29.7709 105.02L30.2833 105.533C30.439 105.688 30.5264 105.899 30.5264 106.12C30.5264 106.34 30.439 106.551 30.2833 106.707C30.127 106.864 29.9146 106.952 29.693 106.953C29.4714 106.952 29.2592 106.864 29.1028 106.707L28.5904 106.194C26.9005 107.641 24.7956 108.515 22.5779 108.691V110.812C25.6428 110.618 28.531 109.31 30.6984 107.135C32.8718 104.964 34.1754 102.073 34.363 99.0077H34.3758ZM30.6336 98.1775C30.6302 95.8219 29.6928 93.5638 28.0272 91.8981C26.3615 90.2325 24.1033 89.2952 21.7477 89.2917C19.3927 89.2952 17.1353 90.2327 15.4706 91.8985C13.806 93.5644 12.8702 95.8225 12.8685 98.1775C12.8702 100.532 13.8063 102.789 15.4711 104.454C17.1359 106.119 19.3933 107.055 21.7477 107.057C24.1005 107.052 26.3553 106.114 28.0183 104.45C29.6814 102.786 30.6172 100.53 30.6206 98.1775H30.6336ZM20.9047 110.806V108.691C18.687 108.515 16.5821 107.641 14.8922 106.194L14.3798 106.707C14.2235 106.864 14.0111 106.952 13.7895 106.953C13.6807 106.952 13.5733 106.93 13.4731 106.888C13.3729 106.846 13.282 106.784 13.2058 106.707C13.1271 106.63 13.0647 106.539 13.0219 106.438C12.9792 106.337 12.9572 106.229 12.9572 106.12C12.9572 106.01 12.9792 105.902 13.0219 105.801C13.0647 105.7 13.1271 105.609 13.2058 105.533L13.7182 105.02C12.2714 103.33 11.3972 101.225 11.2211 99.0077H9.10663C9.29926 102.073 10.6075 104.961 12.7843 107.128C14.9506 109.306 17.8389 110.617 20.9047 110.812V110.806ZM20.9047 87.6638V85.5494C17.8392 85.7408 14.9502 87.0491 12.7843 89.2269C10.6065 91.3901 9.29785 94.2772 9.10663 97.3408H11.2211C11.3959 95.1248 12.2704 93.0216 13.7182 91.3348L13.2058 90.8225C13.1269 90.7457 13.0643 90.6539 13.0215 90.5526C12.9787 90.4512 12.9567 90.3423 12.9567 90.2322C12.9567 90.1222 12.9787 90.0133 13.0215 89.9119C13.0643 89.8105 13.1269 89.7187 13.2058 89.642C13.3615 89.4863 13.5726 89.3989 13.7928 89.3989C14.0129 89.3989 14.2241 89.4863 14.3798 89.642L14.8922 90.1544C16.5827 88.7096 18.6877 87.8377 20.9047 87.6638Z" fill="#F8EFDA"/>
<path d="M26.9884 92.9043C27.1047 93.0237 27.1834 93.1747 27.2145 93.3385C27.2457 93.5022 27.2279 93.6715 27.1636 93.8253L24.3356 100.363C24.2511 100.558 24.0958 100.713 23.9011 100.798L17.3632 103.619C17.2592 103.666 17.1465 103.69 17.0324 103.69C16.9236 103.691 16.8159 103.669 16.7156 103.627C16.6153 103.584 16.5245 103.522 16.4488 103.444C16.3299 103.327 16.2495 103.177 16.2182 103.014C16.1869 102.851 16.2063 102.682 16.2736 102.529L19.0951 95.9851C19.1796 95.7904 19.3349 95.635 19.5296 95.5505L26.0675 92.7291C26.2209 92.663 26.3906 92.6444 26.5547 92.6756C26.7189 92.7068 26.8699 92.7865 26.9884 92.9043ZM22.9412 99.3902L24.8026 95.0771L20.4895 96.9385L18.6281 101.245L22.9412 99.3902Z" fill="#F8EFDA"/>
<path d="M22.2796 97.5418C22.4357 97.6985 22.5233 97.9107 22.5233 98.1319C22.5233 98.3531 22.4357 98.5654 22.2796 98.7222C22.1233 98.8792 21.9111 98.9679 21.6895 98.9686C21.4711 98.9672 21.2618 98.8812 21.1056 98.7287C20.95 98.573 20.8626 98.3618 20.8626 98.1417C20.8626 97.9215 20.95 97.7104 21.1056 97.5547C21.2596 97.3974 21.4698 97.3075 21.6899 97.3051C21.9101 97.3027 22.1222 97.3878 22.2796 97.5418Z" fill="#F8EFDA"/>
<path d="M471.616 67.6753C471.815 67.6753 472.006 67.7544 472.146 67.8951C472.287 68.0357 472.366 68.2264 472.366 68.4253C472.366 68.6243 472.287 68.8151 472.146 68.9557C472.006 69.0964 471.815 69.1753 471.616 69.1753H440.919C440.72 69.1753 440.529 69.0964 440.388 68.9557C440.248 68.8151 440.169 68.6243 440.169 68.4253C440.169 68.2264 440.248 68.0357 440.388 67.8951C440.529 67.7544 440.72 67.6753 440.919 67.6753H441.129L440.514 65.7778C440.479 65.6815 440.464 65.5791 440.47 65.4768C440.477 65.3745 440.504 65.2746 440.55 65.1833C440.597 65.0919 440.661 65.011 440.74 64.9456C440.819 64.8802 440.91 64.8316 441.009 64.8029C441.105 64.768 441.208 64.7533 441.31 64.7596C441.412 64.7659 441.512 64.793 441.603 64.8394C441.695 64.8858 441.776 64.9504 441.841 65.0293C441.906 65.1081 441.955 65.1996 441.984 65.2979L442.651 67.3753L455.356 48.9178L453.909 46.3678C453.856 46.2804 453.822 46.1832 453.808 46.0821C453.794 45.981 453.801 45.8782 453.829 45.7799C453.856 45.6816 453.903 45.5899 453.967 45.5104C454.031 45.431 454.111 45.3655 454.201 45.3179C454.289 45.2653 454.386 45.231 454.487 45.2173C454.588 45.2035 454.691 45.2106 454.789 45.238C454.887 45.2653 454.979 45.3125 455.059 45.3766C455.138 45.4406 455.204 45.5202 455.251 45.6104L456.264 47.4028L457.284 45.6104C457.331 45.5202 457.397 45.4406 457.476 45.3766C457.556 45.3125 457.647 45.2653 457.746 45.238C457.844 45.2106 457.947 45.2035 458.048 45.2173C458.149 45.231 458.246 45.2653 458.334 45.3179C458.424 45.3655 458.504 45.431 458.568 45.5104C458.632 45.5899 458.679 45.6816 458.706 45.7799C458.734 45.8782 458.741 45.981 458.727 46.0821C458.713 46.1832 458.679 46.2804 458.626 46.3678L457.171 48.9178L469.921 67.3753L470.589 65.2979C470.617 65.2004 470.666 65.1098 470.731 65.0316C470.796 64.9534 470.876 64.8892 470.966 64.8429C471.057 64.7966 471.156 64.7692 471.257 64.7623C471.359 64.7554 471.46 64.7692 471.556 64.8029C471.655 64.8316 471.746 64.8802 471.825 64.9456C471.904 65.011 471.968 65.0919 472.015 65.1833C472.061 65.2746 472.088 65.3745 472.094 65.4768C472.101 65.5791 472.086 65.6815 472.051 65.7778L471.444 67.6753H471.616ZM468.226 67.6753L466.846 65.6729V67.6753H468.226ZM465.309 67.6753V63.4378L457.059 51.4378V56.4854L459.609 67.6828L465.309 67.6753ZM458.011 67.6753L456.264 60.0254L454.524 67.6753H458.011ZM455.499 56.4779V51.4303L447.249 63.4303V67.6678H452.971L455.499 56.4779ZM445.689 67.6753V65.6729L444.309 67.6753H445.689Z" fill="#F8EFDA"/>
</g>
<defs>
<clipPath id="clip0_16_852">
<rect width="476.363" height="118.605" fill="white" transform="translate(0.818726 0.48291)"/>
</clipPath>
</defs>
</svg>
