<svg width="1122" height="329" viewBox="0 0 1122 329" fill="none" xmlns="http://www.w3.org/2000/svg">
<path opacity="0.6" d="M1010.75 328.833C1007.53 328.833 1004.28 328.833 1001.11 328.506C1000.21 328.44 999.376 328.023 998.785 327.344C998.195 326.666 997.896 325.781 997.954 324.884C998.02 323.986 998.437 323.151 999.115 322.561C999.793 321.97 1000.68 321.671 1001.57 321.729C1008.87 322.218 1016.2 322.124 1023.49 321.448C1024.38 321.39 1025.27 321.689 1025.95 322.28C1026.62 322.871 1027.04 323.706 1027.11 324.603C1027.18 325.501 1026.9 326.394 1026.33 327.086C1025.75 327.778 1024.92 328.213 1024.02 328.296C1019.54 328.623 1015.05 328.833 1010.75 328.833ZM290.719 327.151H290.369C282.485 326.376 274.807 324.174 267.71 320.654C267.295 320.456 266.925 320.175 266.622 319.83C266.319 319.484 266.09 319.08 265.948 318.643C265.806 318.205 265.754 317.744 265.796 317.286C265.838 316.828 265.973 316.384 266.192 315.98C266.392 315.567 266.674 315.199 267.02 314.897C267.366 314.596 267.769 314.368 268.205 314.226C268.641 314.084 269.101 314.032 269.558 314.072C270.015 314.112 270.459 314.245 270.864 314.46C277.223 317.611 284.101 319.583 291.163 320.28C292.056 320.374 292.876 320.817 293.445 321.513C294.013 322.209 294.285 323.101 294.2 323.996C294.134 324.884 293.723 325.712 293.055 326.302C292.387 326.891 291.515 327.196 290.626 327.151H290.719ZM312.981 325.304C312.242 325.299 311.525 325.054 310.935 324.608C310.346 324.162 309.916 323.537 309.71 322.827C309.466 321.962 309.575 321.036 310.013 320.251C310.451 319.467 311.182 318.888 312.046 318.644C318.752 316.824 324.881 313.316 329.847 308.454C330.486 307.817 331.351 307.46 332.253 307.46C333.155 307.46 334.02 307.817 334.659 308.454C335.295 309.093 335.652 309.959 335.652 310.861C335.652 311.763 335.295 312.629 334.659 313.268C328.865 318.947 321.716 323.05 313.892 325.188C313.565 325.279 313.226 325.318 312.888 325.304H312.981ZM979.196 324.977C978.917 325.012 978.634 325.012 978.355 324.977C970.85 323.064 963.575 320.345 956.654 316.867C956.239 316.67 955.868 316.389 955.566 316.043C955.264 315.697 955.035 315.292 954.895 314.854C954.755 314.416 954.706 313.954 954.752 313.496C954.797 313.039 954.935 312.595 955.159 312.193C955.359 311.78 955.641 311.412 955.988 311.112C956.334 310.811 956.737 310.584 957.174 310.444C957.611 310.304 958.072 310.254 958.529 310.298C958.985 310.342 959.428 310.478 959.831 310.698C966.312 313.948 973.126 316.487 980.153 318.27C981.007 318.515 981.731 319.086 982.168 319.86C982.605 320.634 982.72 321.548 982.489 322.407C982.311 323.162 981.876 323.831 981.258 324.301C980.639 324.77 979.878 325.009 979.102 324.977H979.196ZM1045.96 324.603C1045.19 324.603 1044.45 324.345 1043.85 323.87C1043.24 323.395 1042.82 322.731 1042.64 321.986C1042.44 321.109 1042.59 320.187 1043.06 319.421C1043.53 318.655 1044.29 318.107 1045.16 317.896C1051.05 316.491 1056.84 314.735 1062.52 312.637L1066.12 311.282C1066.96 310.952 1067.89 310.969 1068.72 311.328C1069.55 311.687 1070.2 312.36 1070.53 313.198C1070.69 313.614 1070.77 314.058 1070.76 314.504C1070.75 314.95 1070.66 315.39 1070.48 315.798C1070.29 316.206 1070.04 316.575 1069.71 316.883C1069.39 317.191 1069.01 317.432 1068.59 317.592L1064.88 319.018C1058.94 321.207 1052.88 323.041 1046.73 324.51C1046.42 324.574 1046.11 324.606 1045.79 324.603H1045.96ZM478.04 310.394C477.149 310.394 476.295 310.043 475.661 309.418C475.027 308.793 474.665 307.942 474.653 307.052C474.643 306.606 474.722 306.163 474.886 305.748C475.049 305.333 475.294 304.955 475.604 304.635C475.915 304.315 476.286 304.061 476.697 303.886C477.107 303.711 477.547 303.619 477.993 303.616C485.097 303.459 492.115 302.026 498.713 299.386C499.129 299.224 499.572 299.146 500.018 299.156C500.464 299.165 500.903 299.263 501.311 299.443C501.719 299.624 502.088 299.883 502.396 300.206C502.703 300.529 502.944 300.91 503.104 301.326C503.266 301.742 503.345 302.185 503.335 302.632C503.326 303.078 503.227 303.518 503.047 303.926C502.867 304.334 502.608 304.703 502.285 305.011C501.962 305.318 501.582 305.559 501.166 305.72C493.817 308.657 485.998 310.241 478.086 310.394H478.04ZM1087.72 308.501C1087.1 308.5 1086.49 308.328 1085.96 308.002C1085.43 307.676 1084.99 307.21 1084.71 306.654C1084.49 306.255 1084.36 305.816 1084.31 305.363C1084.26 304.91 1084.31 304.452 1084.44 304.017C1084.57 303.581 1084.79 303.177 1085.08 302.827C1085.37 302.477 1085.73 302.189 1086.14 301.98C1092.4 298.732 1098.84 294.969 1105.31 290.833C1106.07 290.352 1106.99 290.193 1107.87 290.391C1108.74 290.588 1109.51 291.125 1109.99 291.884C1110.23 292.258 1110.39 292.676 1110.47 293.114C1110.55 293.552 1110.54 294.001 1110.45 294.436C1110.35 294.871 1110.17 295.282 1109.92 295.646C1109.66 296.011 1109.33 296.321 1108.96 296.558C1102.32 300.812 1095.71 304.645 1089.29 308.01C1088.81 308.298 1088.26 308.466 1087.7 308.501H1087.72ZM251.452 307.402C250.99 307.405 250.534 307.311 250.112 307.125C249.689 306.94 249.31 306.668 248.999 306.327C243.678 300.628 239.138 294.247 235.498 287.35C235.273 286.955 235.131 286.518 235.079 286.066C235.027 285.615 235.067 285.157 235.195 284.721C235.324 284.284 235.539 283.879 235.828 283.527C236.116 283.176 236.473 282.887 236.875 282.676C237.272 282.453 237.71 282.312 238.163 282.262C238.615 282.211 239.073 282.253 239.509 282.384C239.945 282.515 240.351 282.732 240.701 283.023C241.051 283.315 241.339 283.673 241.547 284.078C244.907 290.445 249.094 296.338 253.998 301.606C254.616 302.264 254.948 303.14 254.922 304.043C254.896 304.945 254.513 305.8 253.858 306.421C253.531 306.741 253.144 306.993 252.719 307.162C252.294 307.33 251.839 307.412 251.382 307.402H251.452ZM456.292 305.603C455.763 305.604 455.242 305.475 454.774 305.229C453.395 304.528 452.041 303.756 450.756 302.892C445.346 299.346 440.602 294.877 436.74 289.687C436.218 288.979 435.992 288.095 436.109 287.223C436.227 286.35 436.679 285.558 437.371 285.013C438.081 284.496 438.963 284.274 439.833 284.391C440.704 284.509 441.495 284.957 442.043 285.644C445.415 290.236 449.575 294.193 454.33 297.329C455.428 298.031 456.666 298.685 457.764 299.293C458.174 299.496 458.539 299.779 458.838 300.126C459.137 300.473 459.363 300.876 459.503 301.312C459.642 301.749 459.692 302.208 459.65 302.664C459.608 303.12 459.475 303.564 459.258 303.967C458.94 304.482 458.492 304.904 457.959 305.191C457.426 305.478 456.827 305.62 456.222 305.603H456.292ZM939.508 304.691C938.694 304.694 937.906 304.404 937.289 303.873C931.428 298.787 926.176 293.039 921.638 286.743C921.137 286.015 920.937 285.122 921.08 284.25C921.224 283.378 921.7 282.596 922.409 282.069C923.136 281.567 924.029 281.367 924.9 281.511C925.772 281.655 926.553 282.131 927.081 282.84C931.31 288.703 936.202 294.059 941.657 298.802C942.306 299.386 942.705 300.198 942.77 301.069C942.835 301.94 942.562 302.802 942.008 303.476C941.694 303.854 941.301 304.159 940.857 304.369C940.413 304.579 939.929 304.689 939.438 304.691H939.508ZM342.928 294.759C342.618 294.803 342.303 294.803 341.993 294.759C341.563 294.638 341.161 294.432 340.81 294.155C340.459 293.878 340.167 293.533 339.949 293.142C339.732 292.751 339.595 292.321 339.545 291.876C339.494 291.432 339.533 290.982 339.658 290.552C341.492 283.462 342.788 276.243 343.536 268.957C343.59 268.515 343.731 268.089 343.951 267.701C344.171 267.314 344.466 266.974 344.817 266.7C345.169 266.427 345.57 266.225 346 266.107C346.429 265.989 346.878 265.957 347.32 266.013C347.761 266.068 348.188 266.209 348.575 266.429C348.962 266.649 349.302 266.944 349.576 267.295C349.849 267.647 350.051 268.049 350.169 268.479C350.287 268.908 350.318 269.357 350.263 269.799C349.486 277.434 348.119 284.998 346.175 292.422C345.952 293.119 345.507 293.725 344.908 294.147C344.31 294.569 343.59 294.783 342.858 294.759H342.928ZM519.316 294.759C518.806 294.763 518.302 294.651 517.84 294.433C517.379 294.214 516.973 293.894 516.653 293.497C516.12 292.8 515.879 291.923 515.979 291.051C516.079 290.179 516.513 289.38 517.19 288.822C519.68 286.812 522.022 284.625 524.198 282.279C526.894 279.332 529.391 276.209 531.673 272.93C532.201 272.223 532.981 271.746 533.85 271.598C534.72 271.45 535.613 271.643 536.345 272.136C537.067 272.653 537.556 273.434 537.705 274.309C537.853 275.185 537.65 276.084 537.139 276.81C534.689 280.306 532.004 283.633 529.104 286.766C526.695 289.356 524.103 291.77 521.348 293.988C520.754 294.471 520.012 294.734 519.246 294.735L519.316 294.759ZM1125.71 284.476C1125.17 284.478 1124.64 284.355 1124.16 284.116C1123.69 283.876 1123.27 283.527 1122.95 283.097C1122.44 282.375 1122.24 281.485 1122.37 280.614C1122.51 279.742 1122.97 278.957 1123.68 278.423C1129.23 274.333 1135.03 269.892 1141.38 264.798C1142.08 264.267 1142.95 264.025 1143.82 264.121C1144.69 264.216 1145.49 264.643 1146.05 265.312C1146.59 266.009 1146.83 266.885 1146.73 267.757C1146.63 268.629 1146.19 269.428 1145.52 269.986C1139.09 275.151 1133.25 279.661 1127.6 283.798C1127.03 284.217 1126.34 284.446 1125.64 284.452L1125.71 284.476ZM427.887 271.832C427.257 271.831 426.64 271.656 426.104 271.326C425.569 270.996 425.134 270.524 424.85 269.962C424.102 268.49 423.355 266.994 422.514 265.522C420.178 260.988 417.842 256.314 415.506 251.99L414.525 250.331C414.056 249.564 413.908 248.643 414.113 247.768C414.319 246.893 414.861 246.134 415.623 245.657C416.389 245.187 417.31 245.039 418.185 245.245C419.06 245.45 419.818 245.993 420.295 246.755C420.669 247.363 421.042 247.97 421.393 248.578C423.986 253.089 426.368 257.926 428.681 262.6C429.429 264.073 430.153 265.545 430.9 266.994C431.118 267.396 431.252 267.838 431.295 268.293C431.339 268.748 431.291 269.207 431.153 269.643C431.016 270.079 430.793 270.483 430.496 270.831C430.2 271.179 429.837 271.464 429.428 271.668C428.911 271.847 428.357 271.895 427.816 271.809L427.887 271.832ZM-20.6171 271.528C-21.0867 271.526 -21.5508 271.427 -21.9807 271.238C-22.4106 271.049 -22.7973 270.774 -23.1167 270.43C-23.7201 269.76 -24.0361 268.88 -23.9967 267.98C-23.9574 267.079 -23.5657 266.23 -22.9063 265.615C-17.5413 260.644 -12.5736 255.26 -8.04937 249.513C-7.49505 248.832 -6.69842 248.393 -5.8269 248.288C-4.95539 248.184 -4.07706 248.422 -3.37745 248.952C-2.70042 249.51 -2.26634 250.309 -2.16613 251.181C-2.06592 252.052 -2.30745 252.929 -2.84023 253.626C-7.56711 259.665 -12.7699 265.315 -18.3981 270.523C-18.9984 271.117 -19.7973 271.467 -20.6405 271.505L-20.6171 271.528ZM913.158 268.747C912.506 268.743 911.868 268.554 911.318 268.203C910.768 267.851 910.329 267.351 910.051 266.761C906.919 259.763 904.304 252.546 902.226 245.166C901.981 244.298 902.089 243.369 902.527 242.58C902.964 241.792 903.696 241.209 904.562 240.959C905.426 240.714 906.352 240.823 907.137 241.262C907.921 241.7 908.499 242.432 908.744 243.296C910.719 250.355 913.225 257.253 916.242 263.933C916.615 264.754 916.647 265.69 916.332 266.535C916.016 267.38 915.38 268.067 914.56 268.443C914.108 268.628 913.624 268.723 913.135 268.724L913.158 268.747ZM229.891 268.396C229.173 268.399 228.472 268.174 227.889 267.754C227.306 267.335 226.87 266.741 226.644 266.059C224.412 258.733 222.694 251.26 221.505 243.694C221.37 242.805 221.592 241.899 222.121 241.172C222.65 240.446 223.445 239.958 224.332 239.814C224.771 239.741 225.22 239.755 225.653 239.857C226.086 239.959 226.495 240.145 226.856 240.406C227.216 240.667 227.522 240.997 227.754 241.377C227.986 241.757 228.141 242.179 228.209 242.619C229.343 249.868 230.983 257.029 233.115 264.049C233.247 264.482 233.29 264.937 233.244 265.387C233.197 265.837 233.06 266.273 232.843 266.669C232.625 267.065 232.33 267.414 231.976 267.695C231.621 267.975 231.215 268.182 230.779 268.303C230.479 268.366 230.173 268.389 229.868 268.373L229.891 268.396ZM545.549 258.791C545.055 258.794 544.567 258.682 544.124 258.464C543.72 258.275 543.358 258.009 543.057 257.681C542.756 257.352 542.523 256.967 542.371 256.548C542.219 256.129 542.152 255.684 542.172 255.239C542.192 254.794 542.3 254.357 542.489 253.953C545.245 248.017 547.862 241.473 550.688 233.41C550.833 232.988 551.059 232.598 551.355 232.263C551.651 231.928 552.01 231.655 552.411 231.459C552.813 231.264 553.249 231.15 553.695 231.124C554.141 231.097 554.588 231.16 555.009 231.307C555.43 231.454 555.818 231.682 556.15 231.979C556.482 232.276 556.752 232.636 556.945 233.038C557.139 233.439 557.251 233.875 557.275 234.32C557.3 234.765 557.236 235.21 557.089 235.631C554.629 242.835 551.806 249.909 548.632 256.828C548.357 257.417 547.917 257.914 547.366 258.258C546.815 258.602 546.176 258.779 545.526 258.768L545.549 258.791ZM350.543 250.495C350.256 250.53 349.966 250.53 349.679 250.495C348.825 250.249 348.102 249.678 347.665 248.904C347.228 248.131 347.112 247.216 347.343 246.358C349.866 236.776 353.72 230.138 359.49 225.464C360.184 224.929 361.058 224.683 361.93 224.779C362.801 224.875 363.601 225.305 364.162 225.979C364.691 226.675 364.934 227.548 364.838 228.418C364.742 229.288 364.316 230.088 363.648 230.653C358.976 234.369 355.916 240.001 353.79 247.994C353.591 248.708 353.163 249.337 352.573 249.784C351.982 250.232 351.261 250.473 350.52 250.471L350.543 250.495ZM7.46114 236.472C6.82487 236.476 6.20079 236.297 5.66241 235.958C4.9008 235.481 4.3584 234.722 4.15281 233.847C3.94723 232.971 4.09514 232.05 4.56457 231.284C8.23203 225.394 11.8059 219.061 15.4967 211.933C15.7035 211.526 15.9898 211.165 16.3385 210.871C16.6871 210.577 17.0914 210.356 17.527 210.22C17.9625 210.085 18.4208 210.039 18.8746 210.084C19.3284 210.13 19.7682 210.265 20.1686 210.484C20.5751 210.691 20.936 210.977 21.2299 211.326C21.5239 211.675 21.7451 212.079 21.8801 212.515C22.0151 212.951 22.0616 213.409 22.0164 213.863C21.9712 214.317 21.8354 214.757 21.6172 215.158C17.8329 222.426 14.1887 228.9 10.4278 234.953C10.1155 235.461 9.67426 235.878 9.14923 236.161C8.6242 236.445 8.03393 236.584 7.43776 236.565L7.46114 236.472ZM402.635 234.953C401.861 234.958 401.11 234.693 400.509 234.205C395.267 229.69 388.91 226.663 382.102 225.441C381.659 225.381 381.234 225.234 380.849 225.008C380.464 224.783 380.127 224.483 379.858 224.127C379.588 223.771 379.392 223.365 379.28 222.933C379.168 222.5 379.143 222.05 379.205 221.608C379.333 220.717 379.807 219.913 380.525 219.37C381.242 218.827 382.145 218.59 383.036 218.71C391.069 220.106 398.579 223.633 404.784 228.923C405.454 229.488 405.88 230.29 405.971 231.161C406.063 232.033 405.813 232.906 405.275 233.598C404.977 234.032 404.58 234.39 404.117 234.641C403.654 234.893 403.138 235.032 402.611 235.047L402.635 234.953ZM900.591 225.605C899.793 225.606 899.021 225.325 898.41 224.812C897.799 224.299 897.388 223.586 897.25 222.8C896.036 215.789 895.078 208.357 894.307 200.247C894.222 199.349 894.497 198.454 895.071 197.757C895.644 197.061 896.47 196.62 897.367 196.531C898.265 196.447 899.16 196.721 899.856 197.295C900.552 197.869 900.993 198.695 901.082 199.593C901.829 207.562 902.763 214.76 903.931 221.655C904.005 222.094 903.991 222.543 903.892 222.977C903.792 223.41 903.607 223.82 903.349 224.182C902.828 224.914 902.038 225.409 901.152 225.558C900.962 225.614 900.766 225.645 900.568 225.651L900.591 225.605ZM222.299 224.109C221.451 224.106 220.635 223.785 220.013 223.21C219.39 222.634 219.006 221.846 218.935 221.001C218.538 216.327 218.211 211.652 217.884 206.978C217.697 204.197 217.487 201.392 217.3 198.611C217.265 198.167 217.318 197.721 217.457 197.298C217.596 196.874 217.818 196.483 218.109 196.146C218.4 195.809 218.755 195.533 219.154 195.334C219.552 195.136 219.986 195.019 220.43 194.989C220.874 194.954 221.321 195.007 221.744 195.146C222.167 195.285 222.558 195.507 222.894 195.798C223.231 196.089 223.507 196.445 223.705 196.843C223.904 197.242 224.021 197.676 224.051 198.121C224.261 200.902 224.472 203.706 224.658 206.511C224.985 211.185 225.312 215.859 225.686 220.533C225.725 220.977 225.675 221.424 225.541 221.848C225.407 222.272 225.191 222.666 224.904 223.007C224.618 223.348 224.267 223.629 223.872 223.834C223.478 224.039 223.046 224.164 222.603 224.202L222.299 224.109ZM561.013 216.49C560.656 216.493 560.301 216.438 559.962 216.327C559.109 216.043 558.402 215.436 557.991 214.636C557.581 213.837 557.5 212.908 557.766 212.049L558.069 211.138C560.405 203.776 562.741 197.115 564.914 190.665C565.211 189.815 565.832 189.117 566.642 188.723C567.451 188.329 568.383 188.271 569.235 188.562C570.085 188.859 570.784 189.48 571.177 190.29C571.571 191.1 571.628 192.033 571.338 192.886C569.002 199.266 566.876 205.903 564.517 213.218L564.237 214.13C564.022 214.842 563.577 215.464 562.974 215.899C562.37 216.334 561.64 216.558 560.896 216.537L561.013 216.49ZM28.5783 196.812C28.0673 196.81 27.5633 196.69 27.1063 196.461C26.2975 196.068 25.6769 195.371 25.3795 194.521C25.082 193.672 25.1318 192.74 25.518 191.927L26.6626 189.59C29.5125 183.701 32.4324 177.624 35.4225 171.711C35.6211 171.312 35.8967 170.955 36.2334 170.662C36.5701 170.37 36.961 170.146 37.3843 170.005C37.8076 169.864 38.255 169.808 38.7 169.84C39.145 169.872 39.5789 169.992 39.9775 170.193C40.3902 170.393 40.7582 170.675 41.0588 171.021C41.3593 171.368 41.5862 171.772 41.726 172.209C41.8658 172.646 41.9156 173.107 41.872 173.564C41.8284 174.021 41.6927 174.464 41.4728 174.867C38.5295 180.756 35.6096 186.809 32.7831 192.652L31.6385 194.989C31.3436 195.572 30.8872 196.059 30.324 196.39C29.7608 196.721 29.1143 196.884 28.4614 196.858L28.5783 196.812ZM896.246 180.896C895.373 180.891 894.536 180.552 893.906 179.947C893.275 179.343 892.901 178.52 892.859 177.648L892.555 171.151C892.321 165.869 892.065 160.54 891.761 155.212C891.716 154.314 892.027 153.435 892.626 152.766C893.226 152.096 894.065 151.69 894.961 151.636C895.406 151.611 895.852 151.674 896.272 151.821C896.693 151.968 897.08 152.197 897.412 152.495C897.744 152.792 898.015 153.152 898.207 153.554C898.4 153.956 898.511 154.393 898.535 154.838C898.847 160.182 899.112 165.51 899.33 170.823L899.633 177.321C899.655 177.766 899.589 178.211 899.439 178.63C899.289 179.05 899.058 179.436 898.758 179.766C898.459 180.096 898.097 180.363 897.694 180.553C897.291 180.743 896.855 180.852 896.41 180.873L896.246 180.896ZM218.585 179.307C217.762 179.308 216.967 179.01 216.349 178.469C215.73 177.927 215.329 177.178 215.221 176.362C214.38 170.052 213.399 164.397 212.184 159.045C211.857 157.619 211.483 156.147 211.11 154.721C210.878 153.86 210.994 152.942 211.43 152.165C211.867 151.387 212.59 150.812 213.446 150.561C214.307 150.33 215.224 150.445 216.001 150.881C216.778 151.318 217.353 152.042 217.604 152.898C218.001 154.394 218.375 155.936 218.725 157.572C219.986 163.111 221.061 168.977 221.879 175.498C221.941 175.94 221.915 176.391 221.801 176.823C221.688 177.255 221.489 177.66 221.217 178.015C220.945 178.37 220.606 178.666 220.218 178.888C219.83 179.11 219.402 179.252 218.959 179.307H218.585ZM575.986 174.072C575.57 174.074 575.158 173.994 574.772 173.838C574.356 173.678 573.975 173.437 573.652 173.129C573.329 172.821 573.07 172.453 572.89 172.044C572.71 171.636 572.612 171.196 572.602 170.75C572.592 170.304 572.671 169.86 572.833 169.445C575.636 162.176 578.556 155.142 581.476 148.411C581.653 148.002 581.91 147.633 582.231 147.325C582.552 147.017 582.931 146.775 583.346 146.614C583.761 146.453 584.204 146.376 584.648 146.388C585.093 146.399 585.531 146.499 585.937 146.681C586.346 146.859 586.715 147.116 587.024 147.436C587.333 147.757 587.576 148.135 587.738 148.55C587.901 148.965 587.981 149.407 587.972 149.852C587.964 150.298 587.867 150.737 587.689 151.145C584.816 157.666 581.943 164.607 579.163 171.782C578.929 172.491 578.468 173.104 577.852 173.526C577.236 173.948 576.499 174.156 575.753 174.119L575.986 174.072ZM49.205 156.801C48.608 156.801 48.0205 156.648 47.4992 156.357C47.1124 156.13 46.7745 155.829 46.504 155.471C46.2336 155.114 46.0363 154.706 45.9234 154.272C45.8106 153.838 45.7844 153.385 45.8465 152.941C45.9085 152.497 46.0576 152.069 46.285 151.683C50.1043 145.09 54.2758 138.708 58.7821 132.565C59.3161 131.863 60.1035 131.397 60.976 131.266C61.8485 131.135 62.7374 131.35 63.454 131.864C64.1599 132.395 64.631 133.181 64.7662 134.054C64.9015 134.927 64.6904 135.819 64.1782 136.539C59.8096 142.474 55.7703 148.646 52.0781 155.025C51.7863 155.592 51.3388 156.064 50.7887 156.387C50.2386 156.71 49.6085 156.87 48.9711 156.848L49.205 156.801ZM206.812 136.165C206.171 136.161 205.544 135.978 205.003 135.635C204.462 135.292 204.028 134.803 203.752 134.225C200.659 127.682 196.81 121.524 192.282 115.879C191.75 115.185 191.503 114.313 191.595 113.444C191.686 112.574 192.108 111.772 192.773 111.204C193.474 110.636 194.371 110.368 195.268 110.46C196.166 110.552 196.99 110.997 197.561 111.695C202.417 117.761 206.549 124.373 209.872 131.397C210.255 132.209 210.301 133.14 209.999 133.986C209.697 134.832 209.071 135.523 208.26 135.908C207.737 136.158 207.156 136.263 206.578 136.211L206.812 136.165ZM893.583 136.001C892.741 136.005 891.928 135.692 891.306 135.125C890.683 134.558 890.295 133.778 890.219 132.939C889.425 124.853 888.467 117.655 887.276 110.924C887.119 110.035 887.322 109.12 887.839 108.38C888.355 107.639 889.144 107.134 890.033 106.975C890.922 106.818 891.836 107.02 892.576 107.537C893.316 108.054 893.821 108.844 893.98 109.732C895.195 116.744 896.176 124.035 896.97 132.285C897.012 132.729 896.966 133.176 896.835 133.602C896.703 134.028 896.49 134.423 896.206 134.766C895.921 135.109 895.572 135.393 895.178 135.601C894.785 135.808 894.354 135.937 893.91 135.978L893.583 136.001ZM594.137 132.986C593.601 132.976 593.075 132.849 592.595 132.612C592.187 132.407 591.823 132.122 591.527 131.775C591.231 131.427 591.007 131.023 590.87 130.587C590.733 130.151 590.684 129.692 590.728 129.237C590.771 128.782 590.906 128.34 591.124 127.938C594.628 120.927 598.318 114.36 602.056 108.05C602.526 107.281 603.279 106.727 604.153 106.509C605.027 106.29 605.951 106.424 606.728 106.881C607.501 107.347 608.058 108.1 608.277 108.977C608.496 109.853 608.359 110.78 607.896 111.555C604.228 117.725 600.607 124.292 597.173 131.047C596.882 131.646 596.422 132.147 595.849 132.488C595.276 132.828 594.616 132.993 593.95 132.963L594.137 132.986ZM76.1147 120.997C75.2318 120.972 74.3936 120.603 73.7787 119.968C73.4609 119.653 73.2089 119.279 73.0367 118.866C72.8646 118.452 72.7761 118.009 72.7761 117.562C72.7761 117.114 72.8646 116.671 73.0367 116.257C73.2089 115.844 73.4609 115.469 73.7787 115.154C79.3116 109.772 85.3685 104.957 91.859 100.781C92.6152 100.299 93.5319 100.136 94.4077 100.329C95.2835 100.522 96.0469 101.054 96.5309 101.809C96.7727 102.183 96.9382 102.601 97.0174 103.039C97.0966 103.477 97.0879 103.927 96.9923 104.361C96.8967 104.796 96.7158 105.207 96.4602 105.572C96.2046 105.936 95.8794 106.246 95.5032 106.484C89.3922 110.427 83.6877 114.967 78.474 120.039C78.1411 120.372 77.7435 120.633 77.3055 120.806C76.8674 120.979 76.3988 121.06 75.9282 121.044L76.1147 120.997ZM178.383 101.997C177.719 101.992 177.071 101.797 176.515 101.436C173.306 99.3177 169.904 97.51 166.353 96.037C163.327 94.7874 160.201 93.7944 157.009 93.0688C156.572 92.9698 156.159 92.785 155.794 92.5252C155.429 92.2655 155.12 91.9359 154.883 91.5555C154.646 91.1752 154.487 90.7517 154.415 90.3094C154.343 89.8671 154.359 89.4149 154.463 88.979C154.668 88.1056 155.212 87.3494 155.973 86.8762C156.735 86.4031 157.654 86.2516 158.527 86.4549C162.051 87.2772 165.504 88.3792 168.853 89.7502C172.804 91.3965 176.589 93.4155 180.158 95.7799C180.529 96.0232 180.848 96.3372 181.096 96.7041C181.345 97.071 181.52 97.4834 181.609 97.9177C181.698 98.3521 181.7 98.7998 181.615 99.2351C181.531 99.6703 181.361 100.085 181.116 100.454C180.809 100.949 180.378 101.356 179.866 101.635C179.354 101.913 178.779 102.054 178.196 102.043L178.383 101.997ZM113.724 96.9485C113.016 96.943 112.328 96.7141 111.757 96.2945C111.187 95.8748 110.763 95.2859 110.547 94.6114C110.389 94.1941 110.316 93.7497 110.331 93.3039C110.346 92.8582 110.448 92.4197 110.633 92.0137C110.817 91.6077 111.08 91.2421 111.406 90.9379C111.732 90.6337 112.115 90.3968 112.532 90.2409C119.833 87.4966 127.456 85.7057 135.214 84.9125C136.106 84.8277 136.995 85.0998 137.687 85.6692C138.378 86.2386 138.817 87.0589 138.905 87.9506C138.99 88.8453 138.719 89.7375 138.15 90.4332C137.582 91.129 136.762 91.5722 135.869 91.6667C128.676 92.3994 121.609 94.0649 114.845 96.6212C114.437 96.8291 113.993 96.956 113.537 96.9951L113.724 96.9485ZM617.193 94.4244C616.492 94.4284 615.806 94.2162 615.23 93.8167C614.519 93.2924 614.038 92.514 613.885 91.6435C613.733 90.773 613.922 89.8773 614.413 89.1426C615.745 87.2729 617.099 85.4032 618.454 83.5803C621.608 79.3268 624.948 75.1434 628.359 71.1236C628.936 70.4656 629.747 70.0584 630.619 69.9886C631.491 69.9188 632.356 70.1919 633.031 70.7498C633.692 71.324 634.103 72.1335 634.177 73.0063C634.251 73.879 633.982 74.7463 633.427 75.4239C630.11 79.3269 626.864 83.4167 623.804 87.5534C622.496 89.3296 621.164 91.1525 619.879 92.9754C619.564 93.4465 619.137 93.8306 618.634 94.092C618.132 94.3535 617.572 94.4839 617.006 94.4712L617.193 94.4244ZM885.5 91.8535C884.78 91.8629 884.077 91.641 883.492 91.2203C882.908 90.7996 882.474 90.2024 882.254 89.5164C880.16 82.5167 877.496 75.7008 874.288 69.1372C874.089 68.737 873.97 68.3012 873.939 67.8549C873.909 67.4087 873.967 66.961 874.11 66.5374C874.254 66.1137 874.48 65.7226 874.775 65.3866C875.07 65.0507 875.428 64.7764 875.83 64.5798C876.228 64.3806 876.662 64.2625 877.106 64.2322C877.55 64.202 877.996 64.2603 878.418 64.4038C878.839 64.5473 879.228 64.7731 879.562 65.0681C879.896 65.3631 880.167 65.7215 880.361 66.1224C883.744 73.0221 886.549 80.1902 888.748 87.5534C888.873 87.9846 888.911 88.4362 888.861 88.8824C888.811 89.3286 888.674 89.7605 888.457 90.1535C888.24 90.5465 887.948 90.8927 887.597 91.1724C887.246 91.4521 886.843 91.6598 886.412 91.7835C886.054 91.8795 885.684 91.9189 885.314 91.9003L885.5 91.8535ZM646.275 60.2329C645.392 60.208 644.554 59.839 643.939 59.2046C643.622 58.8915 643.37 58.5186 643.198 58.1074C643.027 57.6962 642.938 57.2548 642.938 56.809C642.938 56.3633 643.027 55.9221 643.198 55.5108C643.37 55.0996 643.622 54.7267 643.939 54.4136C649.39 49.1027 655.113 44.079 661.085 39.3628C661.785 38.8324 662.663 38.5945 663.534 38.6991C664.406 38.8037 665.203 39.2428 665.757 39.9237C666.287 40.6236 666.525 41.5021 666.421 42.374C666.316 43.246 665.877 44.0433 665.197 44.5979C659.407 49.1706 653.855 54.0381 648.564 59.1812C648.248 59.5227 647.865 59.7962 647.439 59.985C647.014 60.1738 646.554 60.2741 646.088 60.2797L646.275 60.2329ZM865.482 51.8895C864.963 51.895 864.45 51.7796 863.984 51.5525C863.518 51.3253 863.11 50.9926 862.795 50.5808C858.339 44.8579 853.279 39.6318 847.705 34.9925C847.042 34.4215 846.625 33.616 846.543 32.7447C846.46 31.8734 846.718 31.004 847.261 30.3183C847.839 29.6264 848.667 29.1912 849.564 29.108C850.461 29.0248 851.355 29.3004 852.05 29.8743C858.007 34.8226 863.411 40.4017 868.168 46.5143C868.687 47.222 868.913 48.1026 868.8 48.9732C868.687 49.8437 868.243 50.6371 867.56 51.1884C866.923 51.7083 866.116 51.9746 865.295 51.9363L865.482 51.8895ZM681.385 32.4684C680.807 32.4707 680.238 32.326 679.731 32.048C679.225 31.7701 678.797 31.3679 678.488 30.8792C678.025 30.111 677.88 29.1918 678.086 28.3183C678.291 27.4449 678.829 26.6864 679.586 26.2051C686.062 22.1754 692.779 18.5461 699.699 15.3376C700.104 15.1491 700.541 15.0425 700.987 15.0239C701.433 15.0053 701.879 15.0751 702.298 15.2293C702.717 15.3835 703.101 15.6191 703.429 15.9224C703.756 16.2258 704.021 16.591 704.207 16.997C704.396 17.4019 704.502 17.8401 704.521 18.2863C704.539 18.7326 704.47 19.178 704.315 19.5972C704.161 20.0164 703.926 20.401 703.623 20.7288C703.319 21.0566 702.954 21.3213 702.549 21.5075C695.878 24.5974 689.403 28.0939 683.16 31.9776C682.626 32.3056 682.011 32.4758 681.385 32.4684ZM831.12 23.1201C830.556 23.1193 830 22.9745 829.508 22.6994C823.086 19.2257 816.372 16.3242 809.442 14.0288C808.589 13.7409 807.885 13.1274 807.482 12.3218C807.079 11.5163 807.011 10.5841 807.293 9.72868C807.58 8.87532 808.194 8.17038 808.999 7.76761C809.804 7.36484 810.736 7.29679 811.591 7.57846C818.89 10.0135 825.963 13.0789 832.732 16.7399C833.134 16.9505 833.491 17.24 833.779 17.5912C834.068 17.9425 834.283 18.3483 834.412 18.7844C834.54 19.2206 834.58 19.6782 834.528 20.13C834.476 20.5817 834.333 21.0185 834.109 21.4141C833.823 21.9689 833.392 22.4356 832.861 22.7648C832.33 23.094 831.721 23.2733 831.096 23.2837L831.12 23.1201ZM722.077 13.6316C721.359 13.6337 720.658 13.4089 720.075 12.9892C719.492 12.5696 719.057 11.9765 718.83 11.2945C718.577 10.4205 718.681 9.48194 719.119 8.68453C719.557 7.88711 720.293 7.29598 721.166 7.04098C725.838 5.59199 730.72 4.33005 735.509 3.32511C738.148 2.76421 740.859 2.27329 743.545 1.87599C743.985 1.80968 744.434 1.83088 744.866 1.93832C745.298 2.04577 745.705 2.23738 746.063 2.50219C746.421 2.76701 746.723 3.09993 746.952 3.48173C747.182 3.86352 747.333 4.28675 747.399 4.7273C747.465 5.16775 747.444 5.61691 747.337 6.04918C747.229 6.48144 747.037 6.88838 746.773 7.24653C746.508 7.60468 746.176 7.90707 745.794 8.13649C745.412 8.3659 744.989 8.51784 744.549 8.58353C742.003 8.98084 739.433 9.44817 736.911 9.96233C732.239 10.9439 727.707 12.1359 723.175 13.5381C722.815 13.6736 722.437 13.7523 722.054 13.7718L722.077 13.6316ZM788.722 8.9574H788.161C780.939 7.78008 773.637 7.16286 766.32 7.11116C765.875 7.11121 765.433 7.02259 765.022 6.85055C764.611 6.67851 764.238 6.42642 763.925 6.10895C763.612 5.79147 763.365 5.41489 763.199 5.00117C763.033 4.58745 762.95 4.14484 762.956 3.69898C762.956 3.25505 763.044 2.81546 763.215 2.40562C763.385 1.99578 763.635 1.62379 763.95 1.31097C764.265 0.998161 764.638 0.750808 765.049 0.583062C765.46 0.415315 765.9 0.330494 766.344 0.333577C774.013 0.373767 781.667 1.01454 789.236 2.25C790.121 2.3935 790.914 2.88252 791.439 3.60982C791.965 4.33713 792.181 5.24327 792.039 6.12949C791.942 6.94751 791.548 7.70144 790.932 8.24846C790.317 8.79549 789.522 9.09766 788.698 9.09762L788.722 8.9574Z" fill="#897E46" fill-opacity="0.5"/>
</svg>
